<svg width="30" height="12" viewBox="0 0 30 12" fill="none" xmlns="http://www.w3.org/2000/svg">
<path fill-rule="evenodd" clip-rule="evenodd" d="M13.4409 9.38653V5.86496H15.2585C16.0033 5.86496 16.6319 5.6154 17.1444 5.12321L17.2674 4.99843C18.2035 3.97939 18.142 2.39191 17.1444 1.44912C16.6456 0.950002 15.9623 0.679644 15.2585 0.693509H12.3408V9.38653H13.4409ZM13.441 4.7973V1.76098H15.2862C15.6826 1.76098 16.0584 1.91349 16.3386 2.19078C16.9332 2.77309 16.9469 3.7436 16.3728 4.34671C16.0926 4.64479 15.6962 4.81117 15.2862 4.7973H13.441ZM22.3987 3.90316C21.9272 3.46643 21.285 3.2446 20.4718 3.2446C19.4264 3.2446 18.6406 3.6328 18.1213 4.40228L19.0916 5.01925C19.4469 4.4924 19.932 4.22897 20.547 4.22897C20.9365 4.22897 21.3123 4.37455 21.6061 4.63797C21.8931 4.88754 22.0571 5.24801 22.0571 5.62928V5.88578C21.6334 5.65008 21.1005 5.5253 20.4445 5.5253C19.6792 5.5253 19.0643 5.70554 18.6065 6.07295C18.1486 6.44036 17.9163 6.92561 17.9163 7.54258C17.9027 8.10409 18.1418 8.63788 18.5655 8.99835C18.9959 9.38656 19.5426 9.58066 20.1849 9.58066C20.9433 9.58066 21.5446 9.24098 22.0024 8.56162H22.0502V9.38656H23.1025V5.7194C23.1025 4.94993 22.8702 4.33989 22.3987 3.90316ZM19.413 8.29122C19.1874 8.12485 19.0508 7.85449 19.0508 7.56334C19.0508 7.23752 19.2011 6.96717 19.495 6.75227C19.7957 6.53737 20.1715 6.42645 20.6157 6.42645C21.2308 6.41952 21.7092 6.55817 22.0509 6.83545C22.0509 7.30685 21.8664 7.71585 21.5042 8.06246C21.1761 8.39521 20.7319 8.58238 20.2672 8.58238C19.9597 8.58931 19.659 8.48533 19.413 8.29122ZM25.4667 12L29.1428 3.43869H27.9471L26.2457 7.70895H26.2252L24.4828 3.43869H23.287L25.699 9.00528L24.3324 12H25.4667Z" fill="#3C4043" style="fill:#3C4043;fill:color(display-p3 0.2353 0.2510 0.2627);fill-opacity:1;"/>
<path d="M9.64293 5.10236C9.64293 4.76268 9.6156 4.423 9.56093 4.09026H4.92139V6.01048H7.57939C7.47006 6.62745 7.11475 7.18203 6.59545 7.52864V8.77645H8.18069C9.10996 7.90992 9.64293 6.62745 9.64293 5.10236Z" fill="#4285F4" style="fill:#4285F4;fill:color(display-p3 0.2588 0.5216 0.9569);fill-opacity:1;"/>
<path d="M4.9214 9.98267C6.24698 9.98267 7.36758 9.53901 8.1807 8.77646L6.59546 7.52866C6.15132 7.83368 5.58419 8.00699 4.9214 8.00699C3.63681 8.00699 2.55037 7.12659 2.1609 5.94811H0.527832V7.23751C1.36145 8.92204 3.06284 9.98267 4.9214 9.98267Z" fill="#34A853" style="fill:#34A853;fill:color(display-p3 0.2039 0.6588 0.3255);fill-opacity:1;"/>
<path d="M2.16125 5.94812C1.95623 5.33115 1.95623 4.65872 2.16125 4.03482V2.75236H0.527927C-0.175976 4.1596 -0.175976 5.82334 0.527927 7.23058L2.16125 5.94812Z" fill="#FBBC04" style="fill:#FBBC04;fill:color(display-p3 0.9843 0.7373 0.0157);fill-opacity:1;"/>
<path d="M4.9214 1.97599C5.62519 1.96212 6.30164 2.23248 6.80728 2.72467L8.21486 1.29663C7.31975 0.450897 6.14449 -0.0135628 4.9214 0.000301698C3.06284 0.000301698 1.36145 1.06787 0.527832 2.7524L2.1609 4.0418C2.55037 2.85638 3.63681 1.97599 4.9214 1.97599Z" fill="#EA4335" style="fill:#EA4335;fill:color(display-p3 0.9176 0.2627 0.2078);fill-opacity:1;"/>
</svg>
