<svg width="33" height="8" viewBox="0 0 33 8" fill="none" xmlns="http://www.w3.org/2000/svg">
<path d="M18.8542 0.883044C18.7994 0.709588 18.7275 0.562413 18.5728 0.555843H18.563H18.4339H18.1853C18.1743 0.554529 18.1622 0.553215 18.15 0.553215H18.0257C18.0135 0.553215 18.0013 0.554529 17.9904 0.555843C17.8612 0.576868 17.7966 0.716159 17.7479 0.879102L15.835 6.64389C15.835 6.7201 15.8922 6.78186 15.9629 6.78186H16.3625C16.5209 6.78186 16.6026 6.64126 16.6501 6.47174L17.0315 5.27069C17.0583 5.18791 17.1302 5.13272 17.2118 5.13272H19.3392C19.4196 5.13272 19.4915 5.18791 19.5183 5.26938L19.9155 6.48357C19.9642 6.65308 20.0495 6.79369 20.2152 6.79369H20.6331C20.7075 6.79369 20.7672 6.73193 20.7672 6.65571L18.8542 0.883044ZM17.2934 4.45072L18.2584 1.41787L19.2514 4.45072H17.2934Z" fill="#76A62D" style="fill:#76A62D;fill:color(display-p3 0.4627 0.6510 0.1765);fill-opacity:1;"/>
<path d="M24.4466 0.571618C24.3954 0.550593 24.0993 0.553221 24.0993 0.553221C23.9007 0.558477 23.774 0.553221 23.6851 0.685941C23.6717 0.705652 23.6619 0.726677 23.6522 0.747702L22.4666 3.5138L21.2458 0.749016C21.236 0.727991 21.2263 0.706966 21.2129 0.687255C21.1239 0.554535 20.9972 0.558477 20.7986 0.554535C20.7986 0.554535 20.5025 0.551907 20.4513 0.572932C20.3295 0.622866 20.4099 0.784496 20.4672 0.917216L21.9646 4.13929C22.0329 4.28647 22.0682 4.4481 22.0682 4.61235V6.55716C22.0682 6.68857 22.1669 6.79501 22.2887 6.79501H22.6019C22.7237 6.79501 22.8224 6.68857 22.8224 6.55716V4.62155C22.8224 4.45729 22.8578 4.29567 22.926 4.14849L24.4295 0.915902C24.488 0.783182 24.5684 0.621552 24.4466 0.571618Z" fill="#76A62D" style="fill:#76A62D;fill:color(display-p3 0.4627 0.6510 0.1765);fill-opacity:1;"/>
<path d="M30.1709 3.58081L26.5765 0.33377C26.5497 0.310116 26.5107 0.311431 26.4863 0.339026L25.9551 0.935609L28.8903 3.58081L25.9551 6.22602L26.4863 6.8226C26.5107 6.8502 26.5497 6.85151 26.5765 6.82786L30.1709 3.58081Z" fill="#76A62D" style="fill:#76A62D;fill:color(display-p3 0.4627 0.6510 0.1765);fill-opacity:1;"/>
<path d="M32.7539 3.6071L29.1595 0.360053C29.1327 0.3364 29.0937 0.337714 29.0693 0.365309L28.5381 0.961892L31.4733 3.6071L28.5381 6.2523L29.0693 6.84888C29.0937 6.87648 29.1327 6.87779 29.1595 6.85414L32.7539 3.6071Z" fill="#76A62D" style="fill:#76A62D;fill:color(display-p3 0.4627 0.6510 0.1765);fill-opacity:1;"/>
<path d="M4.64727 0.549278H4.19402C4.09898 0.549278 4.02344 0.632064 4.02344 0.733247V6.58739C4.02344 6.69383 4.10385 6.78187 4.20377 6.78187H4.63996C4.73866 6.78187 4.82029 6.69514 4.82029 6.58739V0.734561C4.81907 0.632064 4.74231 0.549278 4.64727 0.549278Z" fill="#76A62D" style="fill:#76A62D;fill:color(display-p3 0.4627 0.6510 0.1765);fill-opacity:1;"/>
<path d="M3.02558 6.03942H1.00177V0.734559C1.00177 0.632062 0.925007 0.550591 0.831187 0.550591H0.418139C0.323101 0.550591 0.247559 0.633376 0.247559 0.734559V6.04074V6.52562C0.247559 6.64652 0.337723 6.74376 0.449818 6.74376H1.00299H3.0268C3.12428 6.74376 3.20226 6.65966 3.20226 6.55453V6.22865C3.20104 6.12484 3.12184 6.03942 3.02558 6.03942Z" fill="#76A62D" style="fill:#76A62D;fill:color(display-p3 0.4627 0.6510 0.1765);fill-opacity:1;"/>
<path d="M15.2418 0.893559C14.9896 0.70959 14.6411 0.579498 13.9746 0.579498H12.9231H12.6843C12.5308 0.579498 12.4053 0.713532 12.4053 0.880418V6.47306C12.4053 6.64389 12.5332 6.78318 12.6928 6.78318H12.9146C13.073 6.78318 13.2021 6.6452 13.2021 6.47306V4.37188C13.4409 4.37188 14.267 4.37188 14.3645 4.37188C14.4778 4.37188 15.9326 4.12615 15.9326 2.41787C15.9314 1.67411 15.5781 1.1406 15.2418 0.893559ZM14.1001 3.72799C14.0246 3.72799 13.2899 3.72799 13.2899 3.72799H13.2009V1.22339H13.8418C14.2817 1.22339 14.5119 1.3088 14.6789 1.43101C14.9018 1.59395 15.1346 1.94612 15.1346 2.43758C15.1358 3.56636 14.1757 3.72799 14.1001 3.72799Z" fill="#76A62D" style="fill:#76A62D;fill:color(display-p3 0.4627 0.6510 0.1765);fill-opacity:1;"/>
<path d="M11.6681 6.92116C11.6365 6.89619 11.6011 6.87779 11.5634 6.86202C11.2636 6.7385 10.8262 6.4113 10.5825 6.24179C10.3937 6.11038 10.4229 6.00657 10.4485 5.96321C10.4534 5.95664 10.4595 5.94875 10.4643 5.94218C10.4656 5.94087 10.4656 5.94087 10.4656 5.94087C10.8798 5.39291 11.1198 4.61235 11.1198 3.62681C11.1198 1.88436 10.429 0.471748 8.55383 0.471748C6.82853 0.471748 6 1.88436 6 3.62681C6 5.36925 6.55682 6.86071 8.55383 6.86071C8.95957 6.86071 9.33241 6.77661 9.66017 6.61367H9.66139C9.75764 6.56899 9.85146 6.5703 9.98062 6.67149C10.9066 7.4113 11.366 7.68331 11.6949 7.68331C11.8533 7.68331 11.8253 7.15769 11.8253 7.15769C11.8253 7.15769 11.8022 7.02497 11.6681 6.92116ZM6.81879 3.63995C6.81879 3.63601 6.81879 3.63206 6.81879 3.62681C6.82122 2.44415 7.22087 1.18923 8.55627 1.18923C10.0696 1.18923 10.3011 2.44415 10.3023 3.62681C10.3023 3.63075 10.3023 3.63469 10.3023 3.63995C10.3023 5.04731 9.87949 6.11695 8.55627 6.11695C7.03689 6.11695 6.81879 4.82654 6.81879 3.63995Z" fill="#76A62D" style="fill:#76A62D;fill:color(display-p3 0.4627 0.6510 0.1765);fill-opacity:1;"/>
</svg>
