<svg width="215" height="58" viewBox="0 0 215 58" fill="none" xmlns="http://www.w3.org/2000/svg">
<g clip-path="url(#clip0_261_2882)">
<path d="M37.7882 33.2969C37.7867 33.2965 18.7479 28.9513 18.7479 28.9513C13.0731 27.6561 9.51327 21.9662 10.7971 16.2425C12.0817 10.5187 17.7233 6.92918 23.3981 8.224C29.0732 9.51928 32.6327 15.2091 31.3488 20.9324C30.7054 23.798 28.9698 26.1266 26.6848 27.5772C26.6844 27.5772 26.6789 27.582 26.6767 27.5831C26.6095 27.6317 26.566 27.7109 26.566 27.8C26.566 27.9249 26.6515 28.0298 26.7669 28.0578C26.7673 28.0582 35.2365 29.9897 35.238 29.9897C35.4396 30.0358 35.6488 29.9574 35.7726 29.7924C35.7733 29.7909 35.773 29.792 35.773 29.792C38.1062 26.6782 39.5077 22.7929 39.5077 18.5905C39.5077 8.69397 31.8414 0.606216 22.1715 0.0317802C22.0853 0.0269699 21.5613 0.00632477 21.3843 0.00377655C17.1029 -0.0640068 12.7619 1.17414 8.98704 3.84043C-0.545909 10.5725 -2.86205 23.8234 3.81215 33.4376L20.751 57.8361C20.8234 57.9356 20.9399 58 21.0705 58C21.2024 58 21.3192 57.9344 21.3912 57.8343C21.3912 57.8343 38.0248 33.91 38.0263 33.9078C38.0686 33.8445 38.0939 33.7676 38.0939 33.6851C38.0939 33.4958 37.9635 33.3374 37.7882 33.2969Z" fill="#FABC26" style="fill:#FABC26;fill:color(display-p3 0.9804 0.7373 0.1490);fill-opacity:1;"/>
<path d="M54.0845 11.4244C54.2882 11.4244 54.4233 11.4925 54.4909 11.6291L60.139 21.3502H60.4092L65.212 11.7651C65.3132 11.5261 65.5166 11.4244 65.7871 11.4244H69.2367C69.5413 11.4244 69.7099 11.7315 69.5745 11.9698L59.6311 29.7077C59.5299 29.9121 59.3273 30.0149 59.0563 30.0149H55.6743C55.3022 30.0149 55.2686 29.7759 55.4041 29.503L58.0755 24.8977L50.0941 11.8678C49.9582 11.6291 50.0601 11.4244 50.2967 11.4244H54.0845Z" fill="#2C2E2C" style="fill:#2C2E2C;fill:color(display-p3 0.1725 0.1804 0.1725);fill-opacity:1;"/>
<path d="M75.5136 11.4244C75.8182 11.4244 75.9873 11.5945 75.9873 11.9017V19.1968L83.5977 11.6969C83.8004 11.5261 84.1045 11.4244 84.4766 11.4244H88.6028C88.9073 11.4244 89.0092 11.6969 88.7718 11.9359L80.6882 19.5769L89.2794 29.503C89.516 29.7413 89.3813 30.0149 89.0767 30.0149H85.0181C84.6461 30.0149 84.3758 29.9121 84.172 29.6731L77.736 22.0163L75.9873 23.6567V29.5369C75.9873 29.8441 75.8182 30.0149 75.5136 30.0149H72.5376C72.2331 30.0149 72.0645 29.8441 72.0645 29.5369V11.9017C72.0645 11.5945 72.2331 11.4244 72.5376 11.4244H75.5136Z" fill="#2C2E2C" style="fill:#2C2E2C;fill:color(display-p3 0.1725 0.1804 0.1725);fill-opacity:1;"/>
<path d="M100.494 21.3161C102.557 21.3161 103.741 20.0202 103.741 18.2124C103.741 16.4383 102.557 15.1766 100.494 15.1766H95.5896V21.3161H100.494ZM100.494 11.424C104.586 11.424 107.663 14.3915 107.663 18.2124C107.663 22.169 104.586 25.0685 100.494 25.0685H95.5896V29.5368C95.5896 29.8436 95.4204 30.0144 95.1166 30.0144H92.1397C91.8355 30.0144 91.666 29.8436 91.666 29.5368V11.9016C91.666 11.5944 91.8355 11.424 92.1397 11.424H100.494Z" fill="#2C2E2C" style="fill:#2C2E2C;fill:color(display-p3 0.1725 0.1804 0.1725);fill-opacity:1;"/>
<path d="M126.15 11.4244C126.454 11.4244 126.624 11.5945 126.624 11.9017V29.5369C126.624 29.8441 126.454 30.0149 126.15 30.0149H123.173C122.87 30.0149 122.7 29.8441 122.7 29.5369V15.1421H114.515V29.5369C114.515 29.8441 114.346 30.0149 114.042 30.0149H111.066C110.761 30.0149 110.592 29.8441 110.592 29.5369V11.9017C110.592 11.5945 110.761 11.4244 111.066 11.4244H126.15Z" fill="#2C2E2C" style="fill:#2C2E2C;fill:color(display-p3 0.1725 0.1804 0.1725);fill-opacity:1;"/>
<path d="M134.074 20.7361C134.074 24.1132 136.441 26.5685 139.823 26.5685C143.172 26.5685 145.54 24.1132 145.54 20.7361C145.54 17.2909 143.172 14.8692 139.823 14.8692C136.441 14.8692 134.074 17.2909 134.074 20.7361ZM139.823 11.1507C145.134 11.1507 149.497 15.2783 149.497 20.7361C149.497 26.2278 145.134 30.2874 139.823 30.2874C134.48 30.2874 130.117 26.2278 130.117 20.7361C130.117 15.2783 134.48 11.1507 139.823 11.1507Z" fill="#2C2E2C" style="fill:#2C2E2C;fill:color(display-p3 0.1725 0.1804 0.1725);fill-opacity:1;"/>
<path d="M162.63 26.2968V11.9013C162.63 11.5949 162.798 11.4244 163.104 11.4244H166.012C166.316 11.4244 166.486 11.5949 166.486 11.9013V26.2968H172.269V11.9013C172.269 11.5949 172.437 11.4244 172.742 11.4244H175.651C175.956 11.4244 176.124 11.5949 176.124 11.9013V29.5369C176.124 29.8441 175.956 30.0149 175.651 30.0149H153.464C153.228 30.0149 152.99 29.8441 152.99 29.5369V11.9013C152.99 11.5949 153.158 11.4244 153.464 11.4244H156.372C156.677 11.4244 156.846 11.5949 156.846 11.9013V26.2968H162.63Z" fill="#2C2E2C" style="fill:#2C2E2C;fill:color(display-p3 0.1725 0.1804 0.1725);fill-opacity:1;"/>
<path d="M194.918 11.4244C195.221 11.4244 195.391 11.5945 195.391 11.9017V14.6987C195.391 15.0059 195.221 15.1761 194.918 15.1761H189.033V29.5369C189.033 29.8441 188.862 30.0149 188.559 30.0149H185.582C185.279 30.0149 185.109 29.8441 185.109 29.5369V15.1761H179.224C178.92 15.1761 178.75 15.0059 178.75 14.6987V11.9017C178.75 11.5945 178.92 11.4244 179.224 11.4244H194.918Z" fill="#2C2E2C" style="fill:#2C2E2C;fill:color(display-p3 0.1725 0.1804 0.1725);fill-opacity:1;"/>
<path d="M201.609 22.7491H208.035L205.059 15.1085H204.687L201.609 22.7491ZM209.388 26.3306H200.188L198.904 29.6049C198.803 29.8782 198.6 30.0144 198.329 30.0144H194.981C194.643 30.0144 194.541 29.8436 194.643 29.5368L202.624 11.6972C202.692 11.5263 202.827 11.424 203.065 11.424H206.92C207.156 11.424 207.292 11.5263 207.359 11.6972L214.969 29.4683C215.071 29.7419 214.902 30.0144 214.597 30.0144H211.384C211.047 30.0144 210.808 29.8436 210.674 29.5368L209.388 26.3306Z" fill="#2C2E2C" style="fill:#2C2E2C;fill:color(display-p3 0.1725 0.1804 0.1725);fill-opacity:1;"/>
<path d="M52.6992 45.9534V37.9923H57.8924V38.9094H53.7424V45.9534H52.6992Z" fill="#617171" style="fill:#617171;fill:color(display-p3 0.3804 0.4431 0.4431);fill-opacity:1;"/>
<path d="M60.4491 41.9616C60.4491 43.9521 61.5252 45.2378 63.2008 45.2378C64.8543 45.2378 65.9304 43.9403 65.9304 41.9616C65.9304 39.9939 64.8543 38.7193 63.1786 38.7193C61.3145 38.7193 60.4491 40.2619 60.4491 41.9616ZM66.974 41.9056C66.974 44.243 65.6977 46.1433 63.1899 46.1433C60.6602 46.1433 59.4062 44.1978 59.4062 41.8832C59.4062 39.4017 60.8818 37.8023 63.1786 37.8023C65.6309 37.8023 66.974 39.5351 66.974 41.9056Z" fill="#617171" style="fill:#617171;fill:color(display-p3 0.3804 0.4431 0.4431);fill-opacity:1;"/>
<path d="M75.1414 45.9534H74.0985V38.9094H71.1802L71.0251 43.3927C70.9695 44.9922 70.3922 46.1213 69.1942 46.1213C68.9718 46.1213 68.6392 46.0429 68.4395 45.9645V45.0699C68.5841 45.1598 68.8835 45.1822 69.0051 45.1822C69.571 45.1822 69.9822 44.8689 70.0374 42.8448L70.1816 37.9924H75.1414V45.9534Z" fill="#617171" style="fill:#617171;fill:color(display-p3 0.3804 0.4431 0.4431);fill-opacity:1;"/>
<path d="M78.6452 41.9616C78.6452 43.9521 79.7213 45.2378 81.397 45.2378C83.05 45.2378 84.1264 43.9403 84.1264 41.9616C84.1264 39.9939 83.05 38.7193 81.3747 38.7193C79.5106 38.7193 78.6452 40.2619 78.6452 41.9616ZM85.1693 41.9056C85.1693 44.243 83.8939 46.1433 81.386 46.1433C78.8559 46.1433 77.6016 44.1978 77.6016 41.8832C77.6016 39.4017 79.0779 37.8023 81.3747 37.8023C83.827 37.8023 85.1693 39.5351 85.1693 41.9056Z" fill="#617171" style="fill:#617171;fill:color(display-p3 0.3804 0.4431 0.4431);fill-opacity:1;"/>
<path d="M88.6456 45.0699H90.732C91.7859 45.0699 92.8178 45.0032 92.8178 43.6056C92.8178 42.219 91.6084 42.23 90.5546 42.23H88.6456V45.0699ZM88.6456 41.4026H90.521C91.4087 41.4026 92.4742 41.3355 92.4742 40.1394C92.4742 38.9425 91.5526 38.8869 90.6211 38.8869H88.6456V41.4026ZM90.9983 37.9923C92.3077 37.9923 93.5165 38.5182 93.5165 39.9825C93.5165 40.765 93.0621 41.4364 92.3518 41.6931C93.3283 41.9174 93.8717 42.6547 93.8717 43.7062C93.8717 45.5398 92.3851 45.9534 90.8763 45.9534H87.625V37.9923H90.9983Z" fill="#617171" style="fill:#617171;fill:color(display-p3 0.3804 0.4431 0.4431);fill-opacity:1;"/>
<path d="M102.622 45.9534H101.578V42.23H97.4065V45.9534H96.3633V37.9923H97.4065V41.3127H101.578V37.9923H102.622V45.9534Z" fill="#617171" style="fill:#617171;fill:color(display-p3 0.3804 0.4431 0.4431);fill-opacity:1;"/>
<path d="M108.446 38.9985L107.081 42.6776H109.789L108.446 38.9985ZM112.141 45.9534H110.977L110.1 43.5161H106.782L105.884 45.9534H104.773L107.881 37.9923H109.057L112.141 45.9534Z" fill="#617171" style="fill:#617171;fill:color(display-p3 0.3804 0.4431 0.4431);fill-opacity:1;"/>
<path d="M125.004 45.9534H123.961V38.9094H119.789V45.9534H118.746V37.9923H125.004V45.9534Z" fill="#617171" style="fill:#617171;fill:color(display-p3 0.3804 0.4431 0.4431);fill-opacity:1;"/>
<path d="M128.518 41.9616C128.518 43.9521 129.594 45.2378 131.269 45.2378C132.923 45.2378 133.998 43.9403 133.998 41.9616C133.998 39.9939 132.923 38.7193 131.247 38.7193C129.382 38.7193 128.518 40.2619 128.518 41.9616ZM135.042 41.9056C135.042 44.243 133.766 46.1433 131.259 46.1433C128.728 46.1433 127.475 44.1978 127.475 41.8832C127.475 39.4017 128.95 37.8023 131.247 37.8023C133.699 37.8023 135.042 39.5351 135.042 41.9056Z" fill="#617171" style="fill:#617171;fill:color(display-p3 0.3804 0.4431 0.4431);fill-opacity:1;"/>
<path d="M137.498 37.9923H138.541V45.0367H142.048V37.9923H143.09V45.0367H146.596V37.9923H147.64V45.9534H137.498V37.9923Z" fill="#617171" style="fill:#617171;fill:color(display-p3 0.3804 0.4431 0.4431);fill-opacity:1;"/>
<path d="M156.207 38.9094H153.555V45.9534H152.511V38.9094H149.859V37.9923H156.207V38.9094Z" fill="#617171" style="fill:#617171;fill:color(display-p3 0.3804 0.4431 0.4431);fill-opacity:1;"/>
<path d="M160.245 38.9985L158.881 42.6776H161.588L160.245 38.9985ZM163.941 45.9534H162.775L161.899 43.5161H158.581L157.683 45.9534H156.572L159.679 37.9923H160.855L163.941 45.9534Z" fill="#617171" style="fill:#617171;fill:color(display-p3 0.3804 0.4431 0.4431);fill-opacity:1;"/>
<path d="M173.628 41.1904L177.089 45.9534H175.758L172.895 41.9056L171.586 43.1585V45.9534H170.543V37.9923H171.586V41.9395L175.592 37.9923H176.957L173.628 41.1904Z" fill="#617171" style="fill:#617171;fill:color(display-p3 0.3804 0.4431 0.4431);fill-opacity:1;"/>
<path d="M180.336 41.8051H182.344C183.355 41.8051 184.131 41.5256 184.131 40.3519C184.131 39.0769 183.232 38.898 182.2 38.898H180.336V41.8051ZM182.544 37.9923C184.054 37.9923 185.174 38.6295 185.174 40.2845C185.174 42.0849 184.02 42.6886 182.478 42.6886H180.336V45.9534H179.293V37.9923H182.544Z" fill="#617171" style="fill:#617171;fill:color(display-p3 0.3804 0.4431 0.4431);fill-opacity:1;"/>
<path d="M189.788 38.9985L188.423 42.6776H191.13L189.788 38.9985ZM193.483 45.9534H192.318L191.442 43.5161H188.124L187.225 45.9534H186.115L189.222 37.9923H190.398L193.483 45.9534Z" fill="#617171" style="fill:#617171;fill:color(display-p3 0.3804 0.4431 0.4431);fill-opacity:1;"/>
<path d="M197.729 37.3103H196.73V36.1811H197.729V37.3103ZM196.697 45.9534H195.654V37.9923H196.697V45.9534ZM195.631 37.3103H194.633V36.1811H195.631V37.3103Z" fill="#617171" style="fill:#617171;fill:color(display-p3 0.3804 0.4431 0.4431);fill-opacity:1;"/>
<path d="M205.841 45.9534H204.799V42.23H200.627V45.9534H199.584V37.9923H200.627V41.3127H204.799V37.9923H205.841V45.9534Z" fill="#617171" style="fill:#617171;fill:color(display-p3 0.3804 0.4431 0.4431);fill-opacity:1;"/>
<path d="M208.713 37.9923H209.756V44.7347H209.778L213.65 37.9923H214.97V45.9534H213.928V39.1885H213.906L210.022 45.9534H208.713V37.9923Z" fill="#617171" style="fill:#617171;fill:color(display-p3 0.3804 0.4431 0.4431);fill-opacity:1;"/>
</g>
<defs>
<clipPath id="clip0_261_2882">
<rect width="215" height="58" fill="white" style="fill:white;fill-opacity:1;"/>
</clipPath>
</defs>
</svg>
