<svg width="70" height="67" viewBox="0 0 70 67" fill="none" xmlns="http://www.w3.org/2000/svg">
<g clip-path="url(#clip0_236_1713)">
<path d="M65.8967 26.1249C64.6624 24.8538 64.094 23.1213 64.3457 21.3645L64.5731 19.7616C65.2552 14.9607 62.0397 10.5404 57.2489 9.70653L55.6492 9.42318C53.9034 9.11553 52.4174 8.04688 51.5892 6.48439L50.8259 5.05952C48.5442 0.776825 43.3393 -0.915204 38.9707 1.2221L37.5091 1.92643C35.9176 2.70363 34.0825 2.70363 32.491 1.92643L31.0375 1.214C26.6689 -0.915204 21.464 0.768729 19.1823 5.05142L18.419 6.47629C17.5827 8.03879 16.1048 9.11553 14.359 9.41508L12.7594 9.69843C7.96857 10.5323 4.75305 14.9526 5.43513 19.7535L5.66249 21.3564C5.91421 23.1132 5.34581 24.8457 4.11157 26.1168L2.98289 27.2745C-0.403151 30.7557 -0.403151 36.2204 2.98289 39.7016L4.11157 40.8674C5.34581 42.1384 5.91421 43.871 5.66249 45.6277L5.43513 47.2307C4.75305 52.0315 7.96857 56.4519 12.7594 57.2857L14.359 57.5691C16.1048 57.8767 17.5908 58.9454 18.419 60.5079L19.1823 61.9328C20.7982 64.9606 23.8675 66.6931 27.083 66.6931C28.4066 66.6931 29.7626 66.3936 31.0375 65.7702L32.491 65.0739C34.0825 64.2967 35.9176 64.2967 37.5091 65.0739L38.9626 65.7864C43.3312 67.9156 48.5361 66.2316 50.8178 61.9489L51.5811 60.5241C52.4174 58.9616 53.8953 57.8848 55.6411 57.5853L57.2407 57.3019C62.0315 56.4681 65.2471 52.0477 64.565 47.2469L64.3376 45.6439C64.0859 43.8871 64.6543 42.1546 65.8885 40.8836L67.0172 39.7259C70.4033 36.2447 70.4033 30.78 67.0172 27.2988L65.8967 26.1249ZM64.6868 37.4671L63.5581 38.6249C61.6255 40.6164 60.7323 43.3447 61.1221 46.0892L61.3495 47.6922C61.7879 50.7524 59.7336 53.5698 56.6805 54.1041L55.0808 54.3874C52.3363 54.8651 50.0139 56.549 48.7147 59.0021L47.9514 60.4269C46.498 63.1552 43.1769 64.2401 40.3917 62.88L38.9382 62.1675C36.4373 60.9451 33.5628 60.9451 31.0619 62.1675L29.6084 62.88C26.8232 64.2401 23.5021 63.1633 22.0487 60.4269L21.2854 59.0021C19.9781 56.549 17.6557 54.8651 14.9193 54.3874L13.3196 54.1041C10.2665 53.5698 8.21217 50.7524 8.65065 47.6922L8.87801 46.0892C9.26777 43.3366 8.38269 40.6164 6.44201 38.6249L5.31333 37.459C3.15341 35.2327 3.15341 31.7596 5.31333 29.5332L6.44201 28.3755C8.37457 26.3839 9.26777 23.6557 8.87801 20.9112L8.65065 19.3082C8.21217 16.248 10.2665 13.4306 13.3196 12.8963L14.9193 12.6129C17.6639 12.1353 19.9862 10.4513 21.2854 7.99831L22.0487 6.57344C23.0799 4.63854 25.0368 3.5375 27.083 3.5375C27.9275 3.5375 28.7882 3.72371 29.6084 4.1204L31.0619 4.83284C33.5628 6.05531 36.4373 6.05531 38.9382 4.83284L40.3917 4.1204C43.1769 2.7603 46.498 3.83705 47.9514 6.57344L48.7147 7.99831C50.022 10.4513 52.3444 12.1353 55.0808 12.6129L56.6805 12.8963C59.7336 13.4306 61.7879 16.248 61.3495 19.3082L61.1221 20.9112C60.7323 23.6637 61.6174 26.3839 63.5581 28.3755L64.6868 29.5413C66.8467 31.7596 66.8467 35.2408 64.6868 37.4671Z" fill="#C14073" style="fill:#C14073;fill:color(display-p3 0.7569 0.2510 0.4510);fill-opacity:1;"/>
<path d="M47.9183 20.6196C47.285 19.9881 46.2537 19.9881 45.6204 20.6196L22.0805 44.0894C21.4471 44.7209 21.4471 45.7491 22.0805 46.3805C22.3972 46.6963 22.8113 46.8582 23.2254 46.8582C23.6395 46.8582 24.0536 46.6963 24.3703 46.3805L47.9102 22.9107C48.5517 22.2792 48.5517 21.2511 47.9183 20.6196Z" fill="#C14073" style="fill:#C14073;fill:color(display-p3 0.7569 0.2510 0.4510);fill-opacity:1;"/>
<path d="M28.3981 29.2173C30.1683 29.2173 31.9303 28.5453 33.2782 27.2014C35.9659 24.5217 35.9659 20.15 33.2782 17.4702C30.5905 14.7905 26.2057 14.7905 23.518 17.4702C22.2107 18.7656 21.4961 20.4981 21.4961 22.3358C21.4961 24.1736 22.2107 25.9061 23.518 27.2014C24.8659 28.5453 26.6279 29.2173 28.3981 29.2173ZM25.8159 19.7614C26.5305 19.0489 27.4643 18.6927 28.3981 18.6927C29.3319 18.6927 30.2657 19.0489 30.9803 19.7614C32.4013 21.1781 32.4013 23.4935 30.9803 24.9103C29.5511 26.3271 27.2369 26.3271 25.8159 24.9103C25.1257 24.2222 24.7441 23.3073 24.7441 22.3358C24.7441 21.3643 25.1257 20.4495 25.8159 19.7614Z" fill="#C14073" style="fill:#C14073;fill:color(display-p3 0.7569 0.2510 0.4510);fill-opacity:1;"/>
<path d="M36.7209 39.7986C34.0331 42.4783 34.0331 46.8501 36.7209 49.5298C38.0688 50.8737 39.8308 51.5456 41.601 51.5456C43.3711 51.5456 45.1332 50.8737 46.4811 49.5298C47.7884 48.2263 48.503 46.5019 48.503 44.6642C48.503 42.8264 47.7884 41.0939 46.4811 39.7986C43.7934 37.1108 39.4167 37.1108 36.7209 39.7986ZM44.1831 47.2386C42.7621 48.6554 40.4398 48.6554 39.0188 47.2386C37.5978 45.8219 37.5978 43.5065 39.0188 42.0897C39.7334 41.3773 40.6672 41.021 41.601 41.021C42.5348 41.021 43.4686 41.3773 44.1831 42.0897C44.8733 42.7778 45.255 43.6927 45.255 44.6642C45.255 45.6357 44.8733 46.5505 44.1831 47.2386Z" fill="#C14073" style="fill:#C14073;fill:color(display-p3 0.7569 0.2510 0.4510);fill-opacity:1;"/>
</g>
<defs>
<clipPath id="clip0_236_1713">
<rect width="70" height="67" fill="white" style="fill:white;fill-opacity:1;"/>
</clipPath>
</defs>
</svg>
