<svg width="70" height="70" viewBox="0 0 70 70" fill="none" xmlns="http://www.w3.org/2000/svg">
<g clip-path="url(#clip0_236_1649)">
<path d="M34.999 62.1474C49.9921 62.1474 62.1464 49.9931 62.1464 35C62.1464 20.0069 49.9921 7.85254 34.999 7.85254C20.0059 7.85254 7.85156 20.0069 7.85156 35C7.85156 49.9931 20.0059 62.1474 34.999 62.1474Z" stroke="#C14073" style="stroke:#C14073;stroke:color(display-p3 0.7569 0.2510 0.4510);stroke-opacity:1;" stroke-width="2.34375" stroke-miterlimit="10" stroke-linecap="round" stroke-linejoin="round"/>
<path d="M46.151 33.8111C47.2516 33.8111 48.1438 32.853 48.1438 31.6712C48.1438 30.4893 47.2516 29.5312 46.151 29.5312C45.0504 29.5312 44.1582 30.4893 44.1582 31.6712C44.1582 32.853 45.0504 33.8111 46.151 33.8111Z" fill="#C14073" style="fill:#C14073;fill:color(display-p3 0.7569 0.2510 0.4510);fill-opacity:1;"/>
<path d="M54.9127 40.4688C56.0133 40.4688 56.9055 39.5107 56.9055 38.3289C56.9055 37.147 56.0133 36.189 54.9127 36.189C53.8121 36.189 52.9199 37.147 52.9199 38.3289C52.9199 39.5107 53.8121 40.4688 54.9127 40.4688Z" fill="#C14073" style="fill:#C14073;fill:color(display-p3 0.7569 0.2510 0.4510);fill-opacity:1;"/>
<path d="M37.9207 1.73354C41.9159 0.715938 46.1528 1.85111 49.1039 4.73C50.5196 6.111 52.2588 7.1152 54.1626 7.65072C58.1314 8.76703 61.233 11.8686 62.3493 15.8373C62.8849 17.7411 63.8889 19.4805 65.2701 20.896C68.149 23.8471 69.2843 28.084 68.2665 32.0792C67.7783 33.9957 67.7783 36.004 68.2665 37.9205C69.2841 41.9157 68.149 46.1526 65.2701 49.1037C63.8891 50.5194 62.8849 52.2586 62.3493 54.1624C61.233 58.1313 58.1314 61.2329 54.1626 62.3492C52.2588 62.8847 50.5196 63.8888 49.1039 65.2699C46.1528 68.1488 41.9159 69.2841 37.9207 68.2664C36.0042 67.7781 33.9959 67.7781 32.0794 68.2664C28.0842 69.284 23.8473 68.1488 20.8962 65.2699C19.4805 63.8889 17.7413 62.8847 15.8375 62.3492C11.8687 61.2329 8.76709 58.1313 7.65091 54.1624C7.11539 52.2586 6.11132 50.5194 4.73019 49.1037C1.85117 46.1526 0.715857 41.9159 1.73359 37.9207C2.22181 36.0041 2.22181 33.9959 1.73359 32.0794C0.715993 28.0842 1.85117 23.8472 4.73006 20.8962C6.11105 19.4805 7.11525 17.7413 7.65078 15.8374C8.76709 11.8686 11.8687 8.76703 15.8374 7.65086C17.7412 7.11533 19.4805 6.11127 20.8961 4.73014C23.8472 1.85125 28.0841 0.715938 32.0793 1.73367C33.9958 2.22162 36.0042 2.22162 37.9207 1.73354Z" stroke="#C14073" style="stroke:#C14073;stroke:color(display-p3 0.7569 0.2510 0.4510);stroke-opacity:1;" stroke-width="2.34375" stroke-miterlimit="10" stroke-linecap="round" stroke-linejoin="round"/>
<path d="M20.4043 49.5957C28.4652 57.6566 41.5345 57.6566 49.5954 49.5957" stroke="#C14073" style="stroke:#C14073;stroke:color(display-p3 0.7569 0.2510 0.4510);stroke-opacity:1;" stroke-width="2.34375" stroke-miterlimit="10" stroke-linecap="round" stroke-linejoin="round"/>
<path d="M49.5954 20.4046C41.5345 12.3437 28.4652 12.3437 20.4043 20.4046" stroke="#C14073" style="stroke:#C14073;stroke:color(display-p3 0.7569 0.2510 0.4510);stroke-opacity:1;" stroke-width="2.34375" stroke-miterlimit="10" stroke-linecap="round" stroke-linejoin="round"/>
<path d="M52.9928 29.5312L48.0254 40.4688" stroke="#C14073" style="stroke:#C14073;stroke:color(display-p3 0.7569 0.2510 0.4510);stroke-opacity:1;" stroke-width="2.34375" stroke-miterlimit="10" stroke-linecap="round" stroke-linejoin="round"/>
<path d="M14.4531 29.5312H16.6991V40.4688" stroke="#C14073" style="stroke:#C14073;stroke:color(display-p3 0.7569 0.2510 0.4510);stroke-opacity:1;" stroke-width="2.34375" stroke-miterlimit="10" stroke-linecap="round" stroke-linejoin="round"/>
<path d="M28.2457 37.4299C28.2457 39.1083 26.8852 40.4688 25.2068 40.4688C23.5285 40.4688 22.168 39.1083 22.168 37.4299V32.5701C22.168 30.8917 23.5285 29.5312 25.2068 29.5312C26.8852 29.5312 28.2457 30.8917 28.2457 32.5701V37.4299Z" stroke="#C14073" style="stroke:#C14073;stroke:color(display-p3 0.7569 0.2510 0.4510);stroke-opacity:1;" stroke-width="2.34375" stroke-miterlimit="10" stroke-linecap="round" stroke-linejoin="round"/>
<path d="M39.7945 37.4299C39.7945 39.1083 38.434 40.4688 36.7556 40.4688C35.0773 40.4688 33.7168 39.1083 33.7168 37.4299V32.5701C33.7168 30.8917 35.0773 29.5312 36.7556 29.5312C38.434 29.5312 39.7945 30.8917 39.7945 32.5701V37.4299Z" stroke="#C14073" style="stroke:#C14073;stroke:color(display-p3 0.7569 0.2510 0.4510);stroke-opacity:1;" stroke-width="2.34375" stroke-miterlimit="10" stroke-linecap="round" stroke-linejoin="round"/>
</g>
<defs>
<clipPath id="clip0_236_1649">
<rect width="70" height="70" fill="white" style="fill:white;fill-opacity:1;"/>
</clipPath>
</defs>
</svg>
