<?xml version="1.0" encoding="UTF-8"?>

<svg version="1.1" xmlns="http://www.w3.org/2000/svg" xmlns:xlink="http://www.w3.org/1999/xlink">
    <symbol viewBox="0 0 132 73" id="logo" xmlns="http://www.w3.org/2000/svg">
        <path fill-rule="evenodd" clip-rule="evenodd" d="M84.4844 7.98291C83.6452 5.55242 82.7432 3.89717 81.7782 3.01716C80.8551 2.09525 79.4496 1.55048 77.5615 1.38287V0.125713C77.7713 0.125713 78.086 0.104761 78.5056 0.0628567C78.8832 0.0209522 79.2818 0 79.7013 0C82.0089 0 84.0858 0.523812 85.9318 1.57144C87.8199 2.61906 89.3303 4.75622 90.4631 7.98291L98.8964 32.2459L105.63 12.3201L104.12 7.98291C103.281 5.55242 102.379 3.89717 101.414 3.01716C100.491 2.09525 99.0852 1.55048 97.1972 1.38287V0.125713C97.4069 0.125713 97.7006 0.104761 98.0782 0.0628567C98.4978 0.0209522 98.9174 0 99.3369 0C101.645 0 103.721 0.523812 105.567 1.57144C107.455 2.61906 108.966 4.75622 110.099 7.98291L118.532 32.2459L129.294 0.628575H132L117.588 42.7431H116.329L107.015 16.2801L97.9524 42.7431H96.6937L84.4844 7.98291ZM4.97184 3.52002C5.85292 4.60955 6.29346 6.16004 6.29346 8.17148V42.1146H8.81085V9.11434L35.8727 42.7431H37.1314V0.628575H34.6141V31.7431L12.5869 4.40003C11.538 3.14287 10.3423 2.20001 8.99965 1.57144C7.65705 0.942862 6.02075 0.628575 4.09075 0.628575H0V1.88572H0.629346C2.68521 1.88572 4.13271 2.43049 4.97184 3.52002ZM48.2438 3.45717C48.8312 4.46288 49.1249 6.03432 49.1249 8.17148V42.1146H70.8374C73.2289 42.1146 74.8022 41.0669 75.5575 38.9717L77.7602 33.0002L76.5015 32.6859C75.5365 35.2002 74.2358 36.9812 72.5995 38.0288C70.9632 39.0764 68.6976 39.6002 65.8026 39.6002H54.789V22.0001H71.7814V19.4858H54.789V3.14288H66.4949C71.7394 3.14288 74.3617 5.55242 74.3617 10.3715H75.6204V5.65718C75.6204 2.30478 73.8372 0.628575 70.271 0.628575H43.4608V1.88572H44.7195C46.4817 1.88572 47.6564 2.40954 48.2438 3.45717ZM48.743 53.1684C49.1835 53.7132 49.4038 54.4885 49.4038 55.4942V72.4657H50.6625V55.9656L64.1934 72.78H64.8228V51.7227H63.5641V67.28L52.5505 53.6085C52.026 52.9799 51.4282 52.5084 50.7569 52.1942C50.0856 51.8799 49.2674 51.7227 48.3024 51.7227H46.257V52.3513H46.5717C47.5996 52.3513 48.3234 52.6237 48.743 53.1684ZM86.8723 72.6228C85.8653 72.6228 84.8688 72.3505 83.8829 71.8057C82.8969 71.24 82.1102 70.1505 81.5228 68.5371L80.7361 66.4942H71.9253L69.4079 72.4657H67.9919L76.8027 51.7227H77.7467L84.6695 68.5371C85.194 69.7524 85.687 70.5905 86.1485 71.0514C86.61 71.4914 87.2708 71.7533 88.1309 71.8371V72.4657C87.7533 72.5705 87.3338 72.6228 86.8723 72.6228ZM80.1068 65.2371L76.3307 56.1227L72.3973 65.2371H80.1068ZM91.1444 72.1829C91.543 72.3714 92.1304 72.4657 92.9066 72.4657H95.7387V71.8371H95.1093C94.2282 71.8371 93.6408 71.5857 93.3471 71.0828C93.0535 70.559 92.9066 69.7628 92.9066 68.6943V51.7227H90.0745V68.6943C90.0745 69.7628 90.1585 70.559 90.3263 71.0828C90.4941 71.6067 90.7668 71.9733 91.1444 72.1829ZM99.5826 55.4942C99.5826 54.4256 99.4357 53.6399 99.142 53.137C98.8484 52.6132 98.261 52.3513 97.3799 52.3513H96.7505V51.7227H99.5826C100.359 51.7227 100.936 51.8275 101.313 52.037C101.712 52.2256 101.995 52.5818 102.163 53.1056C102.331 53.6294 102.415 54.4256 102.415 55.4942V71.2086H113.586V72.4657H99.5826V55.4942ZM119.269 72.5286C120.381 72.8429 121.514 73 122.668 73C124.681 73 126.276 72.4762 127.451 71.4286C128.625 70.36 129.213 68.9457 129.213 67.1857C129.213 66.0542 128.919 65.1219 128.332 64.3885C127.744 63.6552 126.737 62.859 125.311 61.9999L121.44 59.7056C120.182 58.9513 119.28 58.2913 118.734 57.7256C118.21 57.1599 117.947 56.4475 117.947 55.5885C117.947 54.6456 118.315 53.8808 119.049 53.2942C119.783 52.7075 120.633 52.4142 121.598 52.4142C123.402 52.4142 124.797 52.8751 125.783 53.797C126.79 54.698 127.472 56.1961 127.828 58.2913H128.395V54.9285C128.395 54.1742 128.048 53.5142 127.356 52.9484C126.685 52.3618 125.825 51.9218 124.776 51.6284C123.727 51.3141 122.668 51.157 121.598 51.157C119.773 51.157 118.294 51.6494 117.161 52.6342C116.049 53.598 115.493 54.8866 115.493 56.4999C115.493 57.6732 115.766 58.6685 116.311 59.4856C116.878 60.3028 117.832 61.1095 119.175 61.9056L123.045 64.1999C124.262 64.9123 125.143 65.5933 125.688 66.2428C126.234 66.8923 126.507 67.6571 126.507 68.5371C126.507 69.5428 126.097 70.3286 125.279 70.8943C124.482 71.46 123.517 71.7429 122.384 71.7429C120.58 71.7429 119.164 71.2819 118.136 70.36C117.108 69.4171 116.416 67.8981 116.059 65.8028H115.493V69.1657C115.493 69.92 115.839 70.5905 116.531 71.1771C117.245 71.7638 118.157 72.2143 119.269 72.5286Z" fill="currentColor" />
    </symbol>

    <symbol viewBox="0 0 24 24" id="phone" xmlns="http://www.w3.org/2000/svg">
        <path d="M22.8444 16.1349L17.1912 13.6018L17.1756 13.5945C16.8821 13.469 16.562 13.4187 16.2441 13.448C15.9263 13.4773 15.6208 13.5854 15.3552 13.7626C15.3239 13.7832 15.2939 13.8056 15.2652 13.8298L12.3444 16.3197C10.494 15.4209 8.58361 13.525 7.68481 11.6986L10.1784 8.73335C10.2024 8.70335 10.2252 8.67335 10.2468 8.64095C10.4201 8.37612 10.5253 8.07254 10.5529 7.75724C10.5805 7.44194 10.5298 7.1247 10.4052 6.83375V6.81935L7.86481 1.15656C7.7001 0.776474 7.41688 0.459855 7.05743 0.253963C6.69799 0.0480714 6.28159 -0.0360497 5.87041 0.0141572C4.24437 0.228125 2.75182 1.02668 1.67153 2.26067C0.591235 3.49466 -0.00292912 5.0797 1.08584e-05 6.71975C1.08584e-05 16.2477 7.75201 23.9997 17.28 23.9997C18.9201 24.0027 20.5051 23.4085 21.7391 22.3282C22.9731 21.2479 23.7716 19.7554 23.9856 18.1293C24.0359 17.7183 23.952 17.302 23.7463 16.9426C23.5406 16.5832 23.2243 16.2999 22.8444 16.1349ZM17.28 22.0797C13.2076 22.0753 9.30335 20.4556 6.42376 17.576C3.54416 14.6964 1.92446 10.7921 1.92001 6.71975C1.9155 5.54794 2.33767 4.41455 3.10769 3.53124C3.87772 2.64794 4.94293 2.07512 6.10441 1.91976C6.10394 1.92454 6.10394 1.92937 6.10441 1.93416L8.62441 7.57415L6.14401 10.543C6.11883 10.5719 6.09596 10.6028 6.07561 10.6354C5.89503 10.9125 5.78909 11.2315 5.76807 11.5616C5.74704 11.8917 5.81164 12.2216 5.95561 12.5194C7.04281 14.743 9.28321 16.9665 11.5308 18.0525C11.8308 18.1952 12.1626 18.2575 12.4939 18.2336C12.8251 18.2096 13.1445 18.1001 13.4208 17.9157C13.4516 17.895 13.4813 17.8726 13.5096 17.8485L16.4268 15.3597L22.0668 17.8857C22.0668 17.8857 22.0764 17.8857 22.08 17.8857C21.9265 19.0489 21.3546 20.1162 20.4711 20.8882C19.5876 21.6601 18.4532 22.0837 17.28 22.0797Z" fill="currentColor"/>
    </symbol>

    <symbol viewBox="0 0 12 16" id="location" xmlns="http://www.w3.org/2000/svg">
        <path fill-rule="evenodd" clip-rule="evenodd" d="M0 6C0 2.691 2.691 0 6 0C9.309 0 12 2.691 12 6C12 10.159 6.584 15.623 6.354 15.854C6.256 15.951 6.128 16 6 16C5.872 16 5.744 15.951 5.646 15.854C5.416 15.623 0 10.159 0 6ZM1 6C1 9.177 4.806 13.499 6 14.777C7.194 13.499 11 9.174 11 6C11 3.243 8.757 1 6 1C3.243 1 1 3.243 1 6ZM3 6C3 4.346 4.346 3 6 3C7.654 3 9 4.346 9 6C9 7.654 7.654 9 6 9C4.346 9 3 7.654 3 6ZM4 6C4 7.103 4.897 8 6 8C7.103 8 8 7.103 8 6C8 4.897 7.103 4 6 4C4.897 4 4 4.897 4 6Z" fill="currentColor" />
    </symbol>

    <symbol viewBox="0 0 16 12" id="email" xmlns="http://www.w3.org/2000/svg">
        <path d="M14.5938 0.375H1.40625C0.629281 0.375 0 1.00819 0 1.78125V10.2188C0 10.9964 0.633906 11.625 1.40625 11.625H14.5938C15.3642 11.625 16 10.9991 16 10.2188V1.78125C16 1.00956 15.3732 0.375 14.5938 0.375ZM14.3968 1.3125C14.1095 1.59828 9.16509 6.51666 8.99438 6.68647C8.72875 6.95209 8.37562 7.09834 8 7.09834C7.62437 7.09834 7.27125 6.95206 7.00475 6.68559C6.88994 6.57137 2.00009 1.70731 1.60319 1.3125H14.3968ZM0.9375 10.0279V1.97266L4.98869 6.0025L0.9375 10.0279ZM1.60378 10.6875L5.65338 6.66366L6.34272 7.34937C6.78541 7.79206 7.37397 8.03584 8 8.03584C8.62603 8.03584 9.21459 7.79206 9.65641 7.35025L10.3466 6.66366L14.3962 10.6875H1.60378ZM15.0625 10.0279L11.0113 6.0025L15.0625 1.97266V10.0279Z" fill="currentColor"/>
    </symbol>

    <symbol viewBox="0 0 16 16" id="clock" xmlns="http://www.w3.org/2000/svg">
        <path fill-rule="evenodd" clip-rule="evenodd" d="M0 8C0 3.58853 3.58853 0 8 0C12.4115 0 16 3.58853 16 8C16 12.4115 12.4115 16 8 16C3.58853 16 0 12.4115 0 8ZM1.23934 8C1.23934 11.7273 4.27266 14.7607 8 14.7607C11.7273 14.7607 14.7607 11.7273 14.7607 8C14.7607 4.27266 11.728 1.23934 8 1.23934C4.27266 1.23934 1.23934 4.27266 1.23934 8ZM8.62023 7.73881L10.8511 9.41194C11.125 9.61706 11.1808 10.0056 10.975 10.2789C10.8535 10.4425 10.6676 10.5274 10.4786 10.5274C10.3491 10.5274 10.219 10.4871 10.1074 10.4035L7.62873 8.54444C7.47258 8.42794 7.38086 8.24388 7.38086 8.04869V4.33063C7.38086 3.98794 7.65786 3.71094 8.00055 3.71094C8.34323 3.71094 8.62023 3.98794 8.62023 4.33063V7.73881Z" fill="currentColor"/>
    </symbol>

    <symbol viewBox="0 0 15 9" id="dropdown-arrow" xmlns="http://www.w3.org/2000/svg">
        <path d="M6.75742 8.46754L0.307863 2.01777C-0.102619 1.60749 -0.102619 0.942281 0.307863 0.532197C0.717979 0.122079 1.38315 0.122079 1.79323 0.532197L7.50011 6.23925L13.2068 0.532363C13.6171 0.122246 14.2822 0.122246 14.6923 0.532363C15.1026 0.942481 15.1026 1.60765 14.6923 2.01794L8.24263 8.46771C8.03747 8.67277 7.76887 8.77518 7.50014 8.77518C7.23128 8.77518 6.96248 8.67257 6.75742 8.46754Z" fill="currentColor"/>
    </symbol>

    <symbol viewBox="0 0 22 22" id="catalog" xmlns="http://www.w3.org/2000/svg">
        <path d="M19.4219 11.8594H14.4375C13.0159 11.8594 11.8594 13.0159 11.8594 14.4375V19.4219C11.8594 20.8435 13.0159 22 14.4375 22H19.4219C20.8435 22 22 20.8435 22 19.4219V14.4375C22 13.0159 20.8435 11.8594 19.4219 11.8594ZM20.2812 19.4219C20.2812 19.8957 19.8957 20.2812 19.4219 20.2812H14.4375C13.9636 20.2812 13.5781 19.8957 13.5781 19.4219V14.4375C13.5781 13.9636 13.9636 13.5781 14.4375 13.5781H19.4219C19.8957 13.5781 20.2812 13.9636 20.2812 14.4375V19.4219ZM7.5625 11.8594H2.57812C1.15655 11.8594 0 13.0159 0 14.4375V19.4219C0 20.8435 1.15655 22 2.57812 22H7.5625C8.98408 22 10.1406 20.8435 10.1406 19.4219V14.4375C10.1406 13.0159 8.98408 11.8594 7.5625 11.8594ZM8.42188 19.4219C8.42188 19.8957 8.03636 20.2812 7.5625 20.2812H2.57812C2.10427 20.2812 1.71875 19.8957 1.71875 19.4219V14.4375C1.71875 13.9636 2.10427 13.5781 2.57812 13.5781H7.5625C8.03636 13.5781 8.42188 13.9636 8.42188 14.4375V19.4219ZM7.5625 0H2.57812C1.15655 0 0 1.15655 0 2.57812V7.5625C0 8.98408 1.15655 10.1406 2.57812 10.1406H7.5625C8.98408 10.1406 10.1406 8.98408 10.1406 7.5625V2.57812C10.1406 1.15655 8.98408 0 7.5625 0ZM8.42188 7.5625C8.42188 8.03636 8.03636 8.42188 7.5625 8.42188H2.57812C2.10427 8.42188 1.71875 8.03636 1.71875 7.5625V2.57812C1.71875 2.10427 2.10427 1.71875 2.57812 1.71875H7.5625C8.03636 1.71875 8.42188 2.10427 8.42188 2.57812V7.5625ZM19.4219 0H14.4375C13.0159 0 11.8594 1.15655 11.8594 2.57812V7.5625C11.8594 8.98408 13.0159 10.1406 14.4375 10.1406H19.4219C20.8435 10.1406 22 8.98408 22 7.5625V2.57812C22 1.15655 20.8435 0 19.4219 0ZM20.2812 7.5625C20.2812 8.03636 19.8957 8.42188 19.4219 8.42188H14.4375C13.9636 8.42188 13.5781 8.03636 13.5781 7.5625V2.57812C13.5781 2.10427 13.9636 1.71875 14.4375 1.71875H19.4219C19.8957 1.71875 20.2812 2.10427 20.2812 2.57812V7.5625Z" fill="currentColor"/>
    </symbol>

    <symbol viewBox="0 0 24 24" id="search" xmlns="http://www.w3.org/2000/svg">
        <path fill-rule="evenodd" clip-rule="evenodd" d="M0 10.5691C0 4.74145 4.74146 0 10.5691 0C16.3971 0 21.1382 4.74145 21.1382 10.5691C21.1382 13.1326 20.2209 15.4858 18.6973 17.3177L23.7142 22.3346C24.0953 22.7154 24.0953 23.3333 23.7142 23.7142C23.5236 23.9047 23.2738 24 23.0244 24C22.7746 24 22.5252 23.9047 22.3346 23.7142L17.3177 18.6973C15.4858 20.2209 13.1326 21.1382 10.5691 21.1382C4.74146 21.1382 0 16.3971 0 10.5691ZM1.95122 10.5691C1.95122 15.321 5.81723 19.187 10.5691 19.187C15.321 19.187 19.187 15.321 19.187 10.5691C19.187 5.81723 15.321 1.95122 10.5691 1.95122C5.81723 1.95122 1.95122 5.81728 1.95122 10.5691Z" fill="currentColor"/>
    </symbol>

    <symbol viewBox="0 0 22 21" id="heart" xmlns="http://www.w3.org/2000/svg">
        <path d="M10.4789 19.3772L10.4786 19.377C9.58787 18.5981 8.72938 17.8664 7.97405 17.2227C7.97344 17.2222 7.97283 17.2217 7.97221 17.2212L7.97215 17.2211L7.97216 17.2211L7.96836 17.2178C5.74066 15.3194 3.86497 13.7187 2.56697 12.1526C1.1333 10.4226 0.5 8.82858 0.5 7.11165C0.5 5.41742 1.08044 3.87427 2.11287 2.75439C3.15585 1.62317 4.58463 1 6.14586 1C7.30278 1 8.35865 1.36333 9.29656 2.08871C9.77252 2.45688 10.2081 2.91064 10.5948 3.44547L10.9999 4.00563L11.4051 3.44555C11.7921 2.91061 12.2275 2.45687 12.7035 2.08875L12.7035 2.08873C13.6415 1.36334 14.6973 1 15.8543 1C17.4153 1 18.8443 1.62318 19.8873 2.75439C20.9196 3.87425 21.5 5.41739 21.5 7.11165C21.5 8.82861 20.8668 10.4227 19.4332 12.1524L19.4331 12.1525C18.1351 13.7188 16.2596 15.3192 14.0323 17.2175C13.2751 17.8625 12.4146 18.596 11.5211 19.3773L11.521 19.3774C11.3771 19.5033 11.1921 19.5729 11 19.5729C10.8078 19.5729 10.623 19.5034 10.4789 19.3772Z" stroke="currentColor" stroke-width="1.5" />
    </symbol>

    <symbol viewBox="0 0 21 24" id="user" xmlns="http://www.w3.org/2000/svg">
        <path fill-rule="evenodd" clip-rule="evenodd" d="M6 7.99988L8 9.99988L9 10.4999L10.5 10.9999L12.5 10.4999L13.5 9.99988L15 8.99988L15.5 7.99988C13.8333 6.83322 9.6 5.19988 6 7.99988ZM6 12.5L3.5 13.5L2.5 15.5C5.83333 17.3333 13.9 19.8 19.5 15L18.5 13.5L17 12.5H15.5L13.5 13.5L11.5 14L8.5 13.5L7 12.5H6Z" fill="#C14073"/>
        <path fill-rule="evenodd" clip-rule="evenodd" d="M14.9163 9.86735C13.7924 10.9913 12.4172 11.5609 10.829 11.5609C9.24109 11.5609 7.86597 10.9911 6.74188 9.86753C5.61816 8.74382 5.04834 7.3687 5.04834 5.78026C5.04834 4.19219 5.61816 2.81707 6.74188 1.69336C7.8656 0.56964 9.24054 0 10.829 0C12.4171 0 13.7922 0.56964 14.9161 1.69317C16.04 2.81726 16.6096 4.19237 16.6096 5.78026C16.6096 7.3687 16.0398 8.74364 14.9163 9.86735ZM10.829 1.40643C9.61023 1.40643 8.59875 1.82556 7.73651 2.6878C6.87408 3.55023 6.45477 4.56188 6.45477 5.78026C6.45477 6.99901 6.87408 8.01067 7.73651 8.87291C8.59912 9.73515 9.6106 10.1545 10.829 10.1545C12.0475 10.1545 13.0592 9.73533 13.9216 8.87291C14.7839 8.01048 15.2032 6.99901 15.2032 5.78026C15.2032 4.56188 14.7839 3.55023 13.9216 2.6878C13.0592 1.82556 12.0475 1.40643 10.829 1.40643ZM20.7491 16.9384C20.8456 17.4771 20.9111 17.9872 20.9435 18.4549C20.9756 18.9119 20.9919 19.3889 20.9921 19.8725C20.9921 21.1257 20.5938 22.1402 19.8083 22.8877C19.0325 23.6258 18.0063 24 16.7585 24H5.20233C3.9541 24 2.92798 23.6258 2.15234 22.8877C1.367 22.1397 0.96875 21.1255 0.96875 19.8727C0.96875 19.3907 0.984863 18.9137 1.01672 18.4554C1.04913 17.9867 1.1145 17.4764 1.21118 16.9384C1.30859 16.3957 1.43402 15.8828 1.58398 15.4139C1.73926 14.9288 1.9502 14.4504 2.21075 13.9917C2.48102 13.5158 2.79889 13.1014 3.15558 12.7601C3.52893 12.4029 3.98578 12.116 4.51349 11.907C5.03955 11.6987 5.62256 11.593 6.24658 11.593C6.49158 11.593 6.72852 11.6935 7.18573 11.9915C7.47156 12.1777 7.80115 12.3901 8.16534 12.6228C8.47919 12.8231 8.90527 13.0108 9.43079 13.1805C9.9444 13.3466 10.4655 13.4308 10.9797 13.4308C11.4942 13.4308 12.0153 13.3466 12.5286 13.1805C13.0546 13.0106 13.4805 12.8229 13.7949 12.6226C14.1626 12.3877 14.492 12.1753 14.7736 11.9916C15.2312 11.6937 15.4681 11.5932 15.7131 11.5932C16.337 11.5932 16.9202 11.6987 17.4464 11.9069C17.9745 12.1161 18.4312 12.4031 18.8041 12.7599C19.1608 13.1011 19.4787 13.5156 19.7491 13.9917C20.0101 14.4504 20.2208 14.929 20.3761 15.4137C20.5262 15.8826 20.6517 16.3957 20.7491 16.9384ZM16.7583 22.5936C17.6456 22.5936 18.326 22.3565 18.8386 21.8687C19.3412 21.3904 19.5854 20.7375 19.5856 19.8727C19.5854 19.4217 19.5704 18.9778 19.5406 18.5532V18.5528C19.5117 18.1354 19.4523 17.6758 19.3648 17.1867C19.2784 16.7049 19.168 16.2527 19.0367 15.8425C18.9111 15.4501 18.7393 15.061 18.5264 14.6866C18.3233 14.3292 18.0897 14.0228 17.8318 13.7762C17.5907 13.5455 17.2867 13.3563 16.9288 13.2146C16.5974 13.0835 16.2251 13.0117 15.8208 13.0009C15.7715 13.0271 15.6838 13.0773 15.5417 13.1697C15.2526 13.3583 14.9287 13.5671 14.5517 13.808C14.1359 14.0732 13.601 14.3121 12.9612 14.5189C12.3081 14.73 11.6414 14.8373 10.9799 14.8373C10.3183 14.8373 9.65179 14.73 8.99829 14.5187C8.35907 14.3123 7.82404 14.0732 7.40875 13.8084C7.04034 13.5731 6.70709 13.3582 6.41797 13.1697C6.27588 13.0771 6.18817 13.0271 6.13892 13.0009C5.7348 13.0117 5.36255 13.0835 5.03131 13.2146C4.67316 13.3563 4.3692 13.5453 4.12805 13.7762C3.87024 14.023 3.6366 14.3293 3.43353 14.6864C3.22076 15.061 3.04919 15.4499 2.9234 15.8427C2.7923 16.2523 2.68207 16.7048 2.59546 17.1869C2.50775 17.675 2.44861 18.1344 2.41968 18.5527C2.39001 18.9789 2.37518 19.423 2.37518 19.8727C2.37518 20.7373 2.61945 21.3904 3.12207 21.8689C3.6344 22.3565 4.31482 22.5936 5.20233 22.5936H16.7583Z" fill="currentColor"/>
    </symbol>

    <symbol viewBox="0 0 18 24" id="cart" xmlns="http://www.w3.org/2000/svg">
        <path fill-rule="evenodd" clip-rule="evenodd" d="M12 5.80469V5.25C12 4.45435 11.6839 3.69129 11.1213 3.12868C10.5587 2.56607 9.79565 2.25 9 2.25C8.20435 2.25 7.44129 2.56607 6.87868 3.12868C6.31607 3.69129 6 4.45435 6 5.25V5.80469H12ZM4.5 5.80469V5.25C4.5 4.05653 4.97411 2.91193 5.81802 2.06802C6.66193 1.22411 7.80652 0.75 9 0.75C10.1935 0.75 11.3381 1.22411 12.182 2.06802C13.0259 2.91193 13.5 4.05653 13.5 5.25V5.80469H15.0675C15.6477 5.80414 16.2057 6.02777 16.6249 6.42886C17.0442 6.82996 17.2923 7.37751 17.3175 7.95719L17.925 20.8872C17.9402 21.192 17.8933 21.4967 17.7871 21.7828C17.6809 22.0689 17.5176 22.3304 17.3071 22.5514C17.0966 22.7724 16.8434 22.9483 16.5628 23.0683C16.2822 23.1884 15.9801 23.2501 15.675 23.2497H2.32496C2.01977 23.2501 1.7177 23.1884 1.43712 23.0683C1.15654 22.9483 0.903305 22.7724 0.692833 22.5514C0.482362 22.3304 0.319048 22.0689 0.212827 21.7828C0.106606 21.4967 0.0596986 21.192 0.074958 20.8872L0.682458 7.95719C0.707601 7.37751 0.955708 6.82996 1.37497 6.42886C1.79423 6.02777 2.35224 5.80414 2.93246 5.80469H4.5ZM2.93246 7.31219C2.73355 7.31219 2.54278 7.39121 2.40213 7.53186C2.26148 7.67251 2.18246 7.86328 2.18246 8.06219L1.57496 20.9622C1.56987 21.0638 1.58551 21.1654 1.62091 21.2607C1.65632 21.3561 1.71076 21.4433 1.78092 21.5169C1.85107 21.5906 1.93548 21.6492 2.02901 21.6892C2.12254 21.7292 2.22323 21.7498 2.32496 21.7497H15.675C15.7767 21.7498 15.8774 21.7292 15.9709 21.6892C16.0644 21.6492 16.1488 21.5906 16.219 21.5169C16.2892 21.4433 16.3436 21.3561 16.379 21.2607C16.4144 21.1654 16.43 21.0638 16.425 20.9622L15.8175 8.03219C15.8175 7.83328 15.7384 7.64251 15.5978 7.50186C15.4571 7.36121 15.2664 7.28219 15.0675 7.28219L2.93246 7.31219ZM9.00009 13.3653C7.95931 13.3665 6.95027 13.007 6.14481 12.3478C5.33936 11.6887 4.78728 10.7707 4.58259 9.75027C4.56627 9.64278 4.57352 9.53303 4.60384 9.42862C4.63415 9.32421 4.6868 9.22763 4.75814 9.14559C4.82948 9.06355 4.91781 8.998 5.017 8.95348C5.11619 8.90896 5.22387 8.88654 5.33259 8.88777C5.51126 8.88518 5.68499 8.94646 5.82249 9.06058C5.96 9.17471 6.05223 9.33418 6.08259 9.51027C6.22384 10.1845 6.59279 10.7895 7.12748 11.2238C7.66217 11.6581 8.33001 11.8951 9.01884 11.8951C9.70767 11.8951 10.3755 11.6581 10.9102 11.2238C11.4449 10.7895 11.8138 10.1845 11.9551 9.51027C11.9854 9.33418 12.0777 9.17471 12.2152 9.06058C12.3527 8.94646 12.5264 8.88518 12.7051 8.88777C12.8138 8.88654 12.9215 8.90896 13.0207 8.95348C13.1199 8.998 13.2082 9.06355 13.2795 9.14559C13.3509 9.22763 13.4035 9.32421 13.4338 9.42862C13.4642 9.53303 13.4714 9.64278 13.4551 9.75027C13.2492 10.7771 12.6916 11.6999 11.8784 12.3598C11.0652 13.0197 10.0473 13.3752 9.00009 13.3653Z" fill="currentColor"/>
    </symbol>

    <symbol viewBox="0 0 11 17" id="arrow-left" xmlns="http://www.w3.org/2000/svg">
        <path d="M1.00371 9.34159L8.31345 16.6511C8.77844 17.1163 9.53234 17.1163 9.9971 16.6511C10.4619 16.1863 10.4619 15.4324 9.9971 14.9677L3.52911 8.49988L9.99692 2.03231C10.4617 1.56732 10.4617 0.813539 9.99692 0.34874C9.53212 -0.116247 8.77825 -0.116247 8.31327 0.34874L1.00352 7.65836C0.771123 7.89087 0.655054 8.19528 0.655054 8.49984C0.655054 8.80455 0.771349 9.10919 1.00371 9.34159Z" fill="currentColor"/>
    </symbol>

    <symbol viewBox="0 0 11 17" id="arrow-right" xmlns="http://www.w3.org/2000/svg">
        <path d="M9.99629 9.34159L2.68655 16.6511C2.22156 17.1163 1.46766 17.1163 1.0029 16.6511C0.538097 16.1863 0.538097 15.4324 1.0029 14.9677L7.47089 8.49988L1.00308 2.03231C0.538285 1.56732 0.538285 0.813539 1.00308 0.34874C1.46788 -0.116247 2.22175 -0.116247 2.68673 0.34874L9.99648 7.65836C10.2289 7.89087 10.3449 8.19528 10.3449 8.49984C10.3449 8.80455 10.2287 9.10919 9.99629 9.34159Z" fill="currentColor"/>
    </symbol>

    <symbol viewBox="0 0 28 16" id="long-arrow-right" xmlns="http://www.w3.org/2000/svg">
        <path fill-rule="evenodd" clip-rule="evenodd" d="M21.3431 0.928881L27.7071 7.29284C28.0976 7.68337 28.0976 8.31653 27.7071 8.70706L21.3431 15.071C20.9526 15.4615 20.3195 15.4615 19.9289 15.071C19.5384 14.6805 19.5384 14.0473 19.9289 13.6568L24.5858 8.99995L-7.31201e-07 8.99995L-5.56355e-07 6.99995L24.5858 6.99995L19.9289 2.3431C19.5384 1.95257 19.5384 1.31941 19.9289 0.928881C20.3195 0.538357 20.9526 0.538357 21.3431 0.928881Z" fill="currentColor"/>
    </symbol>

    <symbol viewBox="0 0 24 24" id="nn" xmlns="http://www.w3.org/2000/svg">
        <path fill-rule="evenodd" clip-rule="evenodd" d="M1 1H23V23H1V1ZM0 0H1H23H24V1V23V24H23H1H0V23V1V0ZM4.37288 16.8507H3.69492V8.79104C3.69492 8.31343 3.57627 7.94527 3.33898 7.68657C3.11299 7.42786 2.72316 7.29851 2.16949 7.29851H2V7H3.10169C3.62147 7 4.06215 7.07463 4.42373 7.22388C4.78531 7.37313 5.10735 7.59701 5.38983 7.89552L11.322 14.3881V7H12H13.1017C13.6215 7 14.0621 7.07463 14.4237 7.22388C14.7853 7.37313 15.1073 7.59701 15.3898 7.89552L21.322 14.3881V7H22V17H21.661L14.3729 9.01493V16.8507H13.6949V8.79104C13.6949 8.31343 13.5763 7.94527 13.339 7.68657C13.113 7.42786 12.7232 7.29851 12.1695 7.29851H12L12 17H11.661L4.37288 9.01493V16.8507Z" fill="currentColor"/>
    </symbol>

    <symbol viewBox="0 0 12 12" id="close" xmlns="http://www.w3.org/2000/svg">
        <path fill-rule="evenodd" clip-rule="evenodd" d="M5.05545 5.96333L0.453971 1.36185C0.33357 1.24145 0.26593 1.07815 0.26593 0.90788C0.26593 0.737608 0.33357 0.57431 0.453971 0.45391C0.574371 0.333509 0.737669 0.265869 0.907941 0.265869C1.07821 0.265869 1.24151 0.333509 1.36191 0.45391L5.96339 5.05539L10.5649 0.45391C10.6853 0.333509 10.8486 0.265869 11.0188 0.265869C11.1891 0.265869 11.3524 0.333509 11.4728 0.45391C11.5932 0.57431 11.6609 0.737608 11.6609 0.90788C11.6609 1.07815 11.5932 1.24145 11.4728 1.36185L6.87133 5.96333L11.3493 10.4413C11.4697 10.5617 11.5373 10.725 11.5373 10.8952C11.5373 11.0655 11.4697 11.2288 11.3493 11.3492C11.2289 11.4696 11.0656 11.5372 10.8953 11.5372C10.725 11.5372 10.5617 11.4696 10.4413 11.3492L5.96339 6.87127L1.48547 11.3492C1.36507 11.4696 1.20177 11.5372 1.0315 11.5372C0.861228 11.5372 0.697931 11.4696 0.577531 11.3492C0.45713 11.2288 0.38949 11.0655 0.38949 10.8952C0.38949 10.725 0.45713 10.5617 0.57753 10.4413L5.05545 5.96333Z" fill="currentColor"/>        
    </symbol>

    <symbol viewBox="0 0 11 10" id="telegram" xmlns="http://www.w3.org/2000/svg">
        <path d="M10.7001 0.616171L9.12225 8.85345C9.12225 8.85345 8.90148 9.42456 8.29502 9.15066L4.6545 6.26011L4.63762 6.25159C5.12937 5.79434 8.94261 2.2439 9.10927 2.08297C9.36726 1.83372 9.2071 1.68534 8.90754 1.87362L3.27491 5.57781L1.10186 4.82066C1.10186 4.82066 0.759883 4.69469 0.726984 4.42078C0.693652 4.14643 1.11311 3.99805 1.11311 3.99805L9.97199 0.399201C9.97199 0.399201 10.7001 0.0679163 10.7001 0.616171V0.616171Z" fill="currentColor" />
    </symbol>

    <symbol viewBox="0 0 12 13" id="viber" xmlns="http://www.w3.org/2000/svg">
        <path d="M8.78331 1.0116C6.78226 0.629464 4.70425 0.629464 2.70321 1.0116C1.81813 1.20267 0.70216 2.27266 0.509751 3.11337C0.163416 4.75657 0.163416 6.43798 0.509751 8.08118C0.740641 8.92189 1.85661 9.99188 2.70321 10.183C2.74169 10.183 2.78017 10.2212 2.78017 10.2594V12.6669C2.78017 12.7815 2.9341 12.8579 3.01106 12.7433L4.16551 11.5587C4.16551 11.5587 5.08907 10.6033 5.243 10.4504C5.243 10.4504 5.28148 10.4122 5.31996 10.4122C6.47441 10.4505 7.66734 10.3358 8.82179 10.1447C9.70687 9.95367 10.8228 8.88368 11.0152 8.04297C11.3616 6.39977 11.3616 4.71836 11.0152 3.07516C10.7844 2.27266 9.66839 1.20267 8.78331 1.0116ZM8.82179 8.19583C8.62938 8.57797 8.3985 8.88368 8.01368 9.07475C7.89823 9.11296 7.78279 9.15118 7.66734 9.18939C7.51342 9.15118 7.39797 9.11296 7.28253 9.07475C6.05111 8.57797 4.89666 7.89012 3.9731 6.89655C3.47284 6.32334 3.04954 5.67371 2.70321 4.98585C2.54928 4.64193 2.39535 4.33622 2.27991 3.99229C2.16446 3.68658 2.35687 3.38087 2.54928 3.15158C2.74169 2.9223 2.97258 2.76944 3.24195 2.6548C3.43436 2.54016 3.62677 2.61659 3.78069 2.76945C4.08855 3.15158 4.3964 3.53372 4.62729 3.95408C4.78122 4.22158 4.74273 4.52729 4.47336 4.71836C4.3964 4.75657 4.35792 4.79478 4.28095 4.87121C4.24247 4.90943 4.16551 4.94764 4.12703 5.02407C4.05006 5.13871 4.05006 5.25335 4.08855 5.36799C4.3964 6.24692 4.97362 6.93477 5.8587 7.31691C6.01263 7.39333 6.12808 7.43155 6.32048 7.43155C6.58986 7.39333 6.7053 7.08762 6.89771 6.93477C7.09012 6.78191 7.32101 6.78191 7.5519 6.89655C7.74431 7.01119 7.93671 7.16405 8.1676 7.31691C8.36001 7.46976 8.55242 7.5844 8.74483 7.73726C8.86027 7.81369 8.89876 8.00476 8.82179 8.19583ZM7.20556 5.32978C7.1286 5.32978 7.16708 5.32978 7.20556 5.32978C7.05163 5.32978 7.01315 5.25335 6.97467 5.13871C6.97467 5.06228 6.97467 4.94764 6.93619 4.87121C6.89771 4.71836 6.82075 4.5655 6.66682 4.45086C6.58986 4.41265 6.51289 4.37443 6.43593 4.33622C6.32048 4.298 6.24352 4.298 6.12808 4.298C6.01263 4.25979 5.97415 4.18336 5.97415 4.06872C5.97415 3.99229 6.08959 3.91586 6.16656 3.91586C6.78226 3.95408 7.24404 4.298 7.32101 5.02407C7.32101 5.06228 7.32101 5.13871 7.32101 5.17692C7.32101 5.25335 7.28252 5.32978 7.20556 5.32978ZM6.82074 3.64837C6.62834 3.57194 6.43593 3.49551 6.20504 3.4573C6.12807 3.4573 6.01263 3.41908 5.93567 3.41908C5.82022 3.41908 5.74326 3.34265 5.78174 3.22801C5.78174 3.11337 5.8587 3.03694 5.97415 3.07516C6.35897 3.11337 6.7053 3.1898 7.05164 3.34265C7.74431 3.68658 8.12912 4.25979 8.24457 5.02407C8.24457 5.06228 8.24457 5.1005 8.24457 5.13871C8.24457 5.21514 8.24457 5.29157 8.24457 5.40621C8.24457 5.44442 8.24457 5.48264 8.24457 5.52085C8.20609 5.67371 7.93671 5.71192 7.89823 5.52085C7.89823 5.48264 7.85975 5.40621 7.85975 5.36799C7.85975 5.02407 7.78279 4.68014 7.62886 4.37443C7.39797 4.03051 7.1286 3.80122 6.82074 3.64837ZM8.89876 5.9412C8.78331 5.9412 8.70635 5.82656 8.70635 5.71192C8.70635 5.48264 8.66787 5.25335 8.62938 5.02407C8.47546 3.80122 7.47494 2.80766 6.282 2.61659C6.08959 2.57837 5.89719 2.57838 5.74326 2.54016C5.62781 2.54016 5.47389 2.54016 5.4354 2.38731C5.39692 2.27266 5.51237 2.15802 5.62781 2.15802C5.66629 2.15802 5.70478 2.15802 5.70478 2.15802C7.28253 2.19624 5.78174 2.15802 5.70478 2.15802C7.32101 2.19624 8.66786 3.26623 8.93724 4.87121C8.97572 5.13871 9.0142 5.40621 9.0142 5.71192C9.09116 5.82656 9.0142 5.9412 8.89876 5.9412Z" fill="currentColor"/>
    </symbol>

    <symbol viewBox="0 0 20 20" id="instagram" xmlns="http://www.w3.org/2000/svg">
        <path d="M10 1.80723C12.6506 1.80723 13.0121 1.80723 14.0964 1.80723C15.0602 1.80723 15.5422 2.04819 15.9036 2.16868C16.3855 2.40964 16.747 2.53012 17.1084 2.89157C17.4699 3.25301 17.7108 3.61446 17.8313 4.09639C17.9518 4.45783 18.0723 4.93976 18.1928 5.90362C18.1928 6.98795 18.1928 7.22892 18.1928 10C18.1928 12.7711 18.1928 13.0121 18.1928 14.0964C18.1928 15.0602 17.9518 15.5422 17.8313 15.9036C17.5904 16.3855 17.4699 16.747 17.1084 17.1084C16.747 17.4699 16.3855 17.7108 15.9036 17.8313C15.5422 17.9518 15.0602 18.0723 14.0964 18.1928C13.0121 18.1928 12.7711 18.1928 10 18.1928C7.22892 18.1928 6.98795 18.1928 5.90362 18.1928C4.93976 18.1928 4.45783 17.9518 4.09639 17.8313C3.61446 17.5904 3.25301 17.4699 2.89157 17.1084C2.53012 16.747 2.28916 16.3855 2.16868 15.9036C2.04819 15.5422 1.92771 15.0602 1.80723 14.0964C1.80723 13.0121 1.80723 12.7711 1.80723 10C1.80723 7.22892 1.80723 6.98795 1.80723 5.90362C1.80723 4.93976 2.04819 4.45783 2.16868 4.09639C2.40964 3.61446 2.53012 3.25301 2.89157 2.89157C3.25301 2.53012 3.61446 2.28916 4.09639 2.16868C4.45783 2.04819 4.93976 1.92771 5.90362 1.80723C6.98795 1.80723 7.3494 1.80723 10 1.80723ZM10 0C7.22892 0 6.98795 0 5.90362 0C4.81928 0 4.09639 0.240965 3.49398 0.481928C2.89157 0.722892 2.28916 1.08434 1.68675 1.68675C1.08434 2.28916 0.843374 2.77109 0.481928 3.49398C0.240965 4.09639 0.120482 4.81928 0 5.90362C0 6.98795 0 7.3494 0 10C0 12.7711 0 13.0121 0 14.0964C0 15.1807 0.240965 15.9036 0.481928 16.506C0.722892 17.1084 1.08434 17.7108 1.68675 18.3133C2.28916 18.9157 2.77109 19.1566 3.49398 19.5181C4.09639 19.759 4.81928 19.8795 5.90362 20C6.98795 20 7.3494 20 10 20C12.6506 20 13.0121 20 14.0964 20C15.1807 20 15.9036 19.759 16.506 19.5181C17.1084 19.2771 17.7108 18.9157 18.3133 18.3133C18.9157 17.7108 19.1566 17.2289 19.5181 16.506C19.759 15.9036 19.8795 15.1807 20 14.0964C20 13.0121 20 12.6506 20 10C20 7.3494 20 6.98795 20 5.90362C20 4.81928 19.759 4.09639 19.5181 3.49398C19.2771 2.89157 18.9157 2.28916 18.3133 1.68675C17.7108 1.08434 17.2289 0.843374 16.506 0.481928C15.9036 0.240965 15.1807 0.120482 14.0964 0C13.0121 0 12.7711 0 10 0Z" fill="currentColor"/>
        <path d="M10 4.81928C7.10843 4.81928 4.81928 7.10843 4.81928 10C4.81928 12.8916 7.10843 15.1807 10 15.1807C12.8916 15.1807 15.1807 12.8916 15.1807 10C15.1807 7.10843 12.8916 4.81928 10 4.81928ZM10 13.3735C8.19277 13.3735 6.62651 11.9277 6.62651 10C6.62651 8.19277 8.07229 6.62651 10 6.62651C11.8072 6.62651 13.3735 8.07229 13.3735 10C13.3735 11.8072 11.8072 13.3735 10 13.3735Z" fill="currentColor"/>
        <path d="M15.3012 5.90362C15.9666 5.90362 16.506 5.3642 16.506 4.6988C16.506 4.03339 15.9666 3.49398 15.3012 3.49398C14.6358 3.49398 14.0964 4.03339 14.0964 4.6988C14.0964 5.3642 14.6358 5.90362 15.3012 5.90362Z" fill="currentColor"/>
    </symbol>

    <symbol viewBox="0 0 12 23" id="facebook" xmlns="http://www.w3.org/2000/svg">
        <path d="M7.65708 12.3648H11.3793L11.9637 8.56055H7.65632V6.48134C7.65632 4.90099 8.16957 3.49962 9.63891 3.49962H12V0.179741C11.5852 0.123382 10.7078 0 9.04996 0C5.58819 0 3.55867 1.8393 3.55867 6.0297V8.56055H0V12.3648H3.55867V22.821C4.26344 22.9276 4.97729 23 5.71007 23C6.37245 23 7.01893 22.9391 7.65708 22.8522V12.3648Z" fill="currentColor"/>
    </symbol>

    <symbol viewBox="0 0 22 20" id="filter" xmlns="http://www.w3.org/2000/svg">
        <path d="M4.06887 7.41406V0.8125C4.06887 0.597012 3.98327 0.390349 3.8309 0.237976C3.67852 0.0856026 3.47186 0 3.25637 0C3.04088 0 2.83422 0.0856026 2.68185 0.237976C2.52948 0.390349 2.44387 0.597012 2.44387 0.8125V7.41406C1.74479 7.59306 1.12515 7.99963 0.682665 8.56969C0.240177 9.13975 0 9.84086 0 10.5625C0 11.2841 0.240177 11.9853 0.682665 12.5553C1.12515 13.1254 1.74479 13.5319 2.44387 13.7109V18.6875C2.44387 18.903 2.52948 19.1097 2.68185 19.262C2.83422 19.4144 3.04088 19.5 3.25637 19.5C3.47186 19.5 3.67852 19.4144 3.8309 19.262C3.98327 19.1097 4.06887 18.903 4.06887 18.6875V13.7109C4.76796 13.5319 5.38759 13.1254 5.83008 12.5553C6.27257 11.9853 6.51274 11.2841 6.51274 10.5625C6.51274 9.84086 6.27257 9.13975 5.83008 8.56969C5.38759 7.99963 4.76796 7.59306 4.06887 7.41406ZM3.25637 12.1875C2.93498 12.1875 2.6208 12.0922 2.35357 11.9136C2.08634 11.7351 1.87806 11.4813 1.75507 11.1844C1.63208 10.8874 1.5999 10.5607 1.6626 10.2455C1.7253 9.93026 1.88006 9.64071 2.10732 9.41345C2.33458 9.18619 2.62413 9.03142 2.93935 8.96872C3.25457 8.90602 3.5813 8.9382 3.87823 9.0612C4.17516 9.18419 4.42895 9.39247 4.60751 9.6597C4.78607 9.92693 4.88137 10.2411 4.88137 10.5625C4.88137 10.9935 4.71017 11.4068 4.40542 11.7115C4.10067 12.0163 3.68735 12.1875 3.25637 12.1875ZM11.3814 2.53906V0.8125C11.3814 0.597012 11.2958 0.390349 11.1434 0.237976C10.991 0.0856026 10.7844 0 10.5689 0C10.3534 0 10.1467 0.0856026 9.99435 0.237976C9.84198 0.390349 9.75637 0.597012 9.75637 0.8125V2.53906C9.05729 2.71806 8.43765 3.12463 7.99517 3.69469C7.55268 4.26475 7.3125 4.96586 7.3125 5.6875C7.3125 6.40914 7.55268 7.11025 7.99517 7.68031C8.43765 8.25037 9.05729 8.65694 9.75637 8.83594V18.6875C9.75637 18.903 9.84198 19.1097 9.99435 19.262C10.1467 19.4144 10.3534 19.5 10.5689 19.5C10.7844 19.5 10.991 19.4144 11.1434 19.262C11.2958 19.1097 11.3814 18.903 11.3814 18.6875V8.83594C12.0805 8.65694 12.7001 8.25037 13.1426 7.68031C13.5851 7.11025 13.8252 6.40914 13.8252 5.6875C13.8252 4.96586 13.5851 4.26475 13.1426 3.69469C12.7001 3.12463 12.0805 2.71806 11.3814 2.53906ZM10.5689 7.3125C10.2475 7.3125 9.9333 7.2172 9.66607 7.03864C9.39884 6.86008 9.19056 6.60629 9.06757 6.30936C8.94458 6.01243 8.91239 5.6857 8.9751 5.37048C9.0378 5.05526 9.19256 4.76571 9.41982 4.53845C9.64708 4.31119 9.93663 4.15642 10.2519 4.09372C10.5671 4.03102 10.8938 4.0632 11.1907 4.1862C11.4877 4.30919 11.7415 4.51747 11.92 4.7847C12.0986 5.05193 12.1939 5.36611 12.1939 5.6875C12.1939 6.11848 12.0227 6.5318 11.7179 6.83655C11.4132 7.14129 10.9998 7.3125 10.5689 7.3125ZM21.1314 13.8125C21.1307 13.092 20.891 12.392 20.45 11.8223C20.0089 11.2525 19.3913 10.8452 18.6939 10.6641V0.8125C18.6939 0.597012 18.6083 0.390349 18.4559 0.237976C18.3035 0.0856026 18.0969 0 17.8814 0C17.6659 0 17.4592 0.0856026 17.3068 0.237976C17.1545 0.390349 17.0689 0.597012 17.0689 0.8125V10.6641C16.3698 10.8431 15.7502 11.2496 15.3077 11.8197C14.8652 12.3897 14.625 13.0909 14.625 13.8125C14.625 14.5341 14.8652 15.2353 15.3077 15.8053C15.7502 16.3754 16.3698 16.7819 17.0689 16.9609V18.6875C17.0689 18.903 17.1545 19.1097 17.3068 19.262C17.4592 19.4144 17.6659 19.5 17.8814 19.5C18.0969 19.5 18.3035 19.4144 18.4559 19.262C18.6083 19.1097 18.6939 18.903 18.6939 18.6875V16.9609C19.3913 16.7798 20.0089 16.3725 20.45 15.8027C20.891 15.233 21.1307 14.533 21.1314 13.8125ZM17.8814 15.4375C17.56 15.4375 17.2458 15.3422 16.9786 15.1636C16.7113 14.9851 16.5031 14.7313 16.3801 14.4344C16.2571 14.1374 16.2249 13.8107 16.2876 13.4955C16.3503 13.1803 16.5051 12.8907 16.7323 12.6635C16.9596 12.4362 17.2491 12.2814 17.5644 12.2187C17.8796 12.156 18.2063 12.1882 18.5032 12.3112C18.8002 12.4342 19.054 12.6425 19.2325 12.9097C19.4111 13.1769 19.5064 13.4911 19.5064 13.8125C19.5064 14.2435 19.3352 14.6568 19.0304 14.9615C18.7257 15.2663 18.3123 15.4375 17.8814 15.4375Z" fill="currentColor"/>
    </symbol>

    <symbol viewBox="0 0 22 20" id="sort" xmlns="http://www.w3.org/2000/svg">
        <path d="M21.4205 1.03042C21.2955 0.741483 21.0882 0.495686 20.8246 0.323597C20.561 0.151509 20.2525 0.0607211 19.9377 0.0625264H2.06272C1.74821 0.0631461 1.44064 0.15502 1.17732 0.327002C0.914001 0.498984 0.706247 0.743684 0.579262 1.03142C0.452277 1.31915 0.411518 1.63755 0.461929 1.94799C0.512341 2.25843 0.651757 2.54757 0.863264 2.78034L0.871389 2.78948L7.75022 10.1345V17.9375C7.75015 18.2316 7.8299 18.5202 7.98096 18.7726C8.13203 19.0249 8.34874 19.2315 8.608 19.3704C8.86726 19.5092 9.15934 19.5751 9.45311 19.561C9.74687 19.5469 10.0313 19.4534 10.2761 19.2903L13.5261 17.123C13.7489 16.9746 13.9315 16.7735 14.0579 16.5374C14.1842 16.3014 14.2503 16.0379 14.2502 15.7702V10.1345L21.1301 2.78948L21.1382 2.78034C21.3519 2.54864 21.4927 2.25911 21.5429 1.9479C21.5931 1.63669 21.5506 1.31759 21.4205 1.03042ZM12.8466 9.26206C12.7061 9.41108 12.627 9.60769 12.6252 9.81253V15.7702L9.37522 17.9375V9.81253C9.37528 9.60621 9.29685 9.40759 9.15584 9.25698L2.06272 1.68753H19.9377L12.8466 9.26206Z" fill="currentColor"/>
    </symbol>

    <symbol viewBox="0 0 26 20" id="compare" xmlns="http://www.w3.org/2000/svg">
        <path fill-rule="evenodd" clip-rule="evenodd" d="M16.1416 12.2852L19.5693 3.14453H15.1449C14.8294 4.02924 13.9918 4.66797 13 4.66797C12.0083 4.66797 11.1707 4.02924 10.8552 3.14453H6.43075L9.85849 12.2852H8.23232L5.3321 4.55193L2.43183 12.2852H0.805664L4.2334 3.14453H3.80866C3.38764 3.14453 3.04695 2.80384 3.04695 2.38281C3.04695 1.96179 3.38764 1.62109 3.80866 1.62109H10.8552C11.1707 0.736383 12.0083 0.0976562 13.0001 0.0976562C13.9918 0.0976562 14.8294 0.736383 15.1449 1.62109H22.1915C22.6125 1.62109 22.9532 1.96179 22.9532 2.38281C22.9532 2.80384 22.6125 3.14453 22.1915 3.14453H21.7667L25.1944 12.2852H23.5683L20.668 4.55193L17.7678 12.2852H16.1416ZM9.90234 13.8086H0.761719C0.340691 13.8086 0 14.1493 0 14.5703C0 17.5101 2.39225 19.9023 5.33203 19.9023C8.27181 19.9023 10.6641 17.5101 10.6641 14.5703C10.6641 14.1493 10.3234 13.8086 9.90234 13.8086ZM25.2383 13.8086H16.0977C15.6766 13.8086 15.3359 14.1493 15.3359 14.5703C15.3359 17.5101 17.7282 19.9023 20.668 19.9023C23.6077 19.9023 26 17.5101 26 14.5703C26 14.1493 25.6593 13.8086 25.2383 13.8086Z" fill="currentColor" />
    </symbol>

    <symbol viewBox="0 0 8 17" id="arrow-down" xmlns="http://www.w3.org/2000/svg">
        <path fill-rule="evenodd" clip-rule="evenodd" d="M7.53568 13.1716L4.3537 16.3536C4.15844 16.5488 3.84186 16.5488 3.64659 16.3536L0.464614 13.1716C0.269352 12.9763 0.269352 12.6597 0.464614 12.4645C0.659876 12.2692 0.976459 12.2692 1.17172 12.4645L3.50015 14.7929L3.50015 -1.828e-07L4.50015 -1.39089e-07L4.50015 14.7929L6.82857 12.4645C7.02384 12.2692 7.34042 12.2692 7.53568 12.4645C7.73094 12.6597 7.73094 12.9763 7.53568 13.1716Z" fill="currentColor"/>
    </symbol>

    <symbol viewBox="0 0 19 15" id="check" xmlns="http://www.w3.org/2000/svg">
        <path d="M18.4435 3.83339L8.42019 13.856C7.67795 14.5984 6.47392 14.5984 5.73098 13.856L0.556889 8.68151C-0.18563 7.93914 -0.18563 6.73497 0.556889 5.99245C1.29955 5.24979 2.50348 5.24979 3.24581 5.99217L7.07598 9.82239L15.7541 1.14419C16.4968 0.401527 17.7008 0.402089 18.4432 1.14419C19.1856 1.8867 19.1856 3.09045 18.4435 3.83339Z" fill="currentColor"/>
    </symbol>

    <symbol viewBox="0 0 68 40" id="car" xmlns="http://www.w3.org/2000/svg">
        <path fill-rule="evenodd" clip-rule="evenodd" d="M8.34447 1.51118C8.40352 0.802598 8.99586 0.257568 9.70689 0.257568H46.7187C47.4738 0.257568 48.0859 0.86966 48.0859 1.62471V4.19494H57.8752C58.4211 4.19494 58.9148 4.51979 59.1308 5.02122L63.2977 14.6946H63.2988H63.3226H63.3464H63.3702H63.3941H63.418H63.4419H63.4659H63.4899H63.5139H63.5379H63.562H63.5861H63.6102H63.6344H63.6585H63.6828H63.707H63.7313H63.7556H63.7799C66.094 14.6946 67.772 16.4282 67.772 18.6867V33.1237C67.772 33.8788 67.1599 34.4909 66.4048 34.4909H60.7455C59.975 36.6355 58.2905 38.4336 55.9804 39.27C51.8625 40.7607 47.3158 38.6309 45.8251 34.5131L45.8171 34.4909H27.6694C26.9902 36.3823 25.596 38.0182 23.6416 38.9576C19.6945 40.8547 14.9569 39.1929 13.0598 35.2458C12.9402 34.997 12.8347 34.745 12.7431 34.4909H7.08198C6.69965 34.4909 6.3348 34.3308 6.07592 34.0494C5.81704 33.7681 5.68781 33.3912 5.71956 33.0102L6.62153 22.1865H1.83199C1.07693 22.1865 0.464844 21.5744 0.464844 20.8194C0.464844 20.0643 1.07693 19.4522 1.83199 19.4522H6.84939L7.15471 15.7883H5.76948C5.01443 15.7883 4.40234 15.1762 4.40234 14.4211C4.40234 13.6661 5.01443 13.054 5.76948 13.054H7.38257L7.6879 9.39007H3.80073C3.04568 9.39007 2.43359 8.77798 2.43359 8.02293C2.43359 7.26787 3.04568 6.65578 3.80073 6.65578H7.91576L8.34447 1.51118ZM10.4317 9.39007H14.1808C14.9359 9.39007 15.548 8.77798 15.548 8.02293C15.548 7.26787 14.9359 6.65578 14.1808 6.65578H10.6595L10.9648 2.99186H45.3516V25.8505H25.4395C23.122 23.8177 19.7254 23.2443 16.7715 24.664C16.105 24.9843 15.5037 25.3857 14.9737 25.8505H9.05996L9.36529 22.1865H10.8996C11.6547 22.1865 12.2668 21.5744 12.2668 20.8194C12.2668 20.0643 11.6547 19.4522 10.8996 19.4522H9.59315L9.89848 15.7883H20.087C20.842 15.7883 21.4541 15.1762 21.4541 14.4211C21.4541 13.6661 20.842 13.054 20.087 13.054H10.1263L10.4317 9.39007ZM65.0377 31.7566H61.2127C61.2064 30.8788 61.0531 29.9871 60.7372 29.1147C60.6719 28.9342 60.6007 28.7575 60.5239 28.5848H65.0377V31.7566ZM65.0377 25.8505H58.5099C56.4076 24.0106 53.3948 23.3396 50.582 24.3579C49.6392 24.6992 48.8006 25.2006 48.0859 25.8205V6.92923H51.2586V16.0618C51.2586 16.8168 51.8707 17.4289 52.6257 17.4289H52.6501H52.6744H52.6986H52.7229H52.7471H52.7713H52.7954H52.8196H52.8437H52.8677H52.8918H52.9158H52.9398H52.9637H52.9877H53.0116H53.0354H53.0593H53.0831H53.1069H53.1306H53.1544H53.1781H53.2017H53.2254H53.249H53.2726H53.2962H53.3197H53.3432H53.3667H53.3902H53.4136H53.437H53.4604H53.4837H53.5071H53.5304H53.5537H53.5769H53.6001H53.6234H53.6465H53.6697H53.6928H53.7159H53.739H53.7621H53.7851H53.8081H53.8311H53.854H53.877H53.8999H53.9228H53.9456H53.9685H53.9913H54.0141H54.0368H54.0596H54.0823H54.105H54.1277H54.1503H54.173H54.1956H54.2182H54.2407H54.2633H54.2858H54.3083H54.3308H54.3532H54.3757H54.3981H54.4205H54.4429H54.4652H54.4876H54.5099H54.5322H54.5544H54.5767H54.5989H54.6211H54.6433H54.6655H54.6876H54.7098H54.7319H54.754H54.776H54.7981H54.8201H54.8421H54.8641H54.8861H54.9081H54.93H54.9519H54.9738H54.9957H55.0176H55.0394H55.0613H55.0831H55.1049H55.1267H55.1484H55.1702H55.1919H55.2136H55.2353H55.257H55.2787H55.3003H55.3219H55.3435H55.3651H55.3867H55.4083H55.4298H55.4514H55.4729H55.4944H55.5159H55.5374H55.5588H55.5803H55.6017H55.6231H55.6445H55.6659H55.6873H55.7086H55.7299H55.7513H55.7726H55.7939H55.8152H55.8365H55.8577H55.879H55.9002H55.9214H55.9426H55.9638H55.985H56.0062H56.0273H56.0485H56.0696H56.0907H56.1118H56.1329H56.154H56.1751H56.1961H56.2172H56.2382H56.2593H56.2803H56.3013H56.3223H56.3433H56.3642H56.3852H56.4062H56.4271H56.448H56.469H56.4899H56.5108H56.5317H56.5525H56.5734H56.5943H56.6151H56.636H56.6568H56.6777H56.6985H56.7193H56.7401H56.7609H56.7817H56.8025H56.8232H56.844H56.8647H56.8855H56.9062H56.927H56.9477H56.9684H56.9891H57.0098H57.0305H57.0512H57.0719H57.0926H57.1133H57.1339H57.1546H57.1752H57.1959H57.2165H57.2372H57.2578H57.2784H57.299H57.3196H57.3403H57.3609H57.3815H57.4021H57.4226H57.4432H57.4638H57.4844H57.505H57.5255H57.5461H57.5667H57.5872H57.6078H57.6283H57.6489H57.6694H57.69H57.7105H57.731H57.7516H57.7721H57.7926H57.8132H57.8337H57.8542H57.8747H57.8952H57.9158H57.9363H57.9568H57.9773H57.9978H58.0183H58.0388H58.0593H58.0798H58.1003H58.1208H58.1414H58.1619H58.1824H58.2029H58.2234H58.2439H58.2644H58.2849H58.3054H58.3259H58.3464H58.3669H58.3874H58.4079H58.4284H58.4489H58.4695H58.49H58.5105H58.531H58.5515H58.572H58.5926H58.6131H58.6336H58.6542H58.6747H58.6952H58.7158H58.7363H58.7569H58.7774H58.798H58.8185H58.8391H58.8596H58.8802H58.9008H58.9213H58.9419H58.9625H58.9831H59.0037H59.0243H59.0449H59.0655H59.0861H59.1067H59.1273H59.1479H59.1686H59.1892H59.2099H59.2305H59.2512H59.2718H59.2925H59.3131H59.3338H59.3545H59.3752H59.3959H59.4166H59.4373H59.458H59.4788H59.4995H59.5202H59.541H59.5617H59.5825H59.6033H59.6241H59.6448H59.6656H59.6864H59.7072H59.7281H59.7489H59.7697H59.7906H59.8114H59.8323H59.8532H59.8741H59.895H59.9159H59.9368H59.9577H59.9786H59.9996H60.0205H60.0415H60.0625H60.0834H60.1044H60.1254H60.1465H60.1675H60.1885H60.2096H60.2306H60.2517H60.2728H60.2939H60.315H60.3361H60.3573H60.3784H60.3996H60.4207H60.4419H60.4631H60.4843H60.5055H60.5268H60.548H60.5693H60.5905H60.6118H60.6331H60.6544H60.6758H60.6971H60.7185H60.7398H60.7612H60.7826H60.804H60.8255H60.8469H60.8684H60.8898H60.9113H60.9328H60.9543H60.9759H60.9974H61.019H61.0406H61.0622H61.0838H61.1054H61.127H61.1487H61.1704H61.1921H61.2138H61.2355H61.2573H61.279H61.3008H61.3226H61.3444H61.3663H61.3881H61.41H61.4319H61.4538H61.4757H61.4976H61.5196H61.5416H61.5636H61.5856H61.6076H61.6297H61.6517H61.6738H61.6959H61.7181H61.7402H61.7624H61.7846H61.8068H61.829H61.8513H61.8735H61.8958H61.9181H61.9405H61.9628H61.9852H62.0076H62.03H62.0524H62.0749H62.0974H62.1199H62.1424H62.1649H62.1875H62.2101H62.2327H62.2553H62.278H62.3007H62.3234H62.3461H62.3688H62.3916H62.4144H62.4372H62.4601H62.4829H62.5058H62.5287H62.5516H62.5746H62.5976H62.6206H62.6436H62.6667H62.6898H62.7129H62.736H62.7591H62.7823H62.8055H62.8287H62.852H62.8753H62.8986H62.9219H62.9453H62.9687H62.9921H63.0155H63.039H63.0624H63.086H63.1095H63.1331H63.1567H63.1803H63.2039H63.2276H63.2513H63.275H63.2988H63.3226H63.3464H63.3702H63.3941H63.418H63.4419H63.4659H63.4899H63.5139H63.5379H63.562H63.5861H63.6102H63.6344H63.6585H63.6828H63.707H63.7313H63.7556H63.7799C64.5612 17.4289 65.0377 17.9155 65.0377 18.6867V25.8505ZM27.4502 28.5848H46.0389C45.5978 29.5736 45.3578 30.6529 45.3497 31.7566H28.1377C28.1311 30.6926 27.9094 29.6143 27.4502 28.5848ZM8.8321 28.5848H12.9628C12.5211 29.578 12.2838 30.6585 12.2755 31.7566H8.56779L8.8321 28.5848ZM53.9929 6.92923V14.6946H54.0141H54.0368H54.0596H54.0823H54.105H54.1277H54.1503H54.173H54.1956H54.2182H54.2407H54.2633H54.2858H54.3083H54.3308H54.3532H54.3757H54.3981H54.4205H54.4429H54.4652H54.4876H54.5099H54.5322H54.5544H54.5767H54.5989H54.6211H54.6433H54.6655H54.6876H54.7098H54.7319H54.754H54.776H54.7981H54.8201H54.8421H54.8641H54.8861H54.9081H54.93H54.9519H54.9738H54.9957H55.0176H55.0394H55.0613H55.0831H55.1049H55.1267H55.1484H55.1702H55.1919H55.2136H55.2353H55.257H55.2787H55.3003H55.3219H55.3435H55.3651H55.3867H55.4083H55.4298H55.4514H55.4729H55.4944H55.5159H55.5374H55.5588H55.5803H55.6017H55.6231H55.6445H55.6659H55.6873H55.7086H55.7299H55.7513H55.7726H55.7939H55.8152H55.8365H55.8577H55.879H55.9002H55.9214H55.9426H55.9638H55.985H56.0062H56.0273H56.0485H56.0696H56.0907H56.1118H56.1329H56.154H56.1751H56.1961H56.2172H56.2382H56.2593H56.2803H56.3013H56.3223H56.3433H56.3642H56.3852H56.4062H56.4271H56.448H56.469H56.4899H56.5108H56.5317H56.5525H56.5734H56.5943H56.6151H56.636H56.6568H56.6777H56.6985H56.7193H56.7401H56.7609H56.7817H56.8025H56.8232H56.844H56.8647H56.8855H56.9062H56.927H56.9477H56.9684H56.9891H57.0098H57.0305H57.0512H57.0719H57.0926H57.1133H57.1339H57.1546H57.1752H57.1959H57.2165H57.2372H57.2578H57.2784H57.299H57.3196H57.3403H57.3609H57.3815H57.4021H57.4226H57.4432H57.4638H57.4844H57.505H57.5255H57.5461H57.5667H57.5872H57.6078H57.6283H57.6489H57.6694H57.69H57.7105H57.731H57.7516H57.7721H57.7926H57.8132H57.8337H57.8542H57.8747H57.8952H57.9158H57.9363H57.9568H57.9773H57.9978H58.0183H58.0388H58.0593H58.0798H58.1003H58.1208H58.1414H58.1619H58.1824H58.2029H58.2234H58.2439H58.2644H58.2849H58.3054H58.3259H58.3464H58.3669H58.3874H58.4079H58.4284H58.4489H58.4695H58.49H58.5105H58.531H58.5515H58.572H58.5926H58.6131H58.6336H58.6542H58.6747H58.6952H58.7158H58.7363H58.7569H58.7774H58.798H58.8185H58.8391H58.8596H58.8802H58.9008H58.9213H58.9419H58.9625H58.9831H59.0037H59.0243H59.0449H59.0655H59.0861H59.1067H59.1273H59.1479H59.1686H59.1892H59.2099H59.2305H59.2512H59.2718H59.2925H59.3131H59.3338H59.3545H59.3752H59.3959H59.4166H59.4373H59.458H59.4788H59.4995H59.5202H59.541H59.5617H59.5825H59.6033H59.6241H59.6448H59.6656H59.6864H59.7072H59.7281H59.7489H59.7697H59.7906H59.8114H59.8323H59.8532H59.8741H59.895H59.9159H59.9368H59.9577H59.9786H59.9996H60.0205H60.0415H60.0625H60.0834H60.1044H60.1254H60.1465H60.1675H60.1885H60.2096H60.2306H60.2517H60.2728H60.2939H60.315H60.3205L56.9755 6.92923H53.9929ZM15.5242 34.0613C14.2812 31.4753 15.37 28.3713 17.956 27.1284C20.542 25.8855 23.646 26.9742 24.8889 29.5603C26.1319 32.1463 25.0431 35.2502 22.4571 36.4932C19.8711 37.7361 16.7671 36.6473 15.5242 34.0613ZM20.2053 30.444C19.4502 30.444 18.8381 31.0561 18.8381 31.8111C18.8381 32.5662 19.4502 33.1782 20.2053 33.1782H20.2064C20.9615 33.1782 21.5736 32.5662 21.5736 31.8111C21.5736 31.0561 20.9615 30.444 20.2064 30.444H20.2053ZM51.5127 26.9289C48.8148 27.9056 47.4195 30.8844 48.3962 33.5823C49.3729 36.2802 52.3517 37.6756 55.0496 36.6989C57.7475 35.7222 59.1428 32.7434 58.1662 30.0455C57.1895 27.3476 54.2107 25.9522 51.5127 26.9289ZM53.2793 30.4439C52.5242 30.4439 51.9121 31.056 51.9121 31.811C51.9121 32.5661 52.5242 33.1781 53.2793 33.1781H53.2804C54.0355 33.1781 54.6475 32.5661 54.6475 31.811C54.6475 31.056 54.0355 30.4439 53.2804 30.4439H53.2793ZM18.7207 8.02291C18.7207 7.26786 19.3328 6.65577 20.0878 6.65577H24.9497C25.7048 6.65577 26.3169 7.26786 26.3169 8.02291C26.3169 8.77797 25.7048 9.39006 24.9497 9.39006H20.0878C19.3328 9.39006 18.7207 8.77797 18.7207 8.02291ZM25.9941 13.054C25.239 13.054 24.627 13.6661 24.627 14.4211C24.627 15.1762 25.239 15.7883 25.9941 15.7883H28.425C29.1801 15.7883 29.7922 15.1762 29.7922 14.4211C29.7922 13.6661 29.1801 13.054 28.425 13.054H25.9941Z" fill="currentColor" />
    </symbol>

    <symbol viewBox="0 0 26 18" id="eye" xmlns="http://www.w3.org/2000/svg">
        <path d="M25.1174 8.67094C25.0819 8.5907 24.2216 6.68234 22.3092 4.76992C19.761 2.22172 16.5425 0.875 13 0.875C9.45749 0.875 6.23897 2.22172 3.69077 4.76992C1.77835 6.68234 0.914053 8.59375 0.882568 8.67094C0.836371 8.77485 0.8125 8.8873 0.8125 9.00101C0.8125 9.11473 0.836371 9.22718 0.882568 9.33109C0.918115 9.41133 1.77835 11.3187 3.69077 13.2311C6.23897 15.7783 9.45749 17.125 13 17.125C16.5425 17.125 19.761 15.7783 22.3092 13.2311C24.2216 11.3187 25.0819 9.41133 25.1174 9.33109C25.1636 9.22718 25.1875 9.11473 25.1875 9.00101C25.1875 8.8873 25.1636 8.77485 25.1174 8.67094ZM13 15.5C9.8739 15.5 7.14288 14.3635 4.8821 12.123C3.95447 11.2005 3.16527 10.1486 2.53905 9C3.16511 7.85127 3.95432 6.79932 4.8821 5.87695C7.14288 3.63648 9.8739 2.5 13 2.5C16.1261 2.5 18.8571 3.63648 21.1179 5.87695C22.0473 6.7991 22.8382 7.85104 23.466 9C22.7337 10.367 19.5437 15.5 13 15.5ZM13 4.125C12.0358 4.125 11.0933 4.41091 10.2916 4.94659C9.4899 5.48226 8.86506 6.24363 8.49608 7.13442C8.1271 8.02521 8.03056 9.00541 8.21866 9.95107C8.40676 10.8967 8.87106 11.7654 9.55285 12.4471C10.2346 13.1289 11.1033 13.5932 12.0489 13.7813C12.9946 13.9694 13.9748 13.8729 14.8656 13.5039C15.7564 13.1349 16.5177 12.5101 17.0534 11.7084C17.5891 10.9067 17.875 9.96418 17.875 9C17.8736 7.70748 17.3596 6.46829 16.4457 5.55434C15.5317 4.64039 14.2925 4.12634 13 4.125ZM13 12.25C12.3572 12.25 11.7288 12.0594 11.1944 11.7023C10.6599 11.3452 10.2434 10.8376 9.99738 10.2437C9.7514 9.64986 9.68704 8.9964 9.81244 8.36596C9.93784 7.73552 10.2474 7.15642 10.7019 6.7019C11.1564 6.24738 11.7355 5.93785 12.3659 5.81245C12.9964 5.68705 13.6499 5.75141 14.2437 5.99739C14.8376 6.24338 15.3452 6.65994 15.7023 7.1944C16.0594 7.72886 16.25 8.35721 16.25 9C16.25 9.86195 15.9076 10.6886 15.2981 11.2981C14.6886 11.9076 13.8619 12.25 13 12.25Z" fill="currentColor"/>
    </symbol>

    <symbol viewBox="0 0 18 18" id="check-2" xmlns="http://www.w3.org/2000/svg">
        <path fill-rule="evenodd" clip-rule="evenodd" d="M0.00390625 8.94655C0.00390625 4.02995 4.00334 0.0305176 8.91994 0.0305176C13.8365 0.0305176 17.836 4.03065 17.836 8.94655C17.836 13.8625 13.8365 17.8626 8.91994 17.8626C4.00334 17.8626 0.00390625 13.8631 0.00390625 8.94655ZM1.38516 8.94655C1.38516 13.1014 4.7658 16.4813 8.91994 16.4813C13.0741 16.4813 16.4547 13.1014 16.4547 8.94655C16.4547 4.79171 13.0748 1.41177 8.91994 1.41177C4.7658 1.41177 1.38516 4.79171 1.38516 8.94655ZM12.0369 5.89226C12.2938 5.60981 12.7309 5.58978 13.012 5.84531C13.2945 6.10154 13.3152 6.53801 13.0589 6.8212L8.35507 12.0009C8.22732 12.1418 8.04775 12.2233 7.85713 12.2274C7.85299 12.2268 7.84815 12.2268 7.844 12.2268C7.65893 12.2268 7.48214 12.1528 7.3516 12.0203L4.80388 9.43039C4.53591 9.15828 4.54006 8.72112 4.81217 8.45384C5.08359 8.18588 5.52005 8.19002 5.78872 8.46213L7.82401 10.5312L12.0369 5.89226Z" fill="currentColor" />
    </symbol>

    <symbol viewBox="0 0 24 24" id="google" xmlns="http://www.w3.org/2000/svg">
        <path d="M23.0938 9.91355L13.3045 9.91309C12.8722 9.91309 12.5218 10.2634 12.5218 10.6957V13.823C12.5218 14.2552 12.8722 14.6056 13.3044 14.6056H18.8172C18.2135 16.1722 17.0869 17.4842 15.6494 18.3178L18 22.387C21.7707 20.2062 24 16.3799 24 12.0965C24 11.4866 23.9551 11.0506 23.8652 10.5597C23.7968 10.1867 23.473 9.91355 23.0938 9.91355Z" fill="#167EE6" />
        <path d="M11.9995 19.3042C9.30163 19.3042 6.94644 17.8302 5.68152 15.6489L1.61249 17.9943C3.68319 21.5831 7.56228 23.9998 11.9995 23.9998C14.1762 23.9998 16.2301 23.4138 17.9995 22.3924V22.3868L15.6488 18.3176C14.5736 18.9412 13.3294 19.3042 11.9995 19.3042Z" fill="#12B347"/>
        <path d="M18 22.3927V22.3871L15.6494 18.3179C14.5741 18.9414 13.33 19.3044 12 19.3044V24.0001C14.1767 24.0001 16.2308 23.414 18 22.3927Z" fill="#0F993E" />
        <path d="M4.69566 11.9998C4.69566 10.67 5.05856 9.42589 5.68205 8.35071L1.61302 6.00537C0.586031 7.76914 0 9.81748 0 11.9998C0 14.1821 0.586031 16.2304 1.61302 17.9942L5.68205 15.6489C5.05856 14.5737 4.69566 13.3296 4.69566 11.9998Z" fill="#FFD500" />
        <path d="M11.9995 4.69566C13.7587 4.69566 15.3747 5.32078 16.6369 6.36061C16.9483 6.61711 17.4009 6.59859 17.6861 6.31336L19.9019 4.09758C20.2255 3.77395 20.2025 3.24422 19.8568 2.94431C17.742 1.10967 14.9904 0 11.9995 0C7.56228 0 3.68319 2.41673 1.61249 6.00558L5.68152 8.35092C6.94644 6.16969 9.30163 4.69566 11.9995 4.69566Z" fill="#FF4B26" />
        <path d="M16.6374 6.36061C16.9488 6.61711 17.4015 6.59859 17.6866 6.31336L19.9024 4.09758C20.226 3.77395 20.2029 3.24422 19.8573 2.94431C17.7425 1.10963 14.991 0 12 0V4.69566C13.7592 4.69566 15.3752 5.32078 16.6374 6.36061Z" fill="#D93F21" />
    </symbol>

    <symbol viewBox="0 0 28 28" id="account-user" xmlns="http://www.w3.org/2000/svg">
        <path d="M10.4993 11.6668L8.16602 9.33348C12.366 6.06681 17.3049 7.97237 19.2493 9.33348L18.666 10.5001L16.916 11.6668L15.7493 12.2501L13.416 12.8335L11.666 12.2501L10.4993 11.6668Z" fill="#C14073"/>
        <path d="M13.8007 13.4877C15.6537 13.4877 17.258 12.8231 18.5692 11.5119C19.88 10.2009 20.5448 8.59682 20.5448 6.74364C20.5448 4.8911 19.8802 3.2868 18.569 1.97537C17.2578 0.66458 15.6535 0 13.8007 0C11.9475 0 10.3434 0.66458 9.03244 1.97558C7.72144 3.28658 7.05664 4.89089 7.05664 6.74364C7.05664 8.59682 7.72144 10.2011 9.03244 11.5121C10.3439 12.8229 11.9482 13.4877 13.8007 13.4877ZM10.1928 3.13577C11.1988 2.12982 12.3788 1.64084 13.8007 1.64084C15.2224 1.64084 16.4026 2.12982 17.4088 3.13577C18.4148 4.14193 18.904 5.32219 18.904 6.74364C18.904 8.16551 18.4148 9.34556 17.4088 10.3517C16.4026 11.3579 15.2224 11.8469 13.8007 11.8469C12.3793 11.8469 11.1992 11.3577 10.1928 10.3517C9.18668 9.34578 8.69748 8.16551 8.69748 6.74364C8.69748 5.32219 9.18668 4.14193 10.1928 3.13577Z" fill="white"/>
        <path d="M5.25065 15.7502L8.16732 14.5835H9.33398L11.084 15.7502L14.584 16.3335L16.9173 15.7502L19.2507 14.5835H21.0007L22.7507 15.7502L23.9173 17.5002C17.384 23.1002 7.97287 20.2224 4.08398 18.0835L5.25065 15.7502Z" fill="#C14073"/>
        <path d="M25.6008 21.5304C25.563 20.9848 25.4865 20.3897 25.3739 19.7612C25.2603 19.128 25.114 18.5294 24.9388 17.9824C24.7576 17.4169 24.5117 16.8585 24.2073 16.3234C23.8918 15.7679 23.521 15.2843 23.1048 14.8863C22.6697 14.47 22.1369 14.1352 21.5208 13.8911C20.9069 13.6482 20.2265 13.5251 19.4987 13.5251C19.2128 13.5251 18.9364 13.6424 18.4026 13.99C18.074 14.2042 17.6897 14.452 17.2607 14.7261C16.894 14.9598 16.3971 15.1788 15.7833 15.377C15.1845 15.5708 14.5766 15.669 13.9763 15.669C13.3764 15.669 12.7685 15.5708 12.1693 15.377C11.5562 15.179 11.0591 14.96 10.6929 14.7263C10.268 14.4548 9.88348 14.207 9.55002 13.9897C9.0166 13.6422 8.74017 13.5249 8.45435 13.5249C7.72632 13.5249 7.04614 13.6482 6.4324 13.8913C5.81674 14.135 5.28375 14.4698 4.84818 14.8865C4.43204 15.2847 4.06119 15.7682 3.74588 16.3234C3.44189 16.8585 3.1958 17.4167 3.01465 17.9826C2.83969 18.5297 2.69336 19.128 2.57971 19.7612C2.46692 20.3888 2.39066 20.9842 2.35284 21.5311C2.31567 22.0657 2.29688 22.6222 2.29688 23.1845C2.29688 24.6461 2.76151 25.8294 3.67773 26.702C4.58264 27.5631 5.77979 27.9998 7.23605 27.9998H20.7182C22.1741 27.9998 23.3712 27.5631 24.2763 26.702C25.1928 25.83 25.6574 24.6463 25.6574 23.1843C25.6572 22.6201 25.6382 22.0636 25.6008 21.5304ZM23.145 25.5132C22.5471 26.0823 21.7532 26.3589 20.718 26.3589H7.23605C6.20062 26.3589 5.4068 26.0823 4.80908 25.5134C4.22269 24.9552 3.93771 24.1932 3.93771 23.1845C3.93771 22.6598 3.95502 22.1418 3.98962 21.6445C4.02338 21.1566 4.09238 20.6206 4.1947 20.0511C4.29575 19.4886 4.42435 18.9607 4.5773 18.4829C4.72406 18.0246 4.92422 17.5709 5.17245 17.1338C5.40936 16.7173 5.68195 16.3599 5.98273 16.0719C6.26407 15.8025 6.61868 15.5821 7.03653 15.4167C7.42297 15.2638 7.85727 15.1801 8.32874 15.1674C8.3862 15.198 8.48853 15.2563 8.6543 15.3644C8.99161 15.5842 9.3804 15.835 9.81021 16.1095C10.2947 16.4184 10.9189 16.6974 11.6647 16.9382C12.4271 17.1847 13.2047 17.3099 13.9765 17.3099C14.7483 17.3099 15.5261 17.1847 16.2881 16.9384C17.0345 16.6972 17.6585 16.4184 18.1436 16.1091C18.5835 15.828 18.9614 15.5844 19.2987 15.3644C19.4645 15.2565 19.5668 15.198 19.6243 15.1674C20.0959 15.1801 20.5302 15.2638 20.9169 15.4167C21.3345 15.5821 21.6891 15.8028 21.9705 16.0719C22.2713 16.3597 22.5439 16.7171 22.7808 17.1341C23.0292 17.5709 23.2296 18.0249 23.3761 18.4827C23.5293 18.9612 23.6581 19.4888 23.7589 20.0509C23.8611 20.6214 23.9303 21.1576 23.964 21.6447V21.6451C23.9988 22.1405 24.0164 22.6583 24.0166 23.1845C24.0164 24.1934 23.7314 24.9552 23.145 25.5132Z" fill="white"/>
    </symbol>

    <symbol viewBox="0 0 28 28" id="account-heart" xmlns="http://www.w3.org/2000/svg">
        <path d="M22.5005 3H18.0005C8.80052 10.6 16.5005 17.1667 21.5005 19.5L24.0005 16.5L26.5005 13.5L27.0005 9.5L26.0005 6L25.0005 4.5L22.5005 3Z" fill="#C14073"/>
        <path d="M8.09375 1.75C9.20113 1.75129 10.2965 1.97944 11.3123 2.42037C12.3281 2.86131 13.2428 3.50568 14 4.31375C15.1096 3.12948 16.5496 2.30614 18.1331 1.9506C19.7165 1.59507 21.3703 1.72376 22.8797 2.31997C24.3891 2.91618 25.6844 3.95238 26.5975 5.29404C27.5106 6.6357 27.9992 8.22087 28 9.84375C28 17.9025 15.0019 25.8125 14.4375 26.1231C14.3014 26.2049 14.1456 26.2481 13.9869 26.2481C13.8281 26.2481 13.6723 26.2049 13.5362 26.1231C12.9981 25.8125 0 17.9025 0 9.84375C0.00231552 7.69787 0.855791 5.64053 2.37316 4.12316C3.89053 2.60579 5.94786 1.75232 8.09375 1.75ZM14 24.3425C16.2619 22.8988 26.25 16.1525 26.25 9.84375C26.2489 8.49623 25.8187 7.18407 25.0218 6.09744C24.2249 5.01081 23.1027 4.20616 21.8178 3.80013C20.5329 3.39409 19.1521 3.40775 17.8754 3.83913C16.5988 4.27051 15.4928 5.09719 14.7175 6.19938C14.6367 6.31402 14.5296 6.40758 14.4051 6.47215C14.2806 6.53673 14.1424 6.57044 14.0022 6.57044C13.8619 6.57044 13.7238 6.53673 13.5993 6.47215C13.4748 6.40758 13.3676 6.31402 13.2869 6.19938C12.5123 5.0953 11.4059 4.26683 10.1285 3.83423C8.85104 3.40164 7.46897 3.38744 6.1829 3.79369C4.89683 4.19995 3.77371 5.00551 2.97658 6.09344C2.17945 7.18137 1.7498 8.49504 1.75 9.84375C1.75 16.1481 11.7381 22.8944 14 24.3425Z" fill="white"/>
    </symbol>

    <symbol viewBox="0 0 28 28" id="account-nn" xmlns="http://www.w3.org/2000/svg">
        <rect x="0.5" y="0.5" width="27" height="27" fill="none" stroke="white"/>
        <path d="M5.10235 19.659H4.31139V10.2561C4.31139 9.69884 4.17297 9.26932 3.89613 8.9675C3.63248 8.66568 3.17768 8.51476 2.53173 8.51476H2.33398V8.1665H3.6193C4.2257 8.1665 4.73982 8.25357 5.16167 8.4277C5.58351 8.60183 5.95922 8.86302 6.28879 9.21128L13.2097 16.7859V8.1665H14.0007V19.8332H13.6052L5.10235 10.5173V19.659Z" fill="white"/>
        <path d="M16.7684 19.659H15.9774V10.2561C15.9774 9.69884 15.839 9.26932 15.5621 8.9675C15.2985 8.66568 14.8437 8.51476 14.1977 8.51476H14V8.1665H15.2853C15.8917 8.1665 16.4058 8.25357 16.8277 8.4277C17.2495 8.60183 17.6252 8.86302 17.9548 9.21128L24.8757 16.7859V8.1665H25.6667V19.8332H25.2712L16.7684 10.5173V19.659Z" fill="#C14073"/>
    </symbol>

    <symbol viewBox="0 0 28 28" id="account-cart" xmlns="http://www.w3.org/2000/svg">
        <path d="M10 4.5L9.5 6.5L10 7H18V6L17.5 4L17 3L15 2H13L11.5 2.5L10 4.5Z" fill="#C14073" />
        <path fill-rule="evenodd" clip-rule="evenodd" d="M12.9179 1.5H15.1171L17.3717 2.62732L17.9708 3.82548L18.499 5.93845V7.5H9.79194L8.94531 6.65337L9.53846 4.28078L11.1928 2.07505L12.9179 1.5ZM13.0802 2.5L11.8053 2.92495L10.4596 4.71922L10.0528 6.34663L10.2062 6.5H17.499V6.06155L17.0273 4.17452L16.6264 3.37268L14.881 2.5H13.0802Z" fill="#C14073" />
        <path d="M13.9996 15.593C12.7854 15.5944 11.6081 15.1749 10.6684 14.406C9.72874 13.637 9.08465 12.566 8.84585 11.3755C8.82681 11.2501 8.83527 11.122 8.87064 11.0002C8.906 10.8784 8.96743 10.7657 9.05066 10.67C9.13389 10.5743 9.23694 10.4978 9.35266 10.4459C9.46838 10.394 9.59401 10.3678 9.72085 10.3692C9.9293 10.3662 10.132 10.4377 10.2924 10.5708C10.4528 10.704 10.5604 10.89 10.5958 11.0955C10.7606 11.882 11.1911 12.5879 11.8149 13.0946C12.4387 13.6012 13.2178 13.8778 14.0215 13.8778C14.8251 13.8778 15.6043 13.6012 16.2281 13.0946C16.8519 12.5879 17.2823 11.882 17.4471 11.0955C17.4825 10.89 17.5901 10.704 17.7505 10.5708C17.911 10.4377 18.1136 10.3662 18.3221 10.3692C18.4489 10.3678 18.5746 10.394 18.6903 10.4459C18.806 10.4978 18.9091 10.5743 18.9923 10.67C19.0755 10.7657 19.1369 10.8784 19.1723 11.0002C19.2077 11.122 19.2161 11.2501 19.1971 11.3755C18.9569 12.5734 18.3063 13.6501 17.3576 14.4199C16.4089 15.1898 15.2213 15.6046 13.9996 15.593Z" fill="white" />
        <path d="M21.7873 27.1245H6.21227C5.85622 27.1249 5.5038 27.0529 5.17646 26.9129C4.84911 26.7728 4.55367 26.5676 4.30812 26.3098C4.06257 26.052 3.87204 25.7469 3.74812 25.4131C3.62419 25.0793 3.56947 24.7238 3.58727 24.3682L4.29602 9.28322C4.32535 8.60693 4.61481 7.96812 5.10395 7.50018C5.59309 7.03223 6.24409 6.77134 6.92102 6.77197H21.0785C21.7554 6.77134 22.4064 7.03223 22.8956 7.50018C23.3847 7.96812 23.6742 8.60693 23.7035 9.28322L24.4123 24.3682C24.4301 24.7238 24.3753 25.0793 24.2514 25.4131C24.1275 25.7469 23.937 26.052 23.6914 26.3098C23.4459 26.5676 23.1504 26.7728 22.8231 26.9129C22.4957 27.0529 22.1433 27.1249 21.7873 27.1245ZM6.92102 8.53072C6.68895 8.53072 6.46639 8.62291 6.3023 8.78701C6.13821 8.9511 6.04602 9.17366 6.04602 9.40572L5.33727 24.4557C5.33133 24.5743 5.34958 24.6928 5.39088 24.804C5.43219 24.9153 5.4957 25.017 5.57755 25.1029C5.6594 25.1889 5.75788 25.2573 5.867 25.3039C5.97611 25.3506 6.09359 25.3746 6.21227 25.3745H21.7873C21.9059 25.3746 22.0234 25.3506 22.1325 25.3039C22.2417 25.2573 22.3401 25.1889 22.422 25.1029C22.5038 25.017 22.5673 24.9153 22.6087 24.804C22.65 24.6928 22.6682 24.5743 22.6623 24.4557L21.9535 9.37072C21.9535 9.13866 21.8613 8.9161 21.6972 8.75201C21.5331 8.58791 21.3106 8.49572 21.0785 8.49572L6.92102 8.53072Z" fill="white" />
        <path d="M19.25 7.65625H17.5V6.125C17.5 5.19674 17.1313 4.3065 16.4749 3.65013C15.8185 2.99375 14.9283 2.625 14 2.625C13.0717 2.625 12.1815 2.99375 11.5251 3.65013C10.8687 4.3065 10.5 5.19674 10.5 6.125V7.65625H8.75V6.125C8.75 4.73261 9.30312 3.39726 10.2877 2.41269C11.2723 1.42812 12.6076 0.875 14 0.875C15.3924 0.875 16.7277 1.42812 17.7123 2.41269C18.6969 3.39726 19.25 4.73261 19.25 6.125V7.65625Z" fill="white" />
    </symbol>

    <symbol viewBox="0 0 28 28" id="account-compare" xmlns="http://www.w3.org/2000/svg">
        <path d="M10.6641 18.1016H0.820312C0.366898 18.1016 0 18.4685 0 18.9219C0 22.0878 2.57627 24.6641 5.74219 24.6641C8.9081 24.6641 11.4844 22.0878 11.4844 18.9219C11.4844 18.4685 11.1175 18.1016 10.6641 18.1016Z" fill="white"/>
        <path d="M27.1797 18.1016H17.3359C16.8825 18.1016 16.5156 18.4685 16.5156 18.9219C16.5156 22.0878 19.0919 24.6641 22.2578 24.6641C25.4237 24.6641 28 22.0878 28 18.9219C28 18.4685 27.6331 18.1016 27.1797 18.1016Z" fill="#C14073" />
        <path d="M21.0742 6.61719L17.3828 16.4609H19.1341L22.2574 8.13285L25.3807 16.4609H27.132L23.4406 6.61719H23.8981C24.3515 6.61719 24.7184 6.25029 24.7184 5.79688C24.7184 5.34346 24.3515 4.97656 23.8981 4.97656H16.3095C15.9697 4.0238 15.0677 3.33594 13.9996 3.33594C12.9316 3.33594 12.0296 4.0238 11.6898 4.97656H4.10119C3.64777 4.97656 3.28088 5.34346 3.28088 5.79688C3.28088 6.25029 3.64777 6.61719 4.10119 6.61719H4.55859L0.867188 16.4609H2.61845L5.74181 8.13285L8.86513 16.4609H10.6164L6.92498 6.61719H11.6897C12.0295 7.56995 12.9315 8.25781 13.9996 8.25781C15.0676 8.25781 15.9696 7.56995 16.3094 6.61719H21.0742Z" fill="white"/>
    </symbol>

    <symbol viewBox="0 0 24 26" id="delete" xmlns="http://www.w3.org/2000/svg">
        <path d="M23 4H18V3C18 2.20435 17.6839 1.44129 17.1213 0.87868C16.5587 0.316071 15.7956 0 15 0H9C8.20435 0 7.44129 0.316071 6.87868 0.87868C6.31607 1.44129 6 2.20435 6 3V4H1C0.734784 4 0.48043 4.10536 0.292893 4.29289C0.105357 4.48043 0 4.73478 0 5C0 5.26522 0.105357 5.51957 0.292893 5.70711C0.48043 5.89464 0.734784 6 1 6H2V24C2 24.5304 2.21071 25.0391 2.58579 25.4142C2.96086 25.7893 3.46957 26 4 26H20C20.5304 26 21.0391 25.7893 21.4142 25.4142C21.7893 25.0391 22 24.5304 22 24V6H23C23.2652 6 23.5196 5.89464 23.7071 5.70711C23.8946 5.51957 24 5.26522 24 5C24 4.73478 23.8946 4.48043 23.7071 4.29289C23.5196 4.10536 23.2652 4 23 4ZM8 3C8 2.73478 8.10536 2.48043 8.29289 2.29289C8.48043 2.10536 8.73478 2 9 2H15C15.2652 2 15.5196 2.10536 15.7071 2.29289C15.8946 2.48043 16 2.73478 16 3V4H8V3ZM20 24H4V6H20V24ZM10 11V19C10 19.2652 9.89464 19.5196 9.70711 19.7071C9.51957 19.8946 9.26522 20 9 20C8.73478 20 8.48043 19.8946 8.29289 19.7071C8.10536 19.5196 8 19.2652 8 19V11C8 10.7348 8.10536 10.4804 8.29289 10.2929C8.48043 10.1054 8.73478 10 9 10C9.26522 10 9.51957 10.1054 9.70711 10.2929C9.89464 10.4804 10 10.7348 10 11ZM16 11V19C16 19.2652 15.8946 19.5196 15.7071 19.7071C15.5196 19.8946 15.2652 20 15 20C14.7348 20 14.4804 19.8946 14.2929 19.7071C14.1054 19.5196 14 19.2652 14 19V11C14 10.7348 14.1054 10.4804 14.2929 10.2929C14.4804 10.1054 14.7348 10 15 10C15.2652 10 15.5196 10.1054 15.7071 10.2929C15.8946 10.4804 16 10.7348 16 11Z" fill="currentColor"/>
    </symbol>

    <symbol viewBox="0 0 24 24" id="difference" xmlns="http://www.w3.org/2000/svg">
        <path fill-rule="evenodd" clip-rule="evenodd" d="M6.02441 24C2.70215 24 0 21.2979 0 17.9756V6.02442C0 2.70215 2.70215 0 6.02441 0H6.02637H17.9756H17.9775C21.2998 0 24.002 2.70215 24.002 6.02442V17.9756C24.002 21.2979 21.2998 24 17.9775 24H17.9756H6.02637H6.02441ZM22 6.02442C22 3.80566 20.1943 2 17.9756 2H6.02637C3.80762 2 2.00195 3.80566 2.00195 6.02442V17.9756C2.00195 20.1943 3.80762 22 6.02637 22H17.9756C20.1943 22 22 20.1943 22 17.9756V6.02442ZM6.21875 10.5995C5.66602 10.5995 5.21875 10.1522 5.21875 9.59948C5.21875 9.04675 5.66602 8.59948 6.21875 8.59948H12.4597L13.4688 6.39538C13.6982 5.89343 14.29 5.67175 14.7939 5.90222C15.2959 6.13171 15.5166 6.72546 15.2871 7.22741L14.6589 8.59948H17.7871C18.3398 8.59948 18.7871 9.04675 18.7871 9.59948C18.7871 10.1522 18.3398 10.5995 17.7871 10.5995H13.7433L12.4614 13.3993H17.7871C18.3398 13.3993 18.7871 13.8466 18.7871 14.3993C18.7871 14.952 18.3398 15.3993 17.7871 15.3993H11.5458L10.5371 17.6024C10.3078 18.1036 9.71547 18.3255 9.21191 18.0956C8.70996 17.8661 8.48926 17.2723 8.71875 16.7704L9.34644 15.3993H6.21875C5.66602 15.3993 5.21875 14.952 5.21875 14.3993C5.21875 13.8466 5.66602 13.3993 6.21875 13.3993H10.2622L11.5439 10.5995H6.21875Z" fill="currentColor"/>
    </symbol>

    <symbol viewBox="0 0 26 26" id="add" xmlns="http://www.w3.org/2000/svg">
        <path fill-rule="evenodd" clip-rule="evenodd" d="M0.8125 7.3125C0.8125 3.72265 3.72265 0.8125 7.3125 0.8125H17.3205C18.1437 0.8125 18.9362 1.12489 19.538 1.68657L24.155 5.9958C24.8136 6.61046 25.1875 7.4709 25.1875 8.37172V18.6875C25.1875 22.2774 22.2774 25.1875 18.6875 25.1875H7.3125C3.72265 25.1875 0.8125 22.2774 0.8125 18.6875V7.3125ZM7.3125 2.4375C4.62012 2.4375 2.4375 4.62012 2.4375 7.3125V18.6875C2.4375 21.3799 4.62012 23.5625 7.3125 23.5625H18.6875C21.3799 23.5625 23.5625 21.3799 23.5625 18.6875V8.37172C23.5625 8.2886 23.5561 8.20613 23.5437 8.125H20.3125C18.5176 8.125 17.0625 6.66993 17.0625 4.875V2.4375H7.3125ZM18.6875 3.11557V4.875C18.6875 5.77245 19.4151 6.5 20.3125 6.5H22.3137L18.6875 3.11557ZM12.1875 16.6562C12.1875 17.105 12.5513 17.4688 13 17.4688C13.4487 17.4688 13.8125 17.105 13.8125 16.6562V13.8125H16.6562C17.105 13.8125 17.4688 13.4487 17.4688 13C17.4688 12.5513 17.105 12.1875 16.6562 12.1875H13.8125V9.34375C13.8125 8.89501 13.4487 8.53125 13 8.53125C12.5513 8.53125 12.1875 8.89501 12.1875 9.34375V12.1875H9.34375C8.89501 12.1875 8.53125 12.5513 8.53125 13C8.53125 13.4487 8.89501 13.8125 9.34375 13.8125H12.1875V16.6562Z" fill="currentColor"/>
    </symbol>

    <symbol viewBox="0 0 36 34" id="star" xmlns="http://www.w3.org/2000/svg">
        <path d="M17.6919 0L21.8048 12.6581H35.1143L24.3467 20.4812L28.4595 33.1393L17.6919 25.3162L6.92428 33.1393L11.0371 20.4812L0.269531 12.6581H13.579L17.6919 0Z" fill="currentColor"/>
    </symbol>

    <symbol viewBox="0 0 144 132" id="success" xmlns="http://www.w3.org/2000/svg">
        <path d="M0.96875 22.0676H110.881V131.98H0.96875V22.0676Z" fill="#C14073" />
        <path d="M56.3593 115.577L55.6621 114.389C44.9766 96.1863 16.5883 57.5596 16.303 57.1714L15.8945 56.6169L25.5641 47.0626L56.1802 68.441C75.4585 43.4245 93.4421 26.2444 105.173 16.21C118.004 5.23484 126.358 0.183552 126.442 0.134641L126.631 0.0212402H143.029L141.468 1.41226C101.165 37.3096 57.4768 113.614 57.0407 114.381L56.3593 115.577Z" fill="black"/>
    </symbol>

    <symbol viewBox="0 0 14 13" id="cross" xmlns="http://www.w3.org/2000/svg">
        <path fill-rule="evenodd" clip-rule="evenodd" d="M5.574 6.43547L1.47768 2.33915C1.35728 2.21875 1.31631 2.02878 1.36378 1.81104C1.41125 1.59329 1.54328 1.36561 1.73081 1.17807C1.91835 0.990535 2.14603 0.858509 2.36378 0.811037C2.58152 0.763564 2.77149 0.804535 2.89189 0.924935L6.98822 5.02126L11.0601 0.949349C11.1805 0.828949 11.3704 0.787886 11.588 0.835194C11.8056 0.882501 12.033 1.0143 12.2203 1.20161C12.4076 1.38891 12.5394 1.61637 12.5867 1.83395C12.6341 2.05153 12.593 2.24141 12.4726 2.36181L8.40068 6.43371L12.8792 10.9123C12.9996 11.0327 13.0406 11.2226 12.9931 11.4404C12.9457 11.6581 12.8136 11.8858 12.6261 12.0734C12.4386 12.2609 12.2109 12.3929 11.9931 12.4404C11.7754 12.4879 11.5854 12.4469 11.465 12.3265L6.98646 7.84793L2.48524 12.3491C2.36484 12.4695 2.17496 12.5106 1.95738 12.4633C1.7398 12.416 1.51234 12.2842 1.32504 12.0969C1.13773 11.9096 1.00593 11.6821 0.958624 11.4645C0.911316 11.247 0.95238 11.0571 1.07278 10.9367L5.574 6.43547Z" fill="currentColor"/>
    </symbol>


</svg>