<svg width="29" height="13" viewBox="0 0 29 13" fill="none" xmlns="http://www.w3.org/2000/svg">
<path fill-rule="evenodd" clip-rule="evenodd" d="M3.92842 2.42742C4.471 2.47319 5.01357 2.15281 5.35268 1.74661C5.68613 1.32897 5.90655 0.768301 5.85004 0.19619C5.36963 0.219074 4.77619 0.516572 4.43708 0.934213C4.12624 1.29464 3.8606 1.8782 3.92842 2.42742ZM10.3828 9.79626V0.877053H13.6892C15.396 0.877053 16.5885 2.06704 16.5885 3.80626C16.5885 5.54547 15.3734 6.74691 13.6439 6.74691H11.7506V9.79626H10.3828ZM5.8444 2.53625C5.3664 2.5084 4.93025 2.68176 4.57796 2.82179C4.35125 2.91191 4.15927 2.98821 4.01321 2.98821C3.84931 2.98821 3.6494 2.90782 3.42495 2.81757C3.13085 2.6993 2.79461 2.56408 2.44201 2.57057C1.6338 2.58202 0.882114 3.04543 0.469533 3.78345C-0.378238 5.25949 0.249112 7.44496 1.06862 8.64639C1.4699 9.24138 1.9503 9.89359 2.58331 9.8707C2.86179 9.86007 3.06211 9.77402 3.26943 9.68497C3.50811 9.58245 3.75606 9.47595 4.1432 9.47595C4.51693 9.47595 4.75403 9.57967 4.98164 9.67924C5.19805 9.77392 5.40588 9.86484 5.71441 9.85926C6.37002 9.84782 6.7826 9.26427 7.18388 8.66927C7.61692 8.03068 7.80722 7.40745 7.8361 7.31287L7.83948 7.30193C7.83879 7.30123 7.83347 7.29876 7.82407 7.29441L7.82404 7.29439L7.82401 7.29437L7.824 7.29437C7.67923 7.22729 6.57279 6.71454 6.56218 5.33959C6.55152 4.18552 7.43978 3.60079 7.57961 3.50874L7.57964 3.50872C7.58814 3.50313 7.59386 3.49936 7.59646 3.49739C7.03128 2.65067 6.14959 2.55913 5.8444 2.53625ZM19.0867 9.86482C19.9458 9.86482 20.7427 9.4243 21.1044 8.72632H21.1326V9.79617H22.3986V5.35659C22.3986 4.06934 21.3813 3.23978 19.8158 3.23978C18.3633 3.23978 17.2894 4.08078 17.2498 5.23645H18.4819C18.5837 4.68722 19.0867 4.32679 19.7762 4.32679C20.6127 4.32679 21.0818 4.72155 21.0818 5.44813V5.94014L19.3749 6.04312C17.7868 6.14038 16.9277 6.79831 16.9277 7.94253C16.9277 9.09819 17.815 9.86482 19.0867 9.86482ZM19.4541 8.80638C18.725 8.80638 18.2615 8.45167 18.2615 7.90816C18.2615 7.3475 18.708 7.02139 19.5614 6.9699L21.0818 6.87265V7.3761C21.0818 8.21138 20.3809 8.80638 19.4541 8.80638ZM26.5978 10.1453C26.0496 11.7072 25.4222 12.2221 24.0884 12.2221C23.9867 12.2221 23.6475 12.2106 23.5684 12.1877V11.1179C23.6532 11.1293 23.8623 11.1408 23.9697 11.1408C24.5744 11.1408 24.9136 10.8833 25.1227 10.2139L25.247 9.81919L22.9298 3.32573H24.3597L25.9704 8.59487H25.9987L27.6095 3.32573H28.9998L26.5978 10.1453ZM11.7505 2.04404H13.3273C14.5142 2.04404 15.1924 2.68481 15.1924 3.81187C15.1924 4.93892 14.5142 5.58541 13.3217 5.58541H11.7505V2.04404Z" fill="black" style="fill:black;fill-opacity:1;"/>
</svg>
