<svg width="22" height="14" viewBox="0 0 22 14" fill="none" xmlns="http://www.w3.org/2000/svg">
<path d="M21.8325 6.83333C21.8325 10.4101 18.9436 13.3333 15.3325 13.3333C11.7558 13.3333 8.83252 10.4101 8.83252 6.83333C8.83252 3.25661 11.7214 0.333328 15.2981 0.333328C18.9436 0.333328 21.8325 3.25661 21.8325 6.83333Z" fill="#FFB600" style="fill:#FFB600;fill:color(display-p3 1.0000 0.7137 0.0000);fill-opacity:1;"/>
<path d="M15.3325 0.333328C18.9092 0.333328 21.8325 3.25661 21.8325 6.83333C21.8325 10.4101 18.9436 13.3333 15.3325 13.3333C11.7558 13.3333 8.83252 10.4101 8.83252 6.83333" fill="#F7981D" style="fill:#F7981D;fill:color(display-p3 0.9686 0.5961 0.1137);fill-opacity:1;"/>
<path d="M15.3325 0.333328C18.9092 0.333328 21.8325 3.25661 21.8325 6.83333C21.8325 10.4101 18.9436 13.3333 15.3325 13.3333" fill="#FF8500" style="fill:#FF8500;fill:color(display-p3 1.0000 0.5216 0.0000);fill-opacity:1;"/>
<path d="M6.59724 0.333328C3.05491 0.36772 0.166016 3.25661 0.166016 6.83333C0.166016 10.4101 3.05491 13.3333 6.66602 13.3333C8.3512 13.3333 9.86443 12.6799 11.0337 11.6482C11.2745 11.4418 11.4808 11.2011 11.6872 10.9603H10.3459C10.174 10.754 10.002 10.5132 9.86443 10.3069H12.1687C12.3062 10.1005 12.4438 9.85979 12.547 9.61905H9.48612C9.38295 9.4127 9.27977 9.17196 9.21099 8.93122H12.7877C12.9941 8.27778 13.1316 7.58995 13.1316 6.86772C13.1316 6.38624 13.0628 5.93915 12.9941 5.49206H9.00464C9.03903 5.25132 9.10782 5.04497 9.1766 4.80423H12.7533C12.6845 4.56349 12.5814 4.32275 12.4782 4.1164H9.45173C9.55491 3.87566 9.69247 3.66931 9.83004 3.42857H12.1343C11.9967 3.18783 11.8247 2.94709 11.6184 2.74074H10.3459C10.5523 2.5 10.7586 2.29365 10.9994 2.0873C9.86443 1.02116 8.31681 0.402111 6.63163 0.402111C6.63163 0.333328 6.63163 0.333328 6.59724 0.333328Z" fill="#FF5050" style="fill:#FF5050;fill:color(display-p3 1.0000 0.3137 0.3137);fill-opacity:1;"/>
<path d="M0.166016 6.83334C0.166016 10.4101 3.05491 13.3333 6.66602 13.3333C8.3512 13.3333 9.86443 12.6799 11.0337 11.6482C11.2745 11.4418 11.4808 11.2011 11.6872 10.9603H10.3459C10.174 10.754 10.002 10.5132 9.86443 10.3069H12.1687C12.3062 10.1005 12.4438 9.85979 12.547 9.61905H9.48612C9.38295 9.4127 9.27977 9.17196 9.21099 8.93122H12.7877C12.9941 8.27778 13.1316 7.58995 13.1316 6.86773C13.1316 6.38625 13.0628 5.93916 12.9941 5.49207H9.00464C9.03903 5.25133 9.10782 5.04498 9.1766 4.80424H12.7533C12.6845 4.5635 12.5814 4.32276 12.4782 4.11641H9.45173C9.55491 3.87567 9.69247 3.66932 9.83004 3.42858H12.1343C11.9967 3.18784 11.8247 2.9471 11.6184 2.74075H10.3459C10.5523 2.50001 10.7586 2.29366 10.9994 2.08731C9.86443 1.02117 8.31681 0.402122 6.63163 0.402122H6.59724" fill="#E52836" style="fill:#E52836;fill:color(display-p3 0.8980 0.1569 0.2118);fill-opacity:1;"/>
<path d="M6.66595 13.3333C8.35114 13.3333 9.86436 12.6799 11.0337 11.6482C11.2744 11.4418 11.4808 11.2011 11.6871 10.9603H10.3458C10.1739 10.754 10.0019 10.5132 9.86436 10.3069H12.1686C12.3062 10.1005 12.4437 9.85979 12.5469 9.61905H9.48606C9.38288 9.4127 9.27971 9.17196 9.21092 8.93122H12.7876C12.994 8.27778 13.1316 7.58995 13.1316 6.86773C13.1316 6.38625 13.0628 5.93916 12.994 5.49207H9.00458C9.03897 5.25133 9.10775 5.04498 9.17653 4.80424H12.7533C12.6845 4.5635 12.5813 4.32276 12.4781 4.11641H9.45167C9.55484 3.87567 9.69241 3.66932 9.82997 3.42858H12.1342C11.9966 3.18784 11.8247 2.9471 11.6183 2.74075H10.3458C10.5522 2.50001 10.7585 2.29366 10.9993 2.08731C9.86436 1.02117 8.31674 0.402122 6.63156 0.402122H6.59717" fill="#CB2026" style="fill:#CB2026;fill:color(display-p3 0.7961 0.1255 0.1490);fill-opacity:1;"/>
<path d="M8.9705 8.4841L9.07368 7.89944C9.03928 7.89944 8.9705 7.93383 8.90172 7.93383C8.66098 7.93383 8.62659 7.79627 8.66098 7.72748L8.86733 6.52378H9.24563L9.34881 5.87034H9.00489L9.07368 5.45764H8.38584C8.38584 5.45764 7.97314 7.72748 7.97314 8.00262C7.97314 8.41532 8.21389 8.58727 8.52341 8.58727C8.72976 8.58727 8.90172 8.51849 8.9705 8.4841Z" fill="white" style="fill:white;fill-opacity:1;"/>
<path d="M9.21094 7.38354C9.21094 8.3465 9.86438 8.58724 10.4146 8.58724C10.9305 8.58724 11.1369 8.48407 11.1369 8.48407L11.2744 7.83063C11.2744 7.83063 10.8961 8.00259 10.5522 8.00259C9.79559 8.00259 9.93316 7.45233 9.93316 7.45233H11.3432C11.3432 7.45233 11.4464 7.00524 11.4464 6.83328C11.4464 6.38619 11.2056 5.83593 10.449 5.83593C9.72681 5.76714 9.21094 6.52376 9.21094 7.38354ZM10.4146 6.38619C10.7929 6.38619 10.7242 6.83328 10.7242 6.86767H9.96755C9.96755 6.83328 10.0363 6.38619 10.4146 6.38619Z" fill="white" style="fill:white;fill-opacity:1;"/>
<path d="M14.7826 8.4841L14.9202 7.72748C14.9202 7.72748 14.5763 7.89944 14.3356 7.89944C13.8541 7.89944 13.6477 7.52113 13.6477 7.10844C13.6477 6.28304 14.0604 5.83595 14.5419 5.83595C14.8858 5.83595 15.161 6.0423 15.161 6.0423L15.2641 5.32007C15.2641 5.32007 14.8514 5.14812 14.4731 5.14812C13.6821 5.14812 12.8911 5.83595 12.8911 7.14283C12.8911 8.00262 13.3038 8.58727 14.1292 8.58727C14.4043 8.58727 14.7826 8.4841 14.7826 8.4841Z" fill="white" style="fill:white;fill-opacity:1;"/>
<path d="M5.18725 5.76714C4.70577 5.76714 4.36185 5.90471 4.36185 5.90471L4.25868 6.48937C4.25868 6.48937 4.5682 6.3518 5.01529 6.3518C5.25603 6.3518 5.46238 6.38619 5.46238 6.59254C5.46238 6.73011 5.42799 6.7645 5.42799 6.7645C5.42799 6.7645 5.22164 6.7645 5.11847 6.7645C4.53381 6.7645 3.88037 7.00524 3.88037 7.79624C3.88037 8.41529 4.29307 8.55286 4.53381 8.55286C5.01529 8.55286 5.22164 8.24333 5.25603 8.24333L5.22164 8.51847H5.84069L6.11582 6.62693C6.11582 5.80153 5.42799 5.76714 5.18725 5.76714ZM5.32482 7.31476C5.32482 7.41794 5.25603 7.9682 4.84333 7.9682C4.63698 7.9682 4.5682 7.79624 4.5682 7.69307C4.5682 7.52111 4.67138 7.28037 5.18725 7.28037C5.29042 7.31476 5.32482 7.31476 5.32482 7.31476Z" fill="white" style="fill:white;fill-opacity:1;"/>
<path d="M6.76952 8.55287C6.94148 8.55287 7.80127 8.58727 7.80127 7.65869C7.80127 6.7989 6.97587 6.97086 6.97587 6.62695C6.97587 6.45499 7.11344 6.38621 7.35418 6.38621C7.45735 6.38621 7.83566 6.4206 7.83566 6.4206L7.93883 5.80155C7.93883 5.80155 7.69809 5.73277 7.28539 5.73277C6.76952 5.73277 6.25365 5.93911 6.25365 6.62695C6.25365 7.41795 7.11344 7.34917 7.11344 7.65869C7.11344 7.86504 6.8727 7.89943 6.70074 7.89943C6.39121 7.89943 6.08169 7.79626 6.08169 7.79626L5.97852 8.41531C6.01291 8.48409 6.18487 8.55287 6.76952 8.55287Z" fill="white" style="fill:white;fill-opacity:1;"/>
<path d="M20.4916 5.21688L20.354 6.14546C20.354 6.14546 20.0789 5.80154 19.7006 5.80154C19.0815 5.80154 18.5312 6.55816 18.5312 7.45234C18.5312 8.0026 18.8064 8.58726 19.391 8.58726C19.8037 8.58726 20.0445 8.31212 20.0445 8.31212L20.0101 8.55287H20.6979L21.2138 5.25128L20.4916 5.21688ZM20.182 7.03964C20.182 7.41794 20.0101 7.89943 19.6318 7.89943C19.391 7.89943 19.2535 7.69308 19.2535 7.34916C19.2535 6.7989 19.4942 6.45498 19.8037 6.45498C20.0445 6.45498 20.182 6.62694 20.182 7.03964Z" fill="white" style="fill:white;fill-opacity:1;"/>
<path d="M1.4386 8.51848L1.85129 6.04228L1.92008 8.51848H2.40156L3.29574 6.04228L2.91743 8.51848H3.63965L4.18992 5.21688H3.055L2.36717 7.24599L2.33278 5.21688H1.33542L0.785156 8.51848H1.4386Z" fill="white" style="fill:white;fill-opacity:1;"/>
<path d="M12.0999 8.51846C12.3062 7.38354 12.3406 6.45497 12.8221 6.62693C12.8909 6.17984 12.9941 6.00788 13.0628 5.83592C13.0628 5.83592 13.0284 5.83592 12.9253 5.83592C12.6157 5.83592 12.375 6.24862 12.375 6.24862L12.4438 5.87031H11.7904L11.3433 8.55285H12.0999V8.51846Z" fill="white" style="fill:white;fill-opacity:1;"/>
<path d="M16.3645 5.76714C15.883 5.76714 15.5391 5.90471 15.5391 5.90471L15.4359 6.48937C15.4359 6.48937 15.7454 6.3518 16.1925 6.3518C16.4333 6.3518 16.6396 6.38619 16.6396 6.59254C16.6396 6.73011 16.6052 6.7645 16.6052 6.7645C16.6052 6.7645 16.3989 6.7645 16.2957 6.7645C15.7111 6.7645 15.0576 7.00524 15.0576 7.79624C15.0576 8.41529 15.4703 8.55286 15.7111 8.55286C16.1925 8.55286 16.3989 8.24333 16.4333 8.24333L16.3989 8.51847H17.0179L17.2931 6.62693C17.3275 5.80153 16.6052 5.76714 16.3645 5.76714ZM16.5365 7.31476C16.5365 7.41794 16.4677 7.9682 16.055 7.9682C15.8486 7.9682 15.7798 7.79624 15.7798 7.69307C15.7798 7.52111 15.883 7.28037 16.3989 7.28037C16.5021 7.31476 16.5021 7.31476 16.5365 7.31476Z" fill="white" style="fill:white;fill-opacity:1;"/>
<path d="M17.8777 8.51846C18.0841 7.38354 18.1184 6.45497 18.5999 6.62693C18.6687 6.17984 18.7719 6.00788 18.8407 5.83592C18.8407 5.83592 18.8063 5.83592 18.7031 5.83592C18.3936 5.83592 18.1528 6.24862 18.1528 6.24862L18.2216 5.87031H17.5682L17.1211 8.55285H17.8777V8.51846Z" fill="white" style="fill:white;fill-opacity:1;"/>
<path d="M7.9043 8.00262C7.9043 8.41532 8.14504 8.58727 8.45456 8.58727C8.6953 8.58727 8.90165 8.51849 8.97043 8.4841L9.07361 7.89944C9.03922 7.89944 8.97043 7.93383 8.90165 7.93383C8.66091 7.93383 8.62652 7.79627 8.66091 7.72748L8.86726 6.52378H9.24557L9.34874 5.87034H9.00483L9.07361 5.45764" fill="#DCE5E5" style="fill:#DCE5E5;fill:color(display-p3 0.8627 0.8980 0.8980);fill-opacity:1;"/>
<path d="M9.55518 7.38354C9.55518 8.3465 9.8647 8.58724 10.415 8.58724C10.9308 8.58724 11.1372 8.48407 11.1372 8.48407L11.2748 7.83063C11.2748 7.83063 10.8964 8.00259 10.5525 8.00259C9.79592 8.00259 9.93348 7.45233 9.93348 7.45233H11.3435C11.3435 7.45233 11.4467 7.00524 11.4467 6.83328C11.4467 6.38619 11.206 5.83593 10.4494 5.83593C9.72713 5.76714 9.55518 6.52376 9.55518 7.38354ZM10.415 6.38619C10.7933 6.38619 10.8621 6.83328 10.8621 6.86767H9.96787C9.96787 6.83328 10.0367 6.38619 10.415 6.38619Z" fill="#DCE5E5" style="fill:#DCE5E5;fill:color(display-p3 0.8627 0.8980 0.8980);fill-opacity:1;"/>
<path d="M14.7825 8.4841L14.92 7.72748C14.92 7.72748 14.5761 7.89944 14.3354 7.89944C13.8539 7.89944 13.6476 7.52113 13.6476 7.10844C13.6476 6.28304 14.0603 5.83595 14.5417 5.83595C14.8857 5.83595 15.1608 6.0423 15.1608 6.0423L15.264 5.32007C15.264 5.32007 14.8513 5.14812 14.473 5.14812C13.682 5.14812 13.2349 5.83595 13.2349 7.14283C13.2349 8.00262 13.3036 8.58727 14.129 8.58727C14.4042 8.58727 14.7825 8.4841 14.7825 8.4841Z" fill="#DCE5E5" style="fill:#DCE5E5;fill:color(display-p3 0.8627 0.8980 0.8980);fill-opacity:1;"/>
<path d="M4.25868 6.52375C4.25868 6.52375 4.5682 6.38619 5.01529 6.38619C5.25603 6.38619 5.46238 6.42058 5.46238 6.62693C5.46238 6.76449 5.42799 6.79888 5.42799 6.79888C5.42799 6.79888 5.22164 6.79888 5.11847 6.79888C4.53381 6.79888 3.88037 7.03963 3.88037 7.83063C3.88037 8.44968 4.29307 8.58724 4.53381 8.58724C5.01529 8.58724 5.22164 8.27772 5.25603 8.27772L5.22164 8.55285H5.84069L6.11582 6.66132C6.11582 5.87031 5.42799 5.83592 5.15286 5.83592L4.25868 6.52375ZM5.66873 7.31476C5.66873 7.41793 5.25603 7.9682 4.84333 7.9682C4.63698 7.9682 4.5682 7.79624 4.5682 7.69306C4.5682 7.52111 4.67138 7.28037 5.18725 7.28037C5.29042 7.31476 5.66873 7.31476 5.66873 7.31476Z" fill="#DCE5E5" style="fill:#DCE5E5;fill:color(display-p3 0.8627 0.8980 0.8980);fill-opacity:1;"/>
<path d="M6.0127 8.48409C6.0127 8.48409 6.21904 8.55287 6.8037 8.55287C6.97566 8.55287 7.83545 8.58727 7.83545 7.65869C7.83545 6.7989 7.01005 6.97086 7.01005 6.62695C7.01005 6.45499 7.14762 6.38621 7.38836 6.38621C7.49153 6.38621 7.86984 6.4206 7.86984 6.4206L7.97301 5.80155C7.97301 5.80155 7.73227 5.73277 7.31957 5.73277C6.8037 5.73277 6.63174 5.93911 6.63174 6.62695C6.63174 7.41795 7.14762 7.34917 7.14762 7.65869C7.14762 7.86504 6.90688 7.89943 6.73492 7.89943" fill="#DCE5E5" style="fill:#DCE5E5;fill:color(display-p3 0.8627 0.8980 0.8980);fill-opacity:1;"/>
<path d="M20.3539 6.14547C20.3539 6.14547 20.0788 5.80155 19.7004 5.80155C19.0814 5.80155 18.8751 6.55817 18.8751 7.45235C18.8751 8.00261 18.8063 8.58727 19.3909 8.58727C19.8036 8.58727 20.0444 8.31214 20.0444 8.31214L20.01 8.55288H20.6978L21.2137 5.25129L20.3539 6.14547ZM20.3195 7.03965C20.3195 7.41796 20.01 7.89944 19.6317 7.89944C19.3909 7.89944 19.2534 7.69309 19.2534 7.34917C19.2534 6.79891 19.4941 6.45499 19.8036 6.45499C20.0444 6.45499 20.3195 6.62695 20.3195 7.03965Z" fill="#DCE5E5" style="fill:#DCE5E5;fill:color(display-p3 0.8627 0.8980 0.8980);fill-opacity:1;"/>
<path d="M1.4386 8.51848L1.85129 6.04228L1.92008 8.51848H2.40156L3.29574 6.04228L2.91743 8.51848H3.63965L4.18992 5.21688H3.33013L2.36717 7.24599L2.33278 5.21688H1.95447L0.785156 8.51848H1.4386Z" fill="#DCE5E5" style="fill:#DCE5E5;fill:color(display-p3 0.8627 0.8980 0.8980);fill-opacity:1;"/>
<path d="M11.3779 8.51846H12.1002C12.3065 7.38354 12.3409 6.45497 12.8224 6.62693C12.8912 6.17984 12.9943 6.00788 13.0631 5.83592C13.0631 5.83592 13.0287 5.83592 12.9256 5.83592C12.616 5.83592 12.3753 6.24862 12.3753 6.24862L12.4441 5.87031" fill="#DCE5E5" style="fill:#DCE5E5;fill:color(display-p3 0.8627 0.8980 0.8980);fill-opacity:1;"/>
<path d="M15.4359 6.52375C15.4359 6.52375 15.7454 6.38619 16.1925 6.38619C16.4333 6.38619 16.6396 6.42058 16.6396 6.62693C16.6396 6.76449 16.6052 6.79888 16.6052 6.79888C16.6052 6.79888 16.3989 6.79888 16.2957 6.79888C15.7111 6.79888 15.0576 7.03963 15.0576 7.83063C15.0576 8.44968 15.4703 8.58724 15.7111 8.58724C16.1925 8.58724 16.3989 8.27772 16.4333 8.27772L16.3989 8.55285H17.0179L17.2931 6.66132C17.2931 5.87031 16.6052 5.83592 16.3301 5.83592L15.4359 6.52375ZM16.846 7.31476C16.846 7.41793 16.4333 7.9682 16.0206 7.9682C15.8142 7.9682 15.7454 7.79624 15.7454 7.69306C15.7454 7.52111 15.8486 7.28037 16.3645 7.28037C16.5021 7.31476 16.846 7.31476 16.846 7.31476Z" fill="#DCE5E5" style="fill:#DCE5E5;fill:color(display-p3 0.8627 0.8980 0.8980);fill-opacity:1;"/>
<path d="M17.1558 8.51846H17.878C18.0843 7.38354 18.1187 6.45497 18.6002 6.62693C18.669 6.17984 18.7722 6.00788 18.8409 5.83592C18.8409 5.83592 18.8066 5.83592 18.7034 5.83592C18.3939 5.83592 18.1531 6.24862 18.1531 6.24862L18.2219 5.87031" fill="#DCE5E5" style="fill:#DCE5E5;fill:color(display-p3 0.8627 0.8980 0.8980);fill-opacity:1;"/>
</svg>
