<svg width="25" height="24" viewBox="0 0 25 24" fill="none" xmlns="http://www.w3.org/2000/svg">
<path fill-rule="evenodd" clip-rule="evenodd" d="M19.4414 7.0805C19.5138 7.05638 19.6103 7.10463 19.7068 7.23731C19.7068 7.23731 19.7068 7.23731 24.0733 11.4832C24.3267 11.7366 24.3267 12.1225 24.0733 12.3155C24.0733 12.3155 24.0733 12.3155 19.7068 16.6339C19.6103 16.7545 19.5138 16.7907 19.4414 16.7545C19.369 16.7183 19.3208 16.5977 19.3208 16.4409V7.35794C19.3208 7.20113 19.369 7.10463 19.4414 7.0805Z" fill="#ED1C24" style="fill:#ED1C24;fill:color(display-p3 0.9294 0.1098 0.1412);fill-opacity:1;"/>
<path fill-rule="evenodd" clip-rule="evenodd" d="M11.975 0H12.2886L12.5781 0.120623C12.5781 0.120623 12.5781 0.120623 17.0774 4.57161C17.2704 4.82492 17.198 5.00586 16.8844 5.00586C16.8844 5.00586 16.8844 5.00586 15.0147 5.00586C14.7011 5.00586 14.4357 5.27123 14.4357 5.58485C14.4357 5.58485 14.4357 5.58485 14.4357 8.88992C14.4357 9.20354 14.1824 9.45685 13.7964 9.45685C13.7964 9.45685 13.7964 9.45685 10.5275 9.45685C10.2019 9.45685 9.94855 9.20354 9.94855 8.88992C9.94855 8.88992 9.94855 8.88992 9.94855 5.58485C9.94855 5.27123 9.69525 5.00586 9.36956 5.00586H7.37928C7.0536 5.00586 6.99329 4.82492 7.18629 4.57161C7.18629 4.57161 7.18629 4.57161 11.6855 0.120623L11.975 0Z" fill="#ED1C24" style="fill:#ED1C24;fill:color(display-p3 0.9294 0.1098 0.1412);fill-opacity:1;"/>
<path fill-rule="evenodd" clip-rule="evenodd" d="M4.94253 6.98402C5.0149 7.03227 5.06315 7.14083 5.06315 7.29764V16.5615C5.06315 16.7304 5.0149 16.8269 4.94253 16.851C4.85809 16.8872 4.74953 16.851 4.61685 16.7545C4.61685 16.7545 4.61685 16.7545 0.189981 12.3156C-0.0633271 12.1226 -0.0633271 11.7366 0.189981 11.4833C0.189981 11.4833 0.189981 11.4833 4.61685 7.10464C4.74953 6.98402 4.85809 6.94783 4.94253 6.98402Z" fill="#ED1C24" style="fill:#ED1C24;fill:color(display-p3 0.9294 0.1098 0.1412);fill-opacity:1;"/>
<path fill-rule="evenodd" clip-rule="evenodd" d="M10.5274 14.2816C10.5274 14.2816 10.5274 14.2816 13.7963 14.2816C14.1823 14.2816 14.4477 14.5349 14.4477 14.8606C14.4477 14.8606 14.4477 14.8606 14.4477 18.3466C14.4477 18.7326 14.701 18.9859 15.0146 18.9859H16.7516C17.0772 18.9859 17.1979 19.1668 16.9446 19.3598C16.9446 19.3598 16.9446 19.3598 12.578 23.7385C12.4453 23.8711 12.2885 23.9314 12.1317 23.9314C11.9749 23.9314 11.806 23.8711 11.6854 23.7385C11.6854 23.7385 11.6854 23.7385 7.31884 19.3598C7.05347 19.1668 7.18615 18.9859 7.49977 18.9859C7.49977 18.9859 7.49977 18.9859 9.36943 18.9859C9.69511 18.9859 9.94842 18.7326 9.94842 18.3466C9.94842 18.3466 9.94842 18.3466 9.94842 14.8606C9.94842 14.5349 10.2017 14.2816 10.5274 14.2816Z" fill="#ED1C24" style="fill:#ED1C24;fill:color(display-p3 0.9294 0.1098 0.1412);fill-opacity:1;"/>
</svg>
