<svg width="17" height="24" viewBox="0 0 17 24" fill="none" xmlns="http://www.w3.org/2000/svg">
<path d="M16.2601 14.0442C16.2594 14.044 8.06713 12.2928 8.06713 12.2928C5.6253 11.7708 4.09352 9.4777 4.64594 7.17094C5.19869 4.86417 7.62625 3.41752 10.0681 3.93936C12.5101 4.46138 14.0417 6.75447 13.4892 9.06107C13.2124 10.216 12.4656 11.1544 11.4823 11.7391C11.4822 11.7391 11.4798 11.741 11.4789 11.7414C11.45 11.761 11.4312 11.7929 11.4312 11.8288C11.4312 11.8791 11.468 11.9214 11.5177 11.9327C11.5178 11.9329 15.1621 12.7113 15.1628 12.7113C15.2495 12.7299 15.3395 12.6983 15.3928 12.6318C15.3931 12.6312 15.393 12.6316 15.393 12.6316C16.3969 11.3767 17 9.81088 17 8.11726C17 4.12877 13.7012 0.869263 9.54031 0.637754C9.50323 0.635817 9.27773 0.627495 9.20155 0.626469C7.35929 0.59915 5.4914 1.09815 3.86708 2.1727C-0.234902 4.88583 -1.23153 10.2262 1.64035 14.1009L8.92908 23.9339C8.96021 23.974 9.01033 23.9999 9.06656 23.9999C9.12328 23.9999 9.17356 23.9735 9.20453 23.9332C9.20453 23.9332 16.3619 14.2913 16.3625 14.2904C16.3808 14.2649 16.3916 14.2339 16.3916 14.2006C16.3916 14.1243 16.3355 14.0605 16.2601 14.0442Z" fill="#FABC26" style="fill:#FABC26;fill:color(display-p3 0.9804 0.7373 0.1490);fill-opacity:1;"/>
</svg>
