<svg width="32" height="10" viewBox="0 0 32 10" fill="none" xmlns="http://www.w3.org/2000/svg">
<path d="M11.7773 9.54837L13.3858 0.500755H15.899L14.3408 9.54837H11.7773Z" fill="#3C58BF" style="fill:#3C58BF;fill:color(display-p3 0.2353 0.3451 0.7490);fill-opacity:1;"/>
<path d="M11.7773 9.54837L13.8382 0.500755H15.899L14.3408 9.54837H11.7773Z" fill="#293688" style="fill:#293688;fill:color(display-p3 0.1608 0.2118 0.5333);fill-opacity:1;"/>
<path d="M23.4385 0.601289C22.9359 0.400231 22.1316 0.199173 21.1264 0.199173C18.6131 0.199173 16.8036 1.45579 16.8036 3.26531C16.8036 4.62245 18.0602 5.32615 19.0655 5.77854C20.0708 6.23092 20.3724 6.5325 20.3724 6.93462C20.3724 7.53779 19.5682 7.83938 18.8644 7.83938C17.8592 7.83938 17.3062 7.68859 16.4518 7.33674L16.0999 7.18594L15.748 9.24679C16.3512 9.49811 17.457 9.74943 18.6131 9.74943C21.2771 9.74943 23.0364 8.49282 23.0364 6.58277C23.0364 5.52721 22.383 4.72298 20.875 4.06954C19.9703 3.61716 19.4174 3.36584 19.4174 2.91346C19.4174 2.51134 19.8697 2.10922 20.875 2.10922C21.7295 2.10922 22.3327 2.26002 22.7851 2.46108L23.0364 2.56161L23.4385 0.601289Z" fill="#3C58BF" style="fill:#3C58BF;fill:color(display-p3 0.2353 0.3451 0.7490);fill-opacity:1;"/>
<path d="M23.4385 0.601289C22.9359 0.400231 22.1316 0.199173 21.1264 0.199173C18.6131 0.199173 17.256 1.45579 17.256 3.26531C17.256 4.62245 18.0602 5.32615 19.0655 5.77854C20.0708 6.23092 20.3724 6.5325 20.3724 6.93462C20.3724 7.53779 19.5682 7.83938 18.8644 7.83938C17.8592 7.83938 17.3062 7.68859 16.4518 7.33674L16.0999 7.18594L15.748 9.24679C16.3512 9.49811 17.457 9.74943 18.6131 9.74943C21.2771 9.74943 23.0364 8.49282 23.0364 6.58277C23.0364 5.52721 22.383 4.72298 20.875 4.06954C19.9703 3.61716 19.4174 3.36584 19.4174 2.91346C19.4174 2.51134 19.8697 2.10922 20.875 2.10922C21.7295 2.10922 22.3327 2.26002 22.7851 2.46108L23.0364 2.56161L23.4385 0.601289Z" fill="#293688" style="fill:#293688;fill:color(display-p3 0.1608 0.2118 0.5333);fill-opacity:1;"/>
<path d="M27.7613 0.500755C27.1581 0.500755 26.7057 0.55102 26.4544 1.1542L22.6846 9.54837H25.3989L25.9015 8.04044H29.1184L29.42 9.54837H31.8327L29.7216 0.500755H27.7613ZM26.6052 6.5325C26.756 6.08012 27.6105 3.86848 27.6105 3.86848C27.6105 3.86848 27.8116 3.31557 27.9623 2.96372L28.1131 3.81822C28.1131 3.81822 28.6158 6.08012 28.7163 6.58277H26.6052V6.5325Z" fill="#3C58BF" style="fill:#3C58BF;fill:color(display-p3 0.2353 0.3451 0.7490);fill-opacity:1;"/>
<path d="M28.3645 0.500755C27.7613 0.500755 27.3089 0.55102 27.0576 1.1542L22.6846 9.54837H25.3989L25.9015 8.04044H29.1184L29.42 9.54837H31.8327L29.7216 0.500755H28.3645ZM26.6052 6.5325C26.8063 6.02986 27.6105 3.86848 27.6105 3.86848C27.6105 3.86848 27.8116 3.31557 27.9623 2.96372L28.1131 3.81822C28.1131 3.81822 28.6158 6.08012 28.7163 6.58277H26.6052V6.5325Z" fill="#293688" style="fill:#293688;fill:color(display-p3 0.1608 0.2118 0.5333);fill-opacity:1;"/>
<path d="M7.15265 6.83411L6.90133 5.52723C6.44895 4.01929 4.99128 2.36056 3.38281 1.55633L5.64472 9.59866H8.359L12.4304 0.551041H9.71614L7.15265 6.83411Z" fill="#3C58BF" style="fill:#3C58BF;fill:color(display-p3 0.2353 0.3451 0.7490);fill-opacity:1;"/>
<path d="M7.15265 6.83411L6.90133 5.52723C6.44895 4.01929 4.99128 2.36056 3.38281 1.55633L5.64472 9.59866H8.359L12.4304 0.551041H10.2188L7.15265 6.83411Z" fill="#293688" style="fill:#293688;fill:color(display-p3 0.1608 0.2118 0.5333);fill-opacity:1;"/>
<path d="M0.166016 0.500755L0.618396 0.601285C3.83533 1.35525 6.04697 3.2653 6.90146 5.52721L5.9967 1.25472C5.84591 0.651549 5.39353 0.500755 4.84062 0.500755H0.166016Z" fill="#FFBC00" style="fill:#FFBC00;fill:color(display-p3 1.0000 0.7373 0.0000);fill-opacity:1;"/>
<path d="M0.166016 0.500755C3.38295 1.25472 6.04697 3.21504 6.90146 5.47694L6.04697 1.90816C5.89617 1.30499 5.39353 0.953137 4.84062 0.953137L0.166016 0.500755Z" fill="#F7981D" style="fill:#F7981D;fill:color(display-p3 0.9686 0.5961 0.1137);fill-opacity:1;"/>
<path d="M0.166016 0.500755C3.38295 1.25472 6.04697 3.21504 6.90146 5.47694L6.29829 3.51663C6.1475 2.91345 5.94644 2.31028 5.24273 2.05896L0.166016 0.500755Z" fill="#ED7C00" style="fill:#ED7C00;fill:color(display-p3 0.9294 0.4863 0.0000);fill-opacity:1;"/>
<path d="M9.66591 6.53247L7.95691 4.82348L7.15268 6.73353L6.95162 5.47692C6.49924 3.96898 5.04157 2.31025 3.43311 1.50602L5.69501 9.54834H8.4093L9.66591 6.53247Z" fill="#051244" style="fill:#051244;fill:color(display-p3 0.0196 0.0706 0.2667);fill-opacity:1;"/>
<path d="M14.3403 9.54835L12.179 7.33672L11.7769 9.54835H14.3403Z" fill="#051244" style="fill:#051244;fill:color(display-p3 0.0196 0.0706 0.2667);fill-opacity:1;"/>
<path d="M20.1211 6.43195C20.3221 6.63301 20.4226 6.7838 20.3724 6.98486C20.3724 7.58803 19.5681 7.88962 18.8644 7.88962C17.8592 7.88962 17.3062 7.73883 16.4518 7.38698L16.0999 7.23618L15.748 9.29703C16.3512 9.54835 17.457 9.79967 18.6131 9.79967C20.2216 9.79967 21.5285 9.34729 22.2824 8.54306L20.1211 6.43195Z" fill="#051244" style="fill:#051244;fill:color(display-p3 0.0196 0.0706 0.2667);fill-opacity:1;"/>
<path d="M23.0361 9.54832H25.3986L25.9012 8.04039H29.1181L29.4197 9.54832H31.8324L30.9779 5.87901L27.9621 2.96367L28.1129 3.7679C28.1129 3.7679 28.6155 6.02981 28.716 6.53245H26.6049C26.806 6.02981 27.6102 3.86843 27.6102 3.86843C27.6102 3.86843 27.8113 3.31552 27.9621 2.96367" fill="#051244" style="fill:#051244;fill:color(display-p3 0.0196 0.0706 0.2667);fill-opacity:1;"/>
</svg>
