<svg width="70" height="70" viewBox="0 0 70 70" fill="none" xmlns="http://www.w3.org/2000/svg">
<g clip-path="url(#clip0_236_1783)">
<path fill-rule="evenodd" clip-rule="evenodd" d="M8.20776 15.7453C8.26681 15.0367 8.85915 14.4917 9.57018 14.4917H48.1242C48.8792 14.4917 49.4913 15.1038 49.4913 15.8588V18.5931H59.7455C60.2914 18.5931 60.7851 18.918 61.0011 19.4194L65.3565 29.5303H65.3703H65.3951H65.4199H65.4447H65.4695H65.4944H65.5192H65.5442H65.5691H65.5941H65.6191H65.6442H65.6692H65.6943H65.7195H65.7446H65.7698H65.795H65.8203H65.8456H65.8709H65.8962C68.2748 29.5303 69.9977 31.3101 69.9977 33.6317V48.6703C69.9977 49.4254 69.3856 50.0374 68.6305 50.0374H62.6948C61.9041 52.2728 60.1553 54.1493 57.7518 55.0194C53.4919 56.5615 48.7885 54.3584 47.2464 50.0985L47.2245 50.0374H28.2406C27.5431 52.0102 26.0953 53.718 24.0605 54.696C19.9773 56.6586 15.0763 54.9394 13.1137 50.8563C12.9841 50.5865 12.8705 50.3132 12.7726 50.0374H6.83589C6.45357 50.0374 6.08871 49.8773 5.82984 49.596C5.57096 49.3147 5.44172 48.9378 5.47347 48.5568L6.41815 37.2206H1.36714C0.612091 37.2206 0 36.6085 0 35.8535C0 35.0984 0.612091 34.4863 1.36714 34.4863H6.64601L6.97353 30.5561H5.46871C4.71365 30.5561 4.10156 29.944 4.10156 29.1889C4.10156 28.4339 4.71365 27.8218 5.46871 27.8218H7.20139L7.52895 23.891H3.41793C2.66287 23.891 2.05078 23.2789 2.05078 22.5239C2.05078 21.7688 2.66287 21.1567 3.41793 21.1567H7.75681L8.20776 15.7453ZM10.2727 23.891H14.2305C14.9856 23.891 15.5977 23.2789 15.5977 22.5239C15.5977 21.7688 14.9856 21.1567 14.2305 21.1567H10.5006L10.8281 17.226H46.757V41.151H25.9363C23.5386 39.0367 20.016 38.4376 16.9535 39.9095C16.2573 40.2442 15.6299 40.6642 15.0777 41.151H8.83438L9.16192 37.2206H10.8126C11.5677 37.2206 12.1797 36.6085 12.1797 35.8535C12.1797 35.0984 11.5677 34.4863 10.8126 34.4863H9.38977L9.7173 30.5561H20.3827C21.1378 30.5561 21.7499 29.944 21.7499 29.1889C21.7499 28.4339 21.1378 27.8218 20.3827 27.8218H9.94515L10.2727 23.891ZM67.2634 47.3032H63.1648C63.1645 46.377 63.0062 45.4351 62.6727 44.514C62.5949 44.2991 62.5091 44.0895 62.4157 43.8853H67.2634V47.3032ZM67.2634 41.151H60.3842C58.2088 39.2372 55.084 38.5372 52.1673 39.5931C51.1694 39.9544 50.2843 40.4891 49.5339 41.151H49.4913V21.3274H52.9102V30.8974C52.9102 31.6525 53.5222 32.2646 54.2773 32.2646H54.3026H54.328H54.3532H54.3785H54.4037H54.4289H54.4541H54.4792H54.5043H54.5294H54.5544H54.5794H54.6044H54.6294H54.6543H54.6792H54.7041H54.7289H54.7537H54.7785H54.8032H54.8279H54.8526H54.8773H54.9019H54.9265H54.9511H54.9757H55.0002H55.0247H55.0492H55.0736H55.098H55.1224H55.1467H55.1711H55.1954H55.2197H55.2439H55.2681H55.2923H55.3165H55.3406H55.3648H55.3888H55.4129H55.437H55.461H55.485H55.5089H55.5329H55.5568H55.5807H55.6045H55.6284H55.6522H55.676H55.6997H55.7235H55.7472H55.7709H55.7946H55.8182H55.8418H55.8654H55.889H55.9126H55.9361H55.9596H55.9831H56.0066H56.03H56.0534H56.0768H56.1002H56.1235H56.1469H56.1702H56.1934H56.2167H56.2399H56.2632H56.2864H56.3095H56.3327H56.3558H56.3789H56.402H56.4251H56.4482H56.4712H56.4942H56.5172H56.5402H56.5631H56.5861H56.609H56.6319H56.6547H56.6776H56.7004H56.7233H56.746H56.7688H56.7916H56.8143H56.8371H56.8598H56.8825H56.9051H56.9278H56.9504H56.973H56.9956H57.0182H57.0408H57.0633H57.0858H57.1084H57.1309H57.1533H57.1758H57.1983H57.2207H57.2431H57.2655H57.2879H57.3102H57.3326H57.3549H57.3773H57.3996H57.4219H57.4441H57.4664H57.4886H57.5109H57.5331H57.5553H57.5775H57.5996H57.6218H57.644H57.6661H57.6882H57.7103H57.7324H57.7545H57.7765H57.7986H57.8206H57.8427H57.8647H57.8867H57.9087H57.9306H57.9526H57.9745H57.9965H58.0184H58.0403H58.0622H58.0841H58.106H58.1279H58.1497H58.1716H58.1934H58.2152H58.2371H58.2589H58.2807H58.3024H58.3242H58.346H58.3677H58.3895H58.4112H58.4329H58.4547H58.4764H58.4981H58.5198H58.5414H58.5631H58.5848H58.6064H58.6281H58.6497H58.6713H58.6929H58.7146H58.7362H58.7578H58.7794H58.8009H58.8225H58.8441H58.8656H58.8872H58.9087H58.9303H58.9518H58.9733H58.9949H59.0164H59.0379H59.0594H59.0809H59.1024H59.1239H59.1453H59.1668H59.1883H59.2097H59.2312H59.2526H59.2741H59.2955H59.317H59.3384H59.3598H59.3813H59.4027H59.4241H59.4455H59.4669H59.4883H59.5098H59.5312H59.5526H59.5739H59.5953H59.6167H59.6381H59.6595H59.6809H59.7023H59.7236H59.745H59.7664H59.7878H59.8091H59.8305H59.8519H59.8732H59.8946H59.9159H59.9373H59.9587H59.98H60.0014H60.0227H60.0441H60.0655H60.0868H60.1082H60.1295H60.1509H60.1723H60.1936H60.215H60.2363H60.2577H60.2791H60.3004H60.3218H60.3432H60.3645H60.3859H60.4073H60.4286H60.45H60.4714H60.4928H60.5141H60.5355H60.5569H60.5783H60.5997H60.6211H60.6425H60.6639H60.6853H60.7067H60.7281H60.7495H60.7709H60.7924H60.8138H60.8352H60.8567H60.8781H60.8995H60.921H60.9424H60.9639H60.9854H61.0068H61.0283H61.0498H61.0713H61.0928H61.1143H61.1358H61.1573H61.1788H61.2003H61.2218H61.2434H61.2649H61.2864H61.308H61.3296H61.3511H61.3727H61.3943H61.4159H61.4375H61.4591H61.4807H61.5023H61.5239H61.5456H61.5672H61.5889H61.6105H61.6322H61.6539H61.6756H61.6973H61.719H61.7407H61.7624H61.7842H61.8059H61.8276H61.8494H61.8712H61.893H61.9148H61.9366H61.9584H61.9802H62.002H62.0239H62.0458H62.0676H62.0895H62.1114H62.1333H62.1552H62.1771H62.1991H62.221H62.243H62.265H62.287H62.309H62.331H62.353H62.375H62.3971H62.4192H62.4412H62.4633H62.4854H62.5075H62.5297H62.5518H62.574H62.5961H62.6183H62.6405H62.6628H62.685H62.7072H62.7295H62.7518H62.7741H62.7964H62.8187H62.841H62.8634H62.8857H62.9081H62.9305H62.9529H62.9754H62.9978H63.0203H63.0428H63.0653H63.0878H63.1103H63.1328H63.1554H63.178H63.2006H63.2232H63.2458H63.2685H63.2912H63.3138H63.3366H63.3593H63.382H63.4048H63.4276H63.4504H63.4732H63.496H63.5189H63.5417H63.5646H63.5875H63.6105H63.6334H63.6564H63.6794H63.7024H63.7254H63.7485H63.7716H63.7947H63.8178H63.8409H63.8641H63.8872H63.9104H63.9337H63.9569H63.9802H64.0034H64.0267H64.0501H64.0734H64.0968H64.1202H64.1436H64.167H64.1905H64.214H64.2375H64.261H64.2846H64.3081H64.3317H64.3554H64.379H64.4027H64.4264H64.4501H64.4738H64.4976H64.5214H64.5452H64.569H64.5929H64.6168H64.6407H64.6646H64.6886H64.7126H64.7366H64.7607H64.7847H64.8088H64.8329H64.8571H64.8812H64.9054H64.9297H64.9539H64.9782H65.0025H65.0268H65.0512H65.0756H65.1H65.1244H65.1489H65.1734H65.1979H65.2224H65.247H65.2716H65.2963H65.3209H65.3456H65.3703H65.3951H65.4199H65.4447H65.4695H65.4944H65.5192H65.5442H65.5691H65.5941H65.6191H65.6442H65.6692H65.6943H65.7195H65.7446H65.7698H65.795H65.8203H65.8456H65.8709H65.8962C66.742 32.2646 67.2634 32.7974 67.2634 33.6317V41.151ZM27.9641 43.8853H47.5039C47.0168 44.9467 46.7548 46.1119 46.7543 47.3032H28.7118C28.7126 46.1566 28.4721 44.9926 27.9641 43.8853ZM8.60653 43.8853H13.0497C12.5617 44.9516 12.303 46.1181 12.3022 47.3032H8.32171L8.60653 43.8853ZM55.6444 21.3274V29.5303H55.6522H55.676H55.6997H55.7235H55.7472H55.7709H55.7946H55.8182H55.8418H55.8654H55.889H55.9126H55.9361H55.9596H55.9831H56.0066H56.03H56.0534H56.0768H56.1002H56.1235H56.1469H56.1702H56.1934H56.2167H56.2399H56.2632H56.2864H56.3095H56.3327H56.3558H56.3789H56.402H56.4251H56.4482H56.4712H56.4942H56.5172H56.5402H56.5631H56.5861H56.609H56.6319H56.6547H56.6776H56.7004H56.7233H56.746H56.7688H56.7916H56.8143H56.8371H56.8598H56.8825H56.9051H56.9278H56.9504H56.973H56.9956H57.0182H57.0408H57.0633H57.0858H57.1084H57.1309H57.1533H57.1758H57.1983H57.2207H57.2431H57.2655H57.2879H57.3102H57.3326H57.3549H57.3773H57.3996H57.4219H57.4441H57.4664H57.4886H57.5109H57.5331H57.5553H57.5775H57.5996H57.6218H57.644H57.6661H57.6882H57.7103H57.7324H57.7545H57.7765H57.7986H57.8206H57.8427H57.8647H57.8867H57.9087H57.9306H57.9526H57.9745H57.9965H58.0184H58.0403H58.0622H58.0841H58.106H58.1279H58.1497H58.1716H58.1934H58.2152H58.2371H58.2589H58.2807H58.3024H58.3242H58.346H58.3677H58.3895H58.4112H58.4329H58.4547H58.4764H58.4981H58.5198H58.5414H58.5631H58.5848H58.6064H58.6281H58.6497H58.6713H58.6929H58.7146H58.7362H58.7578H58.7794H58.8009H58.8225H58.8441H58.8656H58.8872H58.9087H58.9303H58.9518H58.9733H58.9949H59.0164H59.0379H59.0594H59.0809H59.1024H59.1239H59.1453H59.1668H59.1883H59.2097H59.2312H59.2526H59.2741H59.2955H59.317H59.3384H59.3598H59.3813H59.4027H59.4241H59.4455H59.4669H59.4883H59.5098H59.5312H59.5526H59.5739H59.5953H59.6167H59.6381H59.6595H59.6809H59.7023H59.7236H59.745H59.7664H59.7878H59.8091H59.8305H59.8519H59.8732H59.8946H59.9159H59.9373H59.9587H59.98H60.0014H60.0227H60.0441H60.0655H60.0868H60.1082H60.1295H60.1509H60.1723H60.1936H60.215H60.2363H60.2577H60.2791H60.3004H60.3218H60.3432H60.3645H60.3859H60.4073H60.4286H60.45H60.4714H60.4928H60.5141H60.5355H60.5569H60.5783H60.5997H60.6211H60.6425H60.6639H60.6853H60.7067H60.7281H60.7495H60.7709H60.7924H60.8138H60.8352H60.8567H60.8781H60.8995H60.921H60.9424H60.9639H60.9854H61.0068H61.0283H61.0498H61.0713H61.0928H61.1143H61.1358H61.1573H61.1788H61.2003H61.2218H61.2434H61.2649H61.2864H61.308H61.3296H61.3511H61.3727H61.3943H61.4159H61.4375H61.4591H61.4807H61.5023H61.5239H61.5456H61.5672H61.5889H61.6105H61.6322H61.6539H61.6756H61.6973H61.719H61.7407H61.7624H61.7842H61.8059H61.8276H61.8494H61.8712H61.893H61.9148H61.9366H61.9584H61.9802H62.002H62.0239H62.0458H62.0676H62.0895H62.1114H62.1333H62.1552H62.1771H62.1991H62.221H62.243H62.265H62.287H62.309H62.331H62.353H62.375H62.3793L58.8458 21.3274H55.6444ZM15.5782 49.6718C14.2698 46.9497 15.4159 43.6823 18.138 42.374C20.8601 41.0656 24.1275 42.2117 25.4358 44.9338C26.7442 47.6559 25.5981 50.9233 22.876 52.2316C20.1539 53.54 16.8865 52.3939 15.5782 49.6718ZM20.5058 45.936C19.7508 45.936 19.1387 46.5481 19.1387 47.3032C19.1387 48.0582 19.7508 48.6703 20.5058 48.6703H20.507C21.262 48.6703 21.8741 48.0582 21.8741 47.3032C21.8741 46.5481 21.262 45.936 20.507 45.936H20.5058ZM53.098 42.1642C50.2581 43.1922 48.7894 46.3279 49.8174 49.1678C50.8455 52.0077 53.9811 53.4765 56.821 52.4484C59.6609 51.4203 61.1297 48.2847 60.1016 45.4448C59.0736 42.6049 55.9379 41.1361 53.098 42.1642ZM54.9589 45.936C54.2039 45.936 53.5918 46.5481 53.5918 47.3032C53.5918 48.0582 54.2039 48.6703 54.9589 48.6703H54.9601C55.7151 48.6703 56.3272 48.0582 56.3272 47.3032C56.3272 46.5481 55.7151 45.936 54.9601 45.936H54.9589ZM19.0156 22.5239C19.0156 21.7688 19.6277 21.1567 20.3828 21.1567H25.4472C26.2023 21.1567 26.8144 21.7688 26.8144 22.5239C26.8144 23.2789 26.2023 23.891 25.4472 23.891H20.3828C19.6277 23.891 19.0156 23.2789 19.0156 22.5239ZM26.5351 27.8218C25.7801 27.8218 25.168 28.4339 25.168 29.1889C25.168 29.944 25.7801 30.5561 26.5351 30.5561H29.0673C29.8224 30.5561 30.4345 29.944 30.4345 29.1889C30.4345 28.4339 29.8224 27.8218 29.0673 27.8218H26.5351Z" fill="#C14073" style="fill:#C14073;fill:color(display-p3 0.7569 0.2510 0.4510);fill-opacity:1;"/>
</g>
<defs>
<clipPath id="clip0_236_1783">
<rect width="69.998" height="69.998" fill="white" style="fill:white;fill-opacity:1;"/>
</clipPath>
</defs>
</svg>
