<svg width="70" height="70" viewBox="0 0 70 70" fill="none" xmlns="http://www.w3.org/2000/svg">
<path d="M52.5 19.6875H60.1562C60.4463 19.6875 60.7245 19.5723 60.9296 19.3671C61.1348 19.162 61.25 18.8838 61.25 18.5938C61.25 18.3037 61.1348 18.0255 60.9296 17.8204C60.7245 17.6152 60.4463 17.5 60.1562 17.5H52.5C52.2099 17.5 51.9317 17.6152 51.7266 17.8204C51.5215 18.0255 51.4062 18.3037 51.4062 18.5938C51.4062 18.8838 51.5215 19.162 51.7266 19.3671C51.9317 19.5723 52.2099 19.6875 52.5 19.6875Z" fill="#C14073" style="fill:#C14073;fill:color(display-p3 0.7569 0.2510 0.4510);fill-opacity:1;"/>
<path d="M47.0312 24.0625H60.1562C60.4463 24.0625 60.7245 23.9473 60.9296 23.7421C61.1348 23.537 61.25 23.2588 61.25 22.9688C61.25 22.6787 61.1348 22.4005 60.9296 22.1954C60.7245 21.9902 60.4463 21.875 60.1562 21.875H47.0312C46.7412 21.875 46.463 21.9902 46.2579 22.1954C46.0527 22.4005 45.9375 22.6787 45.9375 22.9688C45.9375 23.2588 46.0527 23.537 46.2579 23.7421C46.463 23.9473 46.7412 24.0625 47.0312 24.0625Z" fill="#C14073" style="fill:#C14073;fill:color(display-p3 0.7569 0.2510 0.4510);fill-opacity:1;"/>
<path d="M47.0312 28.4375H60.1562C60.4463 28.4375 60.7245 28.3223 60.9296 28.1171C61.1348 27.912 61.25 27.6338 61.25 27.3438C61.25 27.0537 61.1348 26.7755 60.9296 26.5704C60.7245 26.3652 60.4463 26.25 60.1562 26.25H47.0312C46.7412 26.25 46.463 26.3652 46.2579 26.5704C46.0527 26.7755 45.9375 27.0537 45.9375 27.3438C45.9375 27.6338 46.0527 27.912 46.2579 28.1171C46.463 28.3223 46.7412 28.4375 47.0312 28.4375Z" fill="#C14073" style="fill:#C14073;fill:color(display-p3 0.7569 0.2510 0.4510);fill-opacity:1;"/>
<path d="M47.0312 32.8125H60.1562C60.4463 32.8125 60.7245 32.6973 60.9296 32.4921C61.1348 32.287 61.25 32.0088 61.25 31.7188C61.25 31.4287 61.1348 31.1505 60.9296 30.9454C60.7245 30.7402 60.4463 30.625 60.1562 30.625H47.0312C46.7412 30.625 46.463 30.7402 46.2579 30.9454C46.0527 31.1505 45.9375 31.4287 45.9375 31.7188C45.9375 32.0088 46.0527 32.287 46.2579 32.4921C46.463 32.6973 46.7412 32.8125 47.0312 32.8125Z" fill="#C14073" style="fill:#C14073;fill:color(display-p3 0.7569 0.2510 0.4510);fill-opacity:1;"/>
<path d="M47.0312 37.1875H60.1562C60.4463 37.1875 60.7245 37.0723 60.9296 36.8671C61.1348 36.662 61.25 36.3838 61.25 36.0938C61.25 35.8037 61.1348 35.5255 60.9296 35.3204C60.7245 35.1152 60.4463 35 60.1562 35H47.0312C46.7412 35 46.463 35.1152 46.2579 35.3204C46.0527 35.5255 45.9375 35.8037 45.9375 36.0938C45.9375 36.3838 46.0527 36.662 46.2579 36.8671C46.463 37.0723 46.7412 37.1875 47.0312 37.1875Z" fill="#C14073" style="fill:#C14073;fill:color(display-p3 0.7569 0.2510 0.4510);fill-opacity:1;"/>
<path d="M47.0312 41.5625H54.6875C54.9776 41.5625 55.2558 41.4473 55.4609 41.2421C55.666 41.037 55.7812 40.7588 55.7812 40.4688C55.7812 40.1787 55.666 39.9005 55.4609 39.6954C55.2558 39.4902 54.9776 39.375 54.6875 39.375H47.0312C46.7412 39.375 46.463 39.4902 46.2579 39.6954C46.0527 39.9005 45.9375 40.1787 45.9375 40.4688C45.9375 40.7588 46.0527 41.037 46.2579 41.2421C46.463 41.4473 46.7412 41.5625 47.0312 41.5625Z" fill="#C14073" style="fill:#C14073;fill:color(display-p3 0.7569 0.2510 0.4510);fill-opacity:1;"/>
<path d="M64.5312 2.1875H5.46875C4.59931 2.1901 3.76622 2.53663 3.15142 3.15142C2.53663 3.76622 2.1901 4.59931 2.1875 5.46875V64.5312C2.1901 65.4007 2.53663 66.2338 3.15142 66.8486C3.76622 67.4634 4.59931 67.8099 5.46875 67.8125H64.5312C65.4007 67.8099 66.2338 67.4634 66.8486 66.8486C67.4634 66.2338 67.8099 65.4007 67.8125 64.5312V5.46875C67.8099 4.59931 67.4634 3.76622 66.8486 3.15142C66.2338 2.53663 65.4007 2.1901 64.5312 2.1875ZM65.625 64.5312C65.625 64.8213 65.5098 65.0995 65.3046 65.3046C65.0995 65.5098 64.8213 65.625 64.5312 65.625H5.46875C5.17867 65.625 4.90047 65.5098 4.69535 65.3046C4.49023 65.0995 4.375 64.8213 4.375 64.5312V13.125H65.625V64.5312ZM65.625 10.9375H4.375V5.46875C4.375 5.17867 4.49023 4.90047 4.69535 4.69535C4.90047 4.49023 5.17867 4.375 5.46875 4.375H64.5312C64.8213 4.375 65.0995 4.49023 65.3046 4.69535C65.5098 4.90047 65.625 5.17867 65.625 5.46875V10.9375Z" fill="#C14073" style="fill:#C14073;fill:color(display-p3 0.7569 0.2510 0.4510);fill-opacity:1;"/>
<path d="M8.75 6.5625H7.65625C7.36617 6.5625 7.08797 6.67773 6.88285 6.88285C6.67773 7.08797 6.5625 7.36617 6.5625 7.65625C6.5625 7.94633 6.67773 8.22453 6.88285 8.42965C7.08797 8.63477 7.36617 8.75 7.65625 8.75H8.75C9.04008 8.75 9.31828 8.63477 9.5234 8.42965C9.72852 8.22453 9.84375 7.94633 9.84375 7.65625C9.84375 7.36617 9.72852 7.08797 9.5234 6.88285C9.31828 6.67773 9.04008 6.5625 8.75 6.5625Z" fill="#C14073" style="fill:#C14073;fill:color(display-p3 0.7569 0.2510 0.4510);fill-opacity:1;"/>
<path d="M14.2188 6.5625H13.125C12.8349 6.5625 12.5567 6.67773 12.3516 6.88285C12.1465 7.08797 12.0312 7.36617 12.0312 7.65625C12.0312 7.94633 12.1465 8.22453 12.3516 8.42965C12.5567 8.63477 12.8349 8.75 13.125 8.75H14.2188C14.5088 8.75 14.787 8.63477 14.9921 8.42965C15.1973 8.22453 15.3125 7.94633 15.3125 7.65625C15.3125 7.36617 15.1973 7.08797 14.9921 6.88285C14.787 6.67773 14.5088 6.5625 14.2188 6.5625Z" fill="#C14073" style="fill:#C14073;fill:color(display-p3 0.7569 0.2510 0.4510);fill-opacity:1;"/>
<path d="M19.6875 6.5625H18.5938C18.3037 6.5625 18.0255 6.67773 17.8204 6.88285C17.6152 7.08797 17.5 7.36617 17.5 7.65625C17.5 7.94633 17.6152 8.22453 17.8204 8.42965C18.0255 8.63477 18.3037 8.75 18.5938 8.75H19.6875C19.9776 8.75 20.2558 8.63477 20.4609 8.42965C20.666 8.22453 20.7812 7.94633 20.7812 7.65625C20.7812 7.36617 20.666 7.08797 20.4609 6.88285C20.2558 6.67773 19.9776 6.5625 19.6875 6.5625Z" fill="#C14073" style="fill:#C14073;fill:color(display-p3 0.7569 0.2510 0.4510);fill-opacity:1;"/>
<path d="M62.3438 6.5625H61.25C60.9599 6.5625 60.6817 6.67773 60.4766 6.88285C60.2715 7.08797 60.1562 7.36617 60.1562 7.65625C60.1562 7.94633 60.2715 8.22453 60.4766 8.42965C60.6817 8.63477 60.9599 8.75 61.25 8.75H62.3438C62.6338 8.75 62.912 8.63477 63.1171 8.42965C63.3223 8.22453 63.4375 7.94633 63.4375 7.65625C63.4375 7.36617 63.3223 7.08797 63.1171 6.88285C62.912 6.67773 62.6338 6.5625 62.3438 6.5625Z" fill="#C14073" style="fill:#C14073;fill:color(display-p3 0.7569 0.2510 0.4510);fill-opacity:1;"/>
<path d="M47.0312 19.6875H48.125C48.4151 19.6875 48.6933 19.5723 48.8984 19.3671C49.1035 19.162 49.2188 18.8838 49.2188 18.5938C49.2188 18.3037 49.1035 18.0255 48.8984 17.8204C48.6933 17.6152 48.4151 17.5 48.125 17.5H47.0312C46.7412 17.5 46.463 17.6152 46.2579 17.8204C46.0527 18.0255 45.9375 18.3037 45.9375 18.5938C45.9375 18.8838 46.0527 19.162 46.2579 19.3671C46.463 19.5723 46.7412 19.6875 47.0312 19.6875Z" fill="#C14073" style="fill:#C14073;fill:color(display-p3 0.7569 0.2510 0.4510);fill-opacity:1;"/>
<path d="M60.1562 39.375H59.0625C58.7724 39.375 58.4942 39.4902 58.2891 39.6954C58.084 39.9005 57.9688 40.1787 57.9688 40.4688C57.9688 40.7588 58.084 41.037 58.2891 41.2421C58.4942 41.4473 58.7724 41.5625 59.0625 41.5625H60.1562C60.4463 41.5625 60.7245 41.4473 60.9296 41.2421C61.1348 41.037 61.25 40.7588 61.25 40.4688C61.25 40.1787 61.1348 39.9005 60.9296 39.6954C60.7245 39.4902 60.4463 39.375 60.1562 39.375Z" fill="#C14073" style="fill:#C14073;fill:color(display-p3 0.7569 0.2510 0.4510);fill-opacity:1;"/>
<path d="M56.875 6.5625H30.625C30.3349 6.5625 30.0567 6.67773 29.8516 6.88285C29.6465 7.08797 29.5312 7.36617 29.5312 7.65625C29.5312 7.94633 29.6465 8.22453 29.8516 8.42965C30.0567 8.63477 30.3349 8.75 30.625 8.75H56.875C57.1651 8.75 57.4433 8.63477 57.6484 8.42965C57.8535 8.22453 57.9688 7.94633 57.9688 7.65625C57.9688 7.36617 57.8535 7.08797 57.6484 6.88285C57.4433 6.67773 57.1651 6.5625 56.875 6.5625Z" fill="#C14073" style="fill:#C14073;fill:color(display-p3 0.7569 0.2510 0.4510);fill-opacity:1;"/>
<path d="M9.84375 41.5625H41.5625C41.8526 41.5625 42.1308 41.4473 42.3359 41.2421C42.541 41.037 42.6562 40.7588 42.6562 40.4688V18.5938C42.6562 18.3037 42.541 18.0255 42.3359 17.8204C42.1308 17.6152 41.8526 17.5 41.5625 17.5H9.84375C9.55367 17.5 9.27547 17.6152 9.07035 17.8204C8.86523 18.0255 8.75 18.3037 8.75 18.5938V40.4688C8.75 40.7588 8.86523 41.037 9.07035 41.2421C9.27547 41.4473 9.55367 41.5625 9.84375 41.5625ZM24.3009 35.1509L24.3141 35.1302L30.625 25.0327L39.5938 39.375H21.6562L24.3009 35.1509ZM19.0816 39.375H11.8869L18.5938 29.3125L22.0938 34.5625L19.0816 39.375ZM40.4688 19.6875V36.6559L31.5525 22.3891C31.4476 22.2399 31.3084 22.1181 31.1466 22.0341C30.9848 21.9501 30.8051 21.9062 30.6228 21.9062C30.4405 21.9062 30.2608 21.9501 30.099 22.0341C29.9372 22.1181 29.798 22.2399 29.6931 22.3891L23.3603 32.5238L19.4994 26.7367C19.3936 26.5952 19.2562 26.4804 19.0982 26.4013C18.9403 26.3222 18.766 26.281 18.5894 26.281C18.4127 26.281 18.2385 26.3222 18.0805 26.4013C17.9225 26.4804 17.7852 26.5952 17.6794 26.7367L10.9375 36.8594V19.6875H40.4688Z" fill="#C14073" style="fill:#C14073;fill:color(display-p3 0.7569 0.2510 0.4510);fill-opacity:1;"/>
<path d="M41.5625 61.25H28.4375C28.1474 61.25 27.8692 61.1348 27.6641 60.9296C27.459 60.7245 27.3438 60.4463 27.3438 60.1562V47.0312C27.3438 46.7412 27.459 46.463 27.6641 46.2579C27.8692 46.0527 28.1474 45.9375 28.4375 45.9375H41.5625C41.8526 45.9375 42.1308 46.0527 42.3359 46.2579C42.541 46.463 42.6562 46.7412 42.6562 47.0312V60.1562C42.6562 60.4463 42.541 60.7245 42.3359 60.9296C42.1308 61.1348 41.8526 61.25 41.5625 61.25ZM29.5312 59.0625H40.4688V48.125H29.5312V59.0625Z" fill="#C14073" style="fill:#C14073;fill:color(display-p3 0.7569 0.2510 0.4510);fill-opacity:1;"/>
<path d="M60.1562 61.25H47.0312C46.7412 61.25 46.463 61.1348 46.2579 60.9296C46.0527 60.7245 45.9375 60.4463 45.9375 60.1562V47.0312C45.9375 46.7412 46.0527 46.463 46.2579 46.2579C46.463 46.0527 46.7412 45.9375 47.0312 45.9375H60.1562C60.4463 45.9375 60.7245 46.0527 60.9296 46.2579C61.1348 46.463 61.25 46.7412 61.25 47.0312V60.1562C61.25 60.4463 61.1348 60.7245 60.9296 60.9296C60.7245 61.1348 60.4463 61.25 60.1562 61.25ZM48.125 59.0625H59.0625V48.125H48.125V59.0625Z" fill="#C14073" style="fill:#C14073;fill:color(display-p3 0.7569 0.2510 0.4510);fill-opacity:1;"/>
<path d="M22.9688 61.25H9.84375C9.55367 61.25 9.27547 61.1348 9.07035 60.9296C8.86523 60.7245 8.75 60.4463 8.75 60.1562V47.0312C8.75 46.7412 8.86523 46.463 9.07035 46.2579C9.27547 46.0527 9.55367 45.9375 9.84375 45.9375H22.9688C23.2588 45.9375 23.537 46.0527 23.7421 46.2579C23.9473 46.463 24.0625 46.7412 24.0625 47.0312V60.1562C24.0625 60.4463 23.9473 60.7245 23.7421 60.9296C23.537 61.1348 23.2588 61.25 22.9688 61.25ZM10.9375 59.0625H21.875V48.125H10.9375V59.0625Z" fill="#C14073" style="fill:#C14073;fill:color(display-p3 0.7569 0.2510 0.4510);fill-opacity:1;"/>
</svg>
