<svg width="70" height="70" viewBox="0 0 70 70" fill="none" xmlns="http://www.w3.org/2000/svg">
<path d="M57.5773 40.0115L62.2966 27.356C63.4979 24.56 65.927 25.0797 65.927 25.0797C67.807 25.4236 68.8188 26.9643 68.6044 28.69L64.2753 46.0925C63.1572 50.5635 60.0403 54.9233 56.4115 57.741L48.9318 63.0925V66.2483C48.9318 67.0034 48.3197 67.6155 47.5646 67.6155H35.0209V59.6826C35.0209 59.6826 34.2035 50.6483 42.7876 45.4309L53.0496 38.8441C53.5693 38.5094 54.1585 38.3459 54.743 38.3459C55.5542 38.3459 56.3577 38.6605 56.9639 39.2666C58.1652 40.4695 58.19 42.4127 57.0179 43.645L50.1072 49.0953" stroke="#C14073" style="stroke:#C14073;stroke:color(display-p3 0.7569 0.2510 0.4510);stroke-opacity:1;" stroke-width="2.73438" stroke-miterlimit="10" stroke-linecap="round" stroke-linejoin="round"/>
<path d="M19.893 49.0953L12.9823 43.645C11.8102 42.4127 11.8348 40.4695 13.0363 39.2666C13.6424 38.6605 14.4459 38.3459 15.2572 38.3459C15.8417 38.3459 16.4308 38.5094 16.9506 38.8441L27.2126 45.4309C35.7966 50.6483 34.9793 59.6826 34.9793 59.6826V67.6155H22.4356C21.6805 67.6155 21.0684 67.0034 21.0684 66.2483V63.0925L13.5887 57.741C9.95974 54.9233 6.84297 50.5635 5.72488 46.0925L1.39554 28.69C1.18117 26.9642 2.19289 25.4235 4.07291 25.0797C4.07291 25.0797 6.50185 24.56 7.70334 27.356L12.4226 40.0115" stroke="#C14073" style="stroke:#C14073;stroke:color(display-p3 0.7569 0.2510 0.4510);stroke-opacity:1;" stroke-width="2.73438" stroke-miterlimit="10" stroke-linecap="round" stroke-linejoin="round"/>
<path d="M28.7815 37.7716H27.0508C26.2957 37.7716 25.6836 37.1595 25.6836 36.4044V29.0741C25.6836 26.1077 28.0883 23.7031 31.0546 23.7031H38.9438C41.9102 23.7031 44.3148 26.1079 44.3148 29.0741V36.4044C44.3148 37.1595 43.7027 37.7716 42.9476 37.7716H41.2392" stroke="#C14073" style="stroke:#C14073;stroke:color(display-p3 0.7569 0.2510 0.4510);stroke-opacity:1;" stroke-width="2.73438" stroke-miterlimit="10" stroke-linecap="round" stroke-linejoin="round"/>
<path d="M34.9997 23.7029C38.5009 23.7029 41.3392 20.8647 41.3392 17.3634C41.3392 13.8622 38.5009 11.0239 34.9997 11.0239C31.4985 11.0239 28.6602 13.8622 28.6602 17.3634C28.6602 20.8647 31.4985 23.7029 34.9997 23.7029Z" stroke="#C14073" style="stroke:#C14073;stroke:color(display-p3 0.7569 0.2510 0.4510);stroke-opacity:1;" stroke-width="2.73438" stroke-miterlimit="10" stroke-linecap="round" stroke-linejoin="round"/>
<path d="M41.5273 15.0635H49.7257C52.6921 15.0635 55.0967 17.4682 55.0967 20.4345V27.6744C55.0967 28.4791 54.4443 29.1314 53.6397 29.1314H44.3086" stroke="#C14073" style="stroke:#C14073;stroke:color(display-p3 0.7569 0.2510 0.4510);stroke-opacity:1;" stroke-width="2.73438" stroke-miterlimit="10" stroke-linecap="round" stroke-linejoin="round"/>
<path d="M45.7809 15.0633C49.2821 15.0633 52.1204 12.225 52.1204 8.72379C52.1204 5.22257 49.2821 2.38428 45.7809 2.38428C42.2797 2.38428 39.4414 5.22257 39.4414 8.72379C39.4414 12.225 42.2797 15.0633 45.7809 15.0633Z" stroke="#C14073" style="stroke:#C14073;stroke:color(display-p3 0.7569 0.2510 0.4510);stroke-opacity:1;" stroke-width="2.73438" stroke-miterlimit="10" stroke-linecap="round" stroke-linejoin="round"/>
<path d="M25.6924 29.1314H16.3613C15.5566 29.1314 14.9043 28.4791 14.9043 27.6744V20.4345C14.9043 17.4681 17.309 15.0635 20.2753 15.0635H28.6607" stroke="#C14073" style="stroke:#C14073;stroke:color(display-p3 0.7569 0.2510 0.4510);stroke-opacity:1;" stroke-width="2.73438" stroke-miterlimit="10" stroke-linecap="round" stroke-linejoin="round"/>
<path d="M24.2184 15.0633C27.7196 15.0633 30.5579 12.225 30.5579 8.72379C30.5579 5.22257 27.7196 2.38428 24.2184 2.38428C20.7172 2.38428 17.8789 5.22257 17.8789 8.72379C17.8789 12.225 20.7172 15.0633 24.2184 15.0633Z" stroke="#C14073" style="stroke:#C14073;stroke:color(display-p3 0.7569 0.2510 0.4510);stroke-opacity:1;" stroke-width="2.73438" stroke-miterlimit="10" stroke-linecap="round" stroke-linejoin="round"/>
<circle cx="35" cy="37.7715" r="1.36719" fill="#C14073" style="fill:#C14073;fill:color(display-p3 0.7569 0.2510 0.4510);fill-opacity:1;"/>
</svg>
