<svg width="182" height="182" viewBox="0 0 182 182" fill="none" xmlns="http://www.w3.org/2000/svg">
<g clip-path="url(#clip0_261_3037)">
<path d="M104.859 51.0559C101.92 45.9692 96.8649 43.0543 90.9996 43.0543C85.1273 43.0543 80.069 45.9692 77.1293 51.0559L29.7382 133.137C26.802 138.228 26.802 144.064 29.7382 149.155C32.6779 154.241 37.7362 157.156 43.6086 157.156H138.387C144.263 157.156 149.318 154.241 152.261 149.148C155.183 144.061 155.183 138.228 152.258 133.137L104.859 51.0559ZM147.331 146.304C145.408 149.631 142.233 151.462 138.387 151.462H43.6121C39.7695 151.462 36.5952 149.631 34.6721 146.307C32.7525 142.98 32.7525 139.312 34.6721 135.985L82.0596 53.9068C83.9827 50.5796 87.1606 48.7489 91.0032 48.7489C94.8387 48.7489 98.0131 50.5796 99.9361 53.9068L147.331 135.985C149.24 139.312 149.24 142.98 147.331 146.304ZM91.149 71.7513H90.8468C88.2092 71.7513 85.856 72.7609 84.0254 74.6733C82.2089 76.5893 81.3167 78.9958 81.4446 81.6263V81.6298L83.0265 113.348C83.2327 117.546 86.6842 120.831 90.8859 120.831H91.1063C95.3079 120.831 98.7631 117.543 98.9657 113.348L100.537 81.6263C100.665 78.9887 99.7762 76.5821 97.9597 74.6662C96.1433 72.7573 93.7865 71.7513 91.149 71.7513ZM94.8565 81.349L93.2853 113.071C93.2284 114.23 92.2722 115.14 91.1098 115.14H90.8895C89.7271 115.14 88.7709 114.23 88.714 113.067L87.1321 81.349C87.0788 80.2613 87.4059 79.3832 88.1523 78.5977C88.9059 77.8085 89.7626 77.4424 90.8503 77.4424H91.1525C92.2402 77.4424 93.0969 77.8085 93.8434 78.5905C94.5863 79.3797 94.9098 80.2541 94.8565 81.349ZM90.9996 127.592C86.1511 127.592 82.2089 131.534 82.2089 136.383C82.2089 141.231 86.1511 145.173 90.9996 145.173C95.8482 145.173 99.7904 141.231 99.7904 136.383C99.7904 131.534 95.8482 127.592 90.9996 127.592ZM90.9996 139.482C89.2898 139.482 87.9 138.092 87.9 136.383C87.9 134.673 89.2898 133.283 90.9996 133.283C92.7095 133.283 94.0993 134.673 94.0993 136.383C94.0993 138.092 92.7095 139.482 90.9996 139.482ZM48.6136 48.5712C50.0425 51.0453 52.6446 52.428 55.3248 52.428C56.64 52.428 57.9766 52.0939 59.1994 51.3901C62.8821 49.2466 64.1475 44.5046 62.0147 40.8149L55.0155 28.6934C52.8721 25.0107 48.1266 23.7488 44.4332 25.8816C40.7399 28.0287 39.478 32.7706 41.6179 36.4568L48.6136 48.5712ZM47.2912 30.812C47.6147 30.6271 47.9666 30.5383 48.315 30.5383C49.0259 30.5383 49.7155 30.9044 50.0923 31.5549L57.0844 43.6657C57.6496 44.6433 57.3119 45.9016 56.345 46.4633C55.3603 47.0285 54.102 46.6979 53.5403 45.7239L46.5483 33.6131C46.5483 33.6095 46.5447 33.606 46.5447 33.606C45.9795 32.6355 46.3172 31.3772 47.2912 30.812ZM14.7623 68.9822L26.8695 75.9743C28.0604 76.6604 29.3791 77.0123 30.7193 77.0123C31.3946 77.0123 32.0771 76.9234 32.749 76.7421C34.7467 76.2018 36.4103 74.915 37.4341 73.1234C39.5491 69.4337 38.2694 64.7024 34.5868 62.5731L22.4724 55.5739C18.7791 53.466 14.0442 54.7457 11.9079 58.439C9.79637 62.1359 11.0761 66.8636 14.7623 68.9822ZM16.8453 61.2686C17.2257 60.6109 17.9224 60.2412 18.6333 60.2412C18.9746 60.2412 19.3229 60.3266 19.6357 60.5079L31.7395 67.4999C32.717 68.0651 33.0547 69.3164 32.493 70.2939C32.2229 70.7667 31.7857 71.1044 31.2631 71.2466C30.7406 71.3887 30.1896 71.3177 29.7204 71.0439L17.6096 64.0519C17.606 64.0519 17.606 64.0483 17.6025 64.0483C16.6285 63.4902 16.2908 62.239 16.8453 61.2686ZM21.7366 95.0985H7.74887C3.47258 95.0985 -0.00390625 98.5786 -0.00390625 102.851C-0.00390625 107.124 3.47613 110.604 7.74887 110.604H21.733C26.0093 110.604 29.4858 107.124 29.4858 102.851C29.4858 98.5786 26.0093 95.0985 21.7366 95.0985ZM21.7366 104.913H7.74887C6.61137 104.913 5.68715 103.989 5.68715 102.851C5.68715 101.714 6.61137 100.79 7.74887 100.79H21.733C22.8705 100.79 23.7947 101.714 23.7947 102.851C23.7947 103.989 22.8705 104.913 21.7366 104.913ZM122.807 51.3972C124.026 52.101 125.359 52.4352 126.674 52.4352C129.351 52.4352 131.957 51.0488 133.389 48.5712L140.381 36.4604C142.511 32.7742 141.249 28.0287 137.555 25.8816C133.855 23.7453 129.109 25.0107 126.977 28.7076L119.985 40.8184C117.852 44.5046 119.117 49.2502 122.807 51.3972ZM124.911 43.6657L131.903 31.5549C132.469 30.5809 133.723 30.2468 134.697 30.8084C135.675 31.3772 136.013 32.6355 135.447 33.6166L128.455 45.7275C127.89 46.705 126.635 47.0356 125.661 46.4739C124.684 45.9016 124.346 44.6433 124.911 43.6657ZM149.25 76.7421C149.922 76.9234 150.601 77.0123 151.28 77.0123C152.617 77.0123 153.939 76.6604 155.13 75.9743L167.219 68.9893C169.014 67.9656 170.301 66.302 170.841 64.3114C171.382 62.3172 171.112 60.227 170.081 58.4319C169.053 56.6404 167.39 55.3571 165.392 54.8168C163.398 54.2765 161.315 54.5466 159.527 55.5739C159.523 55.5739 159.52 55.5775 159.52 55.5775L147.423 62.566C145.625 63.6004 144.341 65.2711 143.805 67.2653C143.268 69.2559 143.541 71.339 144.569 73.1128C145.589 74.9114 147.253 76.2018 149.25 76.7421ZM149.297 68.7441C149.439 68.218 149.78 67.7772 150.263 67.4964L162.36 60.5043C162.833 60.2341 163.38 60.1666 163.906 60.3088C164.432 60.451 164.87 60.7887 165.143 61.2614C165.417 61.7378 165.488 62.2888 165.346 62.8148C165.204 63.3374 164.866 63.7711 164.383 64.0483L152.282 71.0404C151.813 71.3141 151.262 71.3852 150.74 71.243C150.217 71.1008 149.78 70.7631 149.503 70.2797C149.229 69.8105 149.154 69.2666 149.297 68.7441ZM174.25 95.0985H160.266C155.99 95.0985 152.514 98.5786 152.514 102.851C152.514 107.124 155.994 110.604 160.266 110.604H174.25C178.527 110.604 182.003 107.124 182.003 102.851C182.003 98.5786 178.527 95.0985 174.25 95.0985ZM174.25 104.913H160.266C159.129 104.913 158.205 103.989 158.205 102.851C158.205 101.714 159.129 100.79 160.266 100.79H174.25C175.388 100.79 176.312 101.714 176.312 102.851C176.312 103.989 175.384 104.913 174.25 104.913Z" fill="url(#paint0_linear_261_3037)" style=""/>
</g>
<defs>
<linearGradient id="paint0_linear_261_3037" x1="90.9996" y1="24.8431" x2="90.9996" y2="157.156" gradientUnits="userSpaceOnUse">
<stop stop-color="white" style="stop-color:white;stop-opacity:1;"/>
<stop offset="1" stop-color="white" stop-opacity="0" style="stop-color:none;stop-opacity:0;"/>
</linearGradient>
<clipPath id="clip0_261_3037">
<rect width="182" height="182" fill="white" style="fill:white;fill-opacity:1;"/>
</clipPath>
</defs>
</svg>
